M48
; DRILL file {KiCad (5.1.4)-1} date 11/16/19 11:13:11
; FORMAT={-:-/ absolute / metric / decimal}
; #@! TF.CreationDate,2019-11-16T11:13:11+01:00
; #@! TF.GenerationSoftware,Kicad,Pcbnew,(5.1.4)-1
; #@! TF.FileFunction,Plated,1,2,PTH
FMAT,2
METRIC
T1C0.300
T2C0.400
T3C1.000
T4C1.400
%
G90
G05
T1
X145.787Y-119.6
X146.0Y-73.7
X146.0Y-85.015
X147.8Y-84.5
X148.95Y-129.15
X149.015Y-119.7
X149.15Y-130.75
X149.7Y-126.8
X151.15Y-76.3
X152.25Y-83.7
X156.4Y-120.8
X157.7Y-84.965
X160.35Y-122.85
X160.35Y-126.1
X160.6Y-84.975
X160.825Y-130.4
X161.0Y-74.2
X162.575Y-134.8
X163.1Y-75.9
X163.412Y-119.7
X165.55Y-88.0
X166.0Y-113.8
X166.35Y-84.15
X166.35Y-88.0
X167.1Y-113.8
X169.75Y-90.69
X170.3Y-123.3
X170.5Y-133.475
X172.5Y-121.725
X173.595Y-86.845
X174.0Y-65.2
X176.25Y-95.2
X177.475Y-100.6
X180.25Y-78.315
X180.25Y-123.25
X180.85Y-113.8
X181.5Y-71.7
X182.5Y-121.875
X182.95Y-97.25
X183.0Y-76.7
X183.5Y-73.7
X185.387Y-127.587
X187.5Y-65.7
X190.7Y-95.0
X190.8Y-123.4
X190.9Y-89.5
X192.375Y-100.5
X192.5Y-121.875
X192.5Y-127.6
X192.75Y-85.375
X193.65Y-113.0
X194.0Y-66.2
X194.0Y-94.7
X194.405Y-129.975
X194.9Y-89.7
X196.0Y-94.7
X197.31Y-74.395
X197.5Y-106.0
X197.55Y-87.05
X197.6Y-101.7
X198.15Y-94.4
X198.625Y-60.2
X198.625Y-66.2
X199.0Y-89.7
X199.4Y-121.15
X199.55Y-112.65
X199.85Y-74.395
X199.85Y-84.75
X201.5Y-98.7
X201.5Y-109.45
X201.5Y-128.6
X201.75Y-83.625
X202.0Y-71.2
X202.9Y-116.0
X203.0Y-65.7
X203.0Y-111.45
X203.5Y-70.2
X203.9Y-105.1
X203.93Y-125.455
X204.2Y-119.95
X204.22Y-133.76
X204.5Y-62.2
X204.5Y-76.7
X204.9Y-128.6
X206.0Y-69.2
X206.0Y-71.7
X206.0Y-77.7
X206.25Y-89.4
X206.45Y-106.3
X206.5Y-111.7
X206.5Y-135.25
X208.05Y-76.9
X208.5Y-60.2
X209.4Y-130.9
X209.5Y-107.2
X210.01Y-79.445
X210.5Y-66.2
X212.05Y-71.85
X212.9Y-81.6
X213.5Y-108.2
X214.0Y-91.625
X214.8Y-108.9
X215.3Y-73.8
X215.3Y-79.45
X215.35Y-109.6
X216.85Y-115.65
X217.0Y-97.375
X217.4Y-115.0
X217.5Y-71.15
X220.25Y-100.2
X220.7Y-115.8
X220.75Y-69.6
X221.7Y-115.75
X221.95Y-68.95
X222.85Y-104.45
X222.85Y-107.05
X222.95Y-111.9
X223.0Y-77.7
X223.75Y-111.1
X224.3Y-105.15
X224.35Y-107.4
X225.005Y-112.795
X225.15Y-111.95
X225.65Y-82.5
X226.5Y-86.95
X226.71Y-74.395
X227.1Y-67.1
X227.45Y-82.5
X227.65Y-111.4
X227.95Y-101.6
X228.3Y-137.5
X228.5Y-118.2
X228.55Y-103.5
X228.55Y-111.75
X229.0Y-117.2
X229.25Y-66.05
X229.25Y-74.395
X229.9Y-116.95
X230.045Y-112.35
X230.325Y-113.107
X230.5Y-63.2
X230.5Y-76.55
X230.55Y-106.4
X230.7Y-116.25
X230.75Y-87.2
X231.05Y-127.6
X231.318Y-113.104
X231.45Y-83.75
X231.6Y-106.4
X232.6Y-65.75
X232.65Y-66.7
X232.65Y-68.7
X232.75Y-116.9
X233.05Y-98.25
X233.45Y-72.75
X233.75Y-116.9
X233.84Y-125.33
X234.25Y-87.45
X234.45Y-110.375
X234.5Y-85.375
X234.95Y-116.43
X235.41Y-120.51
X235.43Y-89.53
X235.75Y-75.35
X236.0Y-67.0
T2
X143.75Y-124.54
X144.5Y-84.19
X147.775Y-123.25
X149.6Y-124.85
X153.56Y-76.21
X154.71Y-122.335
X155.75Y-124.78
X155.95Y-80.44
X156.25Y-76.94
X160.77Y-79.05
X164.41Y-100.34
X164.66Y-94.9
X166.387Y-119.7
X167.603Y-140.0
X167.87Y-111.23
X168.35Y-100.32
X169.75Y-93.5
X169.85Y-113.37
X170.09Y-95.42
X174.25Y-91.565
X174.5Y-94.8
X174.86Y-99.18
X175.75Y-77.19
X176.0Y-131.7
X176.0Y-134.7
X176.21Y-113.42
X178.0Y-82.44
X178.5Y-77.2
X178.5Y-79.7
X179.0Y-71.2
X179.0Y-121.2
X179.0Y-131.7
X179.3Y-111.53
X179.475Y-135.225
X181.56Y-95.2
X181.75Y-88.94
X181.75Y-90.94
X181.86Y-109.22
X181.91Y-101.85
X184.37Y-95.15
X184.37Y-99.57
X187.25Y-80.19
X190.85Y-99.15
X193.68Y-111.56
X194.51Y-84.96
X196.5Y-132.7
X198.0Y-95.7
X199.5Y-132.7
X203.05Y-91.25
X203.47Y-86.45
X203.57Y-82.23
X203.93Y-125.455
X205.09Y-122.22
X205.11Y-121.25
X205.12Y-120.3
X205.3Y-102.1
X208.0Y-104.2
X208.759Y-135.109
X209.01Y-125.455
X211.55Y-120.405
X211.55Y-125.455
X211.6Y-133.13
X212.4Y-133.54
X213.08Y-132.76
X213.7Y-70.2
X214.0Y-93.375
X214.09Y-125.455
X215.0Y-104.7
X215.2Y-134.14
X217.5Y-125.45
X219.0Y-139.95
X220.25Y-139.95
X221.95Y-139.1
X222.9Y-118.95
X222.95Y-122.45
X223.71Y-136.61
X224.17Y-74.395
X224.25Y-140.15
X225.35Y-70.99
X225.97Y-134.84
X226.0Y-103.7
X226.0Y-107.2
X226.4Y-110.2
X226.44Y-137.5
X226.75Y-140.75
X226.9Y-105.55
X228.2Y-107.25
X229.72Y-134.84
X231.5Y-99.2
X231.95Y-115.75
X232.0Y-92.7
X233.0Y-121.2
X233.85Y-124.0
T3
X212.0Y-128.8
X212.0Y-131.34
X214.54Y-128.8
X214.54Y-131.34
X217.08Y-128.8
X217.08Y-131.34
X219.62Y-128.8
X219.62Y-131.34
X222.16Y-128.8
X222.16Y-131.34
X224.7Y-128.8
X224.7Y-131.34
X227.24Y-128.8
X227.24Y-131.34
X229.78Y-128.8
X229.78Y-131.34
X232.32Y-128.8
X232.32Y-131.34
X234.86Y-128.8
X234.86Y-131.34
T4
X193.385Y-56.355
X193.385Y-69.055
X209.615Y-56.355
X209.615Y-69.055
X143.385Y-56.355
X143.385Y-69.055
X159.615Y-56.355
X159.615Y-69.055
X168.385Y-56.355
X168.385Y-69.055
X184.615Y-56.355
X184.615Y-69.055
X218.385Y-56.355
X218.385Y-69.055
X234.615Y-56.355
X234.615Y-69.055
T0
M30
