G04 #@! TF.GenerationSoftware,KiCad,Pcbnew,(5.1.4)-1*
G04 #@! TF.CreationDate,2019-11-16T11:12:50+01:00*
G04 #@! TF.ProjectId,fpga_pedal,66706761-5f70-4656-9461-6c2e6b696361,rev?*
G04 #@! TF.SameCoordinates,Original*
G04 #@! TF.FileFunction,Paste,Bot*
G04 #@! TF.FilePolarity,Positive*
%FSLAX46Y46*%
G04 Gerber Fmt 4.6, Leading zero omitted, Abs format (unit mm)*
G04 Created by KiCad (PCBNEW (5.1.4)-1) date 2019-11-16 11:12:50*
%MOMM*%
%LPD*%
G04 APERTURE LIST*
%ADD10C,0.100000*%
%ADD11C,0.950000*%
%ADD12R,1.000000X3.150000*%
G04 APERTURE END LIST*
D10*
G36*
X225685779Y-62726144D02*
G01*
X225708834Y-62729563D01*
X225731443Y-62735227D01*
X225753387Y-62743079D01*
X225774457Y-62753044D01*
X225794448Y-62765026D01*
X225813168Y-62778910D01*
X225830438Y-62794562D01*
X225846090Y-62811832D01*
X225859974Y-62830552D01*
X225871956Y-62850543D01*
X225881921Y-62871613D01*
X225889773Y-62893557D01*
X225895437Y-62916166D01*
X225898856Y-62939221D01*
X225900000Y-62962500D01*
X225900000Y-63437500D01*
X225898856Y-63460779D01*
X225895437Y-63483834D01*
X225889773Y-63506443D01*
X225881921Y-63528387D01*
X225871956Y-63549457D01*
X225859974Y-63569448D01*
X225846090Y-63588168D01*
X225830438Y-63605438D01*
X225813168Y-63621090D01*
X225794448Y-63634974D01*
X225774457Y-63646956D01*
X225753387Y-63656921D01*
X225731443Y-63664773D01*
X225708834Y-63670437D01*
X225685779Y-63673856D01*
X225662500Y-63675000D01*
X225087500Y-63675000D01*
X225064221Y-63673856D01*
X225041166Y-63670437D01*
X225018557Y-63664773D01*
X224996613Y-63656921D01*
X224975543Y-63646956D01*
X224955552Y-63634974D01*
X224936832Y-63621090D01*
X224919562Y-63605438D01*
X224903910Y-63588168D01*
X224890026Y-63569448D01*
X224878044Y-63549457D01*
X224868079Y-63528387D01*
X224860227Y-63506443D01*
X224854563Y-63483834D01*
X224851144Y-63460779D01*
X224850000Y-63437500D01*
X224850000Y-62962500D01*
X224851144Y-62939221D01*
X224854563Y-62916166D01*
X224860227Y-62893557D01*
X224868079Y-62871613D01*
X224878044Y-62850543D01*
X224890026Y-62830552D01*
X224903910Y-62811832D01*
X224919562Y-62794562D01*
X224936832Y-62778910D01*
X224955552Y-62765026D01*
X224975543Y-62753044D01*
X224996613Y-62743079D01*
X225018557Y-62735227D01*
X225041166Y-62729563D01*
X225064221Y-62726144D01*
X225087500Y-62725000D01*
X225662500Y-62725000D01*
X225685779Y-62726144D01*
X225685779Y-62726144D01*
G37*
D11*
X225375000Y-63200000D03*
D10*
G36*
X223935779Y-62726144D02*
G01*
X223958834Y-62729563D01*
X223981443Y-62735227D01*
X224003387Y-62743079D01*
X224024457Y-62753044D01*
X224044448Y-62765026D01*
X224063168Y-62778910D01*
X224080438Y-62794562D01*
X224096090Y-62811832D01*
X224109974Y-62830552D01*
X224121956Y-62850543D01*
X224131921Y-62871613D01*
X224139773Y-62893557D01*
X224145437Y-62916166D01*
X224148856Y-62939221D01*
X224150000Y-62962500D01*
X224150000Y-63437500D01*
X224148856Y-63460779D01*
X224145437Y-63483834D01*
X224139773Y-63506443D01*
X224131921Y-63528387D01*
X224121956Y-63549457D01*
X224109974Y-63569448D01*
X224096090Y-63588168D01*
X224080438Y-63605438D01*
X224063168Y-63621090D01*
X224044448Y-63634974D01*
X224024457Y-63646956D01*
X224003387Y-63656921D01*
X223981443Y-63664773D01*
X223958834Y-63670437D01*
X223935779Y-63673856D01*
X223912500Y-63675000D01*
X223337500Y-63675000D01*
X223314221Y-63673856D01*
X223291166Y-63670437D01*
X223268557Y-63664773D01*
X223246613Y-63656921D01*
X223225543Y-63646956D01*
X223205552Y-63634974D01*
X223186832Y-63621090D01*
X223169562Y-63605438D01*
X223153910Y-63588168D01*
X223140026Y-63569448D01*
X223128044Y-63549457D01*
X223118079Y-63528387D01*
X223110227Y-63506443D01*
X223104563Y-63483834D01*
X223101144Y-63460779D01*
X223100000Y-63437500D01*
X223100000Y-62962500D01*
X223101144Y-62939221D01*
X223104563Y-62916166D01*
X223110227Y-62893557D01*
X223118079Y-62871613D01*
X223128044Y-62850543D01*
X223140026Y-62830552D01*
X223153910Y-62811832D01*
X223169562Y-62794562D01*
X223186832Y-62778910D01*
X223205552Y-62765026D01*
X223225543Y-62753044D01*
X223246613Y-62743079D01*
X223268557Y-62735227D01*
X223291166Y-62729563D01*
X223314221Y-62726144D01*
X223337500Y-62725000D01*
X223912500Y-62725000D01*
X223935779Y-62726144D01*
X223935779Y-62726144D01*
G37*
D11*
X223625000Y-63200000D03*
D12*
X196310000Y-125455000D03*
X211550000Y-120405000D03*
X214090000Y-125455000D03*
X206470000Y-120405000D03*
X211550000Y-125455000D03*
X214090000Y-120405000D03*
X201390000Y-125455000D03*
X209010000Y-120405000D03*
X206470000Y-125455000D03*
X198850000Y-125455000D03*
X203930000Y-125455000D03*
X209010000Y-125455000D03*
X221630000Y-125455000D03*
X229250000Y-125455000D03*
X231790000Y-125455000D03*
X219090000Y-120405000D03*
X226710000Y-125455000D03*
X231790000Y-120405000D03*
X229250000Y-120405000D03*
X224170000Y-125455000D03*
X224170000Y-120405000D03*
X226710000Y-120405000D03*
X219090000Y-125455000D03*
X221630000Y-120405000D03*
X199850000Y-79445000D03*
X202390000Y-74395000D03*
X207470000Y-74395000D03*
X210010000Y-79445000D03*
X187150000Y-74395000D03*
X194770000Y-74395000D03*
X192230000Y-79445000D03*
X207470000Y-79445000D03*
X202390000Y-79445000D03*
X204930000Y-74395000D03*
X189690000Y-74395000D03*
X197310000Y-74395000D03*
X199850000Y-74395000D03*
X194770000Y-79445000D03*
X204930000Y-79445000D03*
X197310000Y-79445000D03*
X210010000Y-74395000D03*
X192230000Y-74395000D03*
X224170000Y-79445000D03*
X231790000Y-74395000D03*
X229250000Y-79445000D03*
X231790000Y-79445000D03*
X221630000Y-74395000D03*
X224170000Y-74395000D03*
X226710000Y-79445000D03*
X229250000Y-74395000D03*
X226710000Y-74395000D03*
X214010000Y-74395000D03*
X216550000Y-79445000D03*
X216550000Y-74395000D03*
X219090000Y-79445000D03*
X219090000Y-74395000D03*
X221630000Y-79445000D03*
X214010000Y-79445000D03*
D10*
G36*
X153285779Y-80326144D02*
G01*
X153308834Y-80329563D01*
X153331443Y-80335227D01*
X153353387Y-80343079D01*
X153374457Y-80353044D01*
X153394448Y-80365026D01*
X153413168Y-80378910D01*
X153430438Y-80394562D01*
X153446090Y-80411832D01*
X153459974Y-80430552D01*
X153471956Y-80450543D01*
X153481921Y-80471613D01*
X153489773Y-80493557D01*
X153495437Y-80516166D01*
X153498856Y-80539221D01*
X153500000Y-80562500D01*
X153500000Y-81037500D01*
X153498856Y-81060779D01*
X153495437Y-81083834D01*
X153489773Y-81106443D01*
X153481921Y-81128387D01*
X153471956Y-81149457D01*
X153459974Y-81169448D01*
X153446090Y-81188168D01*
X153430438Y-81205438D01*
X153413168Y-81221090D01*
X153394448Y-81234974D01*
X153374457Y-81246956D01*
X153353387Y-81256921D01*
X153331443Y-81264773D01*
X153308834Y-81270437D01*
X153285779Y-81273856D01*
X153262500Y-81275000D01*
X152687500Y-81275000D01*
X152664221Y-81273856D01*
X152641166Y-81270437D01*
X152618557Y-81264773D01*
X152596613Y-81256921D01*
X152575543Y-81246956D01*
X152555552Y-81234974D01*
X152536832Y-81221090D01*
X152519562Y-81205438D01*
X152503910Y-81188168D01*
X152490026Y-81169448D01*
X152478044Y-81149457D01*
X152468079Y-81128387D01*
X152460227Y-81106443D01*
X152454563Y-81083834D01*
X152451144Y-81060779D01*
X152450000Y-81037500D01*
X152450000Y-80562500D01*
X152451144Y-80539221D01*
X152454563Y-80516166D01*
X152460227Y-80493557D01*
X152468079Y-80471613D01*
X152478044Y-80450543D01*
X152490026Y-80430552D01*
X152503910Y-80411832D01*
X152519562Y-80394562D01*
X152536832Y-80378910D01*
X152555552Y-80365026D01*
X152575543Y-80353044D01*
X152596613Y-80343079D01*
X152618557Y-80335227D01*
X152641166Y-80329563D01*
X152664221Y-80326144D01*
X152687500Y-80325000D01*
X153262500Y-80325000D01*
X153285779Y-80326144D01*
X153285779Y-80326144D01*
G37*
D11*
X152975000Y-80800000D03*
D10*
G36*
X151535779Y-80326144D02*
G01*
X151558834Y-80329563D01*
X151581443Y-80335227D01*
X151603387Y-80343079D01*
X151624457Y-80353044D01*
X151644448Y-80365026D01*
X151663168Y-80378910D01*
X151680438Y-80394562D01*
X151696090Y-80411832D01*
X151709974Y-80430552D01*
X151721956Y-80450543D01*
X151731921Y-80471613D01*
X151739773Y-80493557D01*
X151745437Y-80516166D01*
X151748856Y-80539221D01*
X151750000Y-80562500D01*
X151750000Y-81037500D01*
X151748856Y-81060779D01*
X151745437Y-81083834D01*
X151739773Y-81106443D01*
X151731921Y-81128387D01*
X151721956Y-81149457D01*
X151709974Y-81169448D01*
X151696090Y-81188168D01*
X151680438Y-81205438D01*
X151663168Y-81221090D01*
X151644448Y-81234974D01*
X151624457Y-81246956D01*
X151603387Y-81256921D01*
X151581443Y-81264773D01*
X151558834Y-81270437D01*
X151535779Y-81273856D01*
X151512500Y-81275000D01*
X150937500Y-81275000D01*
X150914221Y-81273856D01*
X150891166Y-81270437D01*
X150868557Y-81264773D01*
X150846613Y-81256921D01*
X150825543Y-81246956D01*
X150805552Y-81234974D01*
X150786832Y-81221090D01*
X150769562Y-81205438D01*
X150753910Y-81188168D01*
X150740026Y-81169448D01*
X150728044Y-81149457D01*
X150718079Y-81128387D01*
X150710227Y-81106443D01*
X150704563Y-81083834D01*
X150701144Y-81060779D01*
X150700000Y-81037500D01*
X150700000Y-80562500D01*
X150701144Y-80539221D01*
X150704563Y-80516166D01*
X150710227Y-80493557D01*
X150718079Y-80471613D01*
X150728044Y-80450543D01*
X150740026Y-80430552D01*
X150753910Y-80411832D01*
X150769562Y-80394562D01*
X150786832Y-80378910D01*
X150805552Y-80365026D01*
X150825543Y-80353044D01*
X150846613Y-80343079D01*
X150868557Y-80335227D01*
X150891166Y-80329563D01*
X150914221Y-80326144D01*
X150937500Y-80325000D01*
X151512500Y-80325000D01*
X151535779Y-80326144D01*
X151535779Y-80326144D01*
G37*
D11*
X151225000Y-80800000D03*
D10*
G36*
X146260779Y-84491144D02*
G01*
X146283834Y-84494563D01*
X146306443Y-84500227D01*
X146328387Y-84508079D01*
X146349457Y-84518044D01*
X146369448Y-84530026D01*
X146388168Y-84543910D01*
X146405438Y-84559562D01*
X146421090Y-84576832D01*
X146434974Y-84595552D01*
X146446956Y-84615543D01*
X146456921Y-84636613D01*
X146464773Y-84658557D01*
X146470437Y-84681166D01*
X146473856Y-84704221D01*
X146475000Y-84727500D01*
X146475000Y-85302500D01*
X146473856Y-85325779D01*
X146470437Y-85348834D01*
X146464773Y-85371443D01*
X146456921Y-85393387D01*
X146446956Y-85414457D01*
X146434974Y-85434448D01*
X146421090Y-85453168D01*
X146405438Y-85470438D01*
X146388168Y-85486090D01*
X146369448Y-85499974D01*
X146349457Y-85511956D01*
X146328387Y-85521921D01*
X146306443Y-85529773D01*
X146283834Y-85535437D01*
X146260779Y-85538856D01*
X146237500Y-85540000D01*
X145762500Y-85540000D01*
X145739221Y-85538856D01*
X145716166Y-85535437D01*
X145693557Y-85529773D01*
X145671613Y-85521921D01*
X145650543Y-85511956D01*
X145630552Y-85499974D01*
X145611832Y-85486090D01*
X145594562Y-85470438D01*
X145578910Y-85453168D01*
X145565026Y-85434448D01*
X145553044Y-85414457D01*
X145543079Y-85393387D01*
X145535227Y-85371443D01*
X145529563Y-85348834D01*
X145526144Y-85325779D01*
X145525000Y-85302500D01*
X145525000Y-84727500D01*
X145526144Y-84704221D01*
X145529563Y-84681166D01*
X145535227Y-84658557D01*
X145543079Y-84636613D01*
X145553044Y-84615543D01*
X145565026Y-84595552D01*
X145578910Y-84576832D01*
X145594562Y-84559562D01*
X145611832Y-84543910D01*
X145630552Y-84530026D01*
X145650543Y-84518044D01*
X145671613Y-84508079D01*
X145693557Y-84500227D01*
X145716166Y-84494563D01*
X145739221Y-84491144D01*
X145762500Y-84490000D01*
X146237500Y-84490000D01*
X146260779Y-84491144D01*
X146260779Y-84491144D01*
G37*
D11*
X146000000Y-85015000D03*
D10*
G36*
X146260779Y-82741144D02*
G01*
X146283834Y-82744563D01*
X146306443Y-82750227D01*
X146328387Y-82758079D01*
X146349457Y-82768044D01*
X146369448Y-82780026D01*
X146388168Y-82793910D01*
X146405438Y-82809562D01*
X146421090Y-82826832D01*
X146434974Y-82845552D01*
X146446956Y-82865543D01*
X146456921Y-82886613D01*
X146464773Y-82908557D01*
X146470437Y-82931166D01*
X146473856Y-82954221D01*
X146475000Y-82977500D01*
X146475000Y-83552500D01*
X146473856Y-83575779D01*
X146470437Y-83598834D01*
X146464773Y-83621443D01*
X146456921Y-83643387D01*
X146446956Y-83664457D01*
X146434974Y-83684448D01*
X146421090Y-83703168D01*
X146405438Y-83720438D01*
X146388168Y-83736090D01*
X146369448Y-83749974D01*
X146349457Y-83761956D01*
X146328387Y-83771921D01*
X146306443Y-83779773D01*
X146283834Y-83785437D01*
X146260779Y-83788856D01*
X146237500Y-83790000D01*
X145762500Y-83790000D01*
X145739221Y-83788856D01*
X145716166Y-83785437D01*
X145693557Y-83779773D01*
X145671613Y-83771921D01*
X145650543Y-83761956D01*
X145630552Y-83749974D01*
X145611832Y-83736090D01*
X145594562Y-83720438D01*
X145578910Y-83703168D01*
X145565026Y-83684448D01*
X145553044Y-83664457D01*
X145543079Y-83643387D01*
X145535227Y-83621443D01*
X145529563Y-83598834D01*
X145526144Y-83575779D01*
X145525000Y-83552500D01*
X145525000Y-82977500D01*
X145526144Y-82954221D01*
X145529563Y-82931166D01*
X145535227Y-82908557D01*
X145543079Y-82886613D01*
X145553044Y-82865543D01*
X145565026Y-82845552D01*
X145578910Y-82826832D01*
X145594562Y-82809562D01*
X145611832Y-82793910D01*
X145630552Y-82780026D01*
X145650543Y-82768044D01*
X145671613Y-82758079D01*
X145693557Y-82750227D01*
X145716166Y-82744563D01*
X145739221Y-82741144D01*
X145762500Y-82740000D01*
X146237500Y-82740000D01*
X146260779Y-82741144D01*
X146260779Y-82741144D01*
G37*
D11*
X146000000Y-83265000D03*
D10*
G36*
X157960779Y-84441144D02*
G01*
X157983834Y-84444563D01*
X158006443Y-84450227D01*
X158028387Y-84458079D01*
X158049457Y-84468044D01*
X158069448Y-84480026D01*
X158088168Y-84493910D01*
X158105438Y-84509562D01*
X158121090Y-84526832D01*
X158134974Y-84545552D01*
X158146956Y-84565543D01*
X158156921Y-84586613D01*
X158164773Y-84608557D01*
X158170437Y-84631166D01*
X158173856Y-84654221D01*
X158175000Y-84677500D01*
X158175000Y-85252500D01*
X158173856Y-85275779D01*
X158170437Y-85298834D01*
X158164773Y-85321443D01*
X158156921Y-85343387D01*
X158146956Y-85364457D01*
X158134974Y-85384448D01*
X158121090Y-85403168D01*
X158105438Y-85420438D01*
X158088168Y-85436090D01*
X158069448Y-85449974D01*
X158049457Y-85461956D01*
X158028387Y-85471921D01*
X158006443Y-85479773D01*
X157983834Y-85485437D01*
X157960779Y-85488856D01*
X157937500Y-85490000D01*
X157462500Y-85490000D01*
X157439221Y-85488856D01*
X157416166Y-85485437D01*
X157393557Y-85479773D01*
X157371613Y-85471921D01*
X157350543Y-85461956D01*
X157330552Y-85449974D01*
X157311832Y-85436090D01*
X157294562Y-85420438D01*
X157278910Y-85403168D01*
X157265026Y-85384448D01*
X157253044Y-85364457D01*
X157243079Y-85343387D01*
X157235227Y-85321443D01*
X157229563Y-85298834D01*
X157226144Y-85275779D01*
X157225000Y-85252500D01*
X157225000Y-84677500D01*
X157226144Y-84654221D01*
X157229563Y-84631166D01*
X157235227Y-84608557D01*
X157243079Y-84586613D01*
X157253044Y-84565543D01*
X157265026Y-84545552D01*
X157278910Y-84526832D01*
X157294562Y-84509562D01*
X157311832Y-84493910D01*
X157330552Y-84480026D01*
X157350543Y-84468044D01*
X157371613Y-84458079D01*
X157393557Y-84450227D01*
X157416166Y-84444563D01*
X157439221Y-84441144D01*
X157462500Y-84440000D01*
X157937500Y-84440000D01*
X157960779Y-84441144D01*
X157960779Y-84441144D01*
G37*
D11*
X157700000Y-84965000D03*
D10*
G36*
X157960779Y-82691144D02*
G01*
X157983834Y-82694563D01*
X158006443Y-82700227D01*
X158028387Y-82708079D01*
X158049457Y-82718044D01*
X158069448Y-82730026D01*
X158088168Y-82743910D01*
X158105438Y-82759562D01*
X158121090Y-82776832D01*
X158134974Y-82795552D01*
X158146956Y-82815543D01*
X158156921Y-82836613D01*
X158164773Y-82858557D01*
X158170437Y-82881166D01*
X158173856Y-82904221D01*
X158175000Y-82927500D01*
X158175000Y-83502500D01*
X158173856Y-83525779D01*
X158170437Y-83548834D01*
X158164773Y-83571443D01*
X158156921Y-83593387D01*
X158146956Y-83614457D01*
X158134974Y-83634448D01*
X158121090Y-83653168D01*
X158105438Y-83670438D01*
X158088168Y-83686090D01*
X158069448Y-83699974D01*
X158049457Y-83711956D01*
X158028387Y-83721921D01*
X158006443Y-83729773D01*
X157983834Y-83735437D01*
X157960779Y-83738856D01*
X157937500Y-83740000D01*
X157462500Y-83740000D01*
X157439221Y-83738856D01*
X157416166Y-83735437D01*
X157393557Y-83729773D01*
X157371613Y-83721921D01*
X157350543Y-83711956D01*
X157330552Y-83699974D01*
X157311832Y-83686090D01*
X157294562Y-83670438D01*
X157278910Y-83653168D01*
X157265026Y-83634448D01*
X157253044Y-83614457D01*
X157243079Y-83593387D01*
X157235227Y-83571443D01*
X157229563Y-83548834D01*
X157226144Y-83525779D01*
X157225000Y-83502500D01*
X157225000Y-82927500D01*
X157226144Y-82904221D01*
X157229563Y-82881166D01*
X157235227Y-82858557D01*
X157243079Y-82836613D01*
X157253044Y-82815543D01*
X157265026Y-82795552D01*
X157278910Y-82776832D01*
X157294562Y-82759562D01*
X157311832Y-82743910D01*
X157330552Y-82730026D01*
X157350543Y-82718044D01*
X157371613Y-82708079D01*
X157393557Y-82700227D01*
X157416166Y-82694563D01*
X157439221Y-82691144D01*
X157462500Y-82690000D01*
X157937500Y-82690000D01*
X157960779Y-82691144D01*
X157960779Y-82691144D01*
G37*
D11*
X157700000Y-83215000D03*
D10*
G36*
X163960779Y-84441144D02*
G01*
X163983834Y-84444563D01*
X164006443Y-84450227D01*
X164028387Y-84458079D01*
X164049457Y-84468044D01*
X164069448Y-84480026D01*
X164088168Y-84493910D01*
X164105438Y-84509562D01*
X164121090Y-84526832D01*
X164134974Y-84545552D01*
X164146956Y-84565543D01*
X164156921Y-84586613D01*
X164164773Y-84608557D01*
X164170437Y-84631166D01*
X164173856Y-84654221D01*
X164175000Y-84677500D01*
X164175000Y-85252500D01*
X164173856Y-85275779D01*
X164170437Y-85298834D01*
X164164773Y-85321443D01*
X164156921Y-85343387D01*
X164146956Y-85364457D01*
X164134974Y-85384448D01*
X164121090Y-85403168D01*
X164105438Y-85420438D01*
X164088168Y-85436090D01*
X164069448Y-85449974D01*
X164049457Y-85461956D01*
X164028387Y-85471921D01*
X164006443Y-85479773D01*
X163983834Y-85485437D01*
X163960779Y-85488856D01*
X163937500Y-85490000D01*
X163462500Y-85490000D01*
X163439221Y-85488856D01*
X163416166Y-85485437D01*
X163393557Y-85479773D01*
X163371613Y-85471921D01*
X163350543Y-85461956D01*
X163330552Y-85449974D01*
X163311832Y-85436090D01*
X163294562Y-85420438D01*
X163278910Y-85403168D01*
X163265026Y-85384448D01*
X163253044Y-85364457D01*
X163243079Y-85343387D01*
X163235227Y-85321443D01*
X163229563Y-85298834D01*
X163226144Y-85275779D01*
X163225000Y-85252500D01*
X163225000Y-84677500D01*
X163226144Y-84654221D01*
X163229563Y-84631166D01*
X163235227Y-84608557D01*
X163243079Y-84586613D01*
X163253044Y-84565543D01*
X163265026Y-84545552D01*
X163278910Y-84526832D01*
X163294562Y-84509562D01*
X163311832Y-84493910D01*
X163330552Y-84480026D01*
X163350543Y-84468044D01*
X163371613Y-84458079D01*
X163393557Y-84450227D01*
X163416166Y-84444563D01*
X163439221Y-84441144D01*
X163462500Y-84440000D01*
X163937500Y-84440000D01*
X163960779Y-84441144D01*
X163960779Y-84441144D01*
G37*
D11*
X163700000Y-84965000D03*
D10*
G36*
X163960779Y-82691144D02*
G01*
X163983834Y-82694563D01*
X164006443Y-82700227D01*
X164028387Y-82708079D01*
X164049457Y-82718044D01*
X164069448Y-82730026D01*
X164088168Y-82743910D01*
X164105438Y-82759562D01*
X164121090Y-82776832D01*
X164134974Y-82795552D01*
X164146956Y-82815543D01*
X164156921Y-82836613D01*
X164164773Y-82858557D01*
X164170437Y-82881166D01*
X164173856Y-82904221D01*
X164175000Y-82927500D01*
X164175000Y-83502500D01*
X164173856Y-83525779D01*
X164170437Y-83548834D01*
X164164773Y-83571443D01*
X164156921Y-83593387D01*
X164146956Y-83614457D01*
X164134974Y-83634448D01*
X164121090Y-83653168D01*
X164105438Y-83670438D01*
X164088168Y-83686090D01*
X164069448Y-83699974D01*
X164049457Y-83711956D01*
X164028387Y-83721921D01*
X164006443Y-83729773D01*
X163983834Y-83735437D01*
X163960779Y-83738856D01*
X163937500Y-83740000D01*
X163462500Y-83740000D01*
X163439221Y-83738856D01*
X163416166Y-83735437D01*
X163393557Y-83729773D01*
X163371613Y-83721921D01*
X163350543Y-83711956D01*
X163330552Y-83699974D01*
X163311832Y-83686090D01*
X163294562Y-83670438D01*
X163278910Y-83653168D01*
X163265026Y-83634448D01*
X163253044Y-83614457D01*
X163243079Y-83593387D01*
X163235227Y-83571443D01*
X163229563Y-83548834D01*
X163226144Y-83525779D01*
X163225000Y-83502500D01*
X163225000Y-82927500D01*
X163226144Y-82904221D01*
X163229563Y-82881166D01*
X163235227Y-82858557D01*
X163243079Y-82836613D01*
X163253044Y-82815543D01*
X163265026Y-82795552D01*
X163278910Y-82776832D01*
X163294562Y-82759562D01*
X163311832Y-82743910D01*
X163330552Y-82730026D01*
X163350543Y-82718044D01*
X163371613Y-82708079D01*
X163393557Y-82700227D01*
X163416166Y-82694563D01*
X163439221Y-82691144D01*
X163462500Y-82690000D01*
X163937500Y-82690000D01*
X163960779Y-82691144D01*
X163960779Y-82691144D01*
G37*
D11*
X163700000Y-83215000D03*
D10*
G36*
X153285779Y-78226144D02*
G01*
X153308834Y-78229563D01*
X153331443Y-78235227D01*
X153353387Y-78243079D01*
X153374457Y-78253044D01*
X153394448Y-78265026D01*
X153413168Y-78278910D01*
X153430438Y-78294562D01*
X153446090Y-78311832D01*
X153459974Y-78330552D01*
X153471956Y-78350543D01*
X153481921Y-78371613D01*
X153489773Y-78393557D01*
X153495437Y-78416166D01*
X153498856Y-78439221D01*
X153500000Y-78462500D01*
X153500000Y-78937500D01*
X153498856Y-78960779D01*
X153495437Y-78983834D01*
X153489773Y-79006443D01*
X153481921Y-79028387D01*
X153471956Y-79049457D01*
X153459974Y-79069448D01*
X153446090Y-79088168D01*
X153430438Y-79105438D01*
X153413168Y-79121090D01*
X153394448Y-79134974D01*
X153374457Y-79146956D01*
X153353387Y-79156921D01*
X153331443Y-79164773D01*
X153308834Y-79170437D01*
X153285779Y-79173856D01*
X153262500Y-79175000D01*
X152687500Y-79175000D01*
X152664221Y-79173856D01*
X152641166Y-79170437D01*
X152618557Y-79164773D01*
X152596613Y-79156921D01*
X152575543Y-79146956D01*
X152555552Y-79134974D01*
X152536832Y-79121090D01*
X152519562Y-79105438D01*
X152503910Y-79088168D01*
X152490026Y-79069448D01*
X152478044Y-79049457D01*
X152468079Y-79028387D01*
X152460227Y-79006443D01*
X152454563Y-78983834D01*
X152451144Y-78960779D01*
X152450000Y-78937500D01*
X152450000Y-78462500D01*
X152451144Y-78439221D01*
X152454563Y-78416166D01*
X152460227Y-78393557D01*
X152468079Y-78371613D01*
X152478044Y-78350543D01*
X152490026Y-78330552D01*
X152503910Y-78311832D01*
X152519562Y-78294562D01*
X152536832Y-78278910D01*
X152555552Y-78265026D01*
X152575543Y-78253044D01*
X152596613Y-78243079D01*
X152618557Y-78235227D01*
X152641166Y-78229563D01*
X152664221Y-78226144D01*
X152687500Y-78225000D01*
X153262500Y-78225000D01*
X153285779Y-78226144D01*
X153285779Y-78226144D01*
G37*
D11*
X152975000Y-78700000D03*
D10*
G36*
X151535779Y-78226144D02*
G01*
X151558834Y-78229563D01*
X151581443Y-78235227D01*
X151603387Y-78243079D01*
X151624457Y-78253044D01*
X151644448Y-78265026D01*
X151663168Y-78278910D01*
X151680438Y-78294562D01*
X151696090Y-78311832D01*
X151709974Y-78330552D01*
X151721956Y-78350543D01*
X151731921Y-78371613D01*
X151739773Y-78393557D01*
X151745437Y-78416166D01*
X151748856Y-78439221D01*
X151750000Y-78462500D01*
X151750000Y-78937500D01*
X151748856Y-78960779D01*
X151745437Y-78983834D01*
X151739773Y-79006443D01*
X151731921Y-79028387D01*
X151721956Y-79049457D01*
X151709974Y-79069448D01*
X151696090Y-79088168D01*
X151680438Y-79105438D01*
X151663168Y-79121090D01*
X151644448Y-79134974D01*
X151624457Y-79146956D01*
X151603387Y-79156921D01*
X151581443Y-79164773D01*
X151558834Y-79170437D01*
X151535779Y-79173856D01*
X151512500Y-79175000D01*
X150937500Y-79175000D01*
X150914221Y-79173856D01*
X150891166Y-79170437D01*
X150868557Y-79164773D01*
X150846613Y-79156921D01*
X150825543Y-79146956D01*
X150805552Y-79134974D01*
X150786832Y-79121090D01*
X150769562Y-79105438D01*
X150753910Y-79088168D01*
X150740026Y-79069448D01*
X150728044Y-79049457D01*
X150718079Y-79028387D01*
X150710227Y-79006443D01*
X150704563Y-78983834D01*
X150701144Y-78960779D01*
X150700000Y-78937500D01*
X150700000Y-78462500D01*
X150701144Y-78439221D01*
X150704563Y-78416166D01*
X150710227Y-78393557D01*
X150718079Y-78371613D01*
X150728044Y-78350543D01*
X150740026Y-78330552D01*
X150753910Y-78311832D01*
X150769562Y-78294562D01*
X150786832Y-78278910D01*
X150805552Y-78265026D01*
X150825543Y-78253044D01*
X150846613Y-78243079D01*
X150868557Y-78235227D01*
X150891166Y-78229563D01*
X150914221Y-78226144D01*
X150937500Y-78225000D01*
X151512500Y-78225000D01*
X151535779Y-78226144D01*
X151535779Y-78226144D01*
G37*
D11*
X151225000Y-78700000D03*
D10*
G36*
X160860779Y-84451144D02*
G01*
X160883834Y-84454563D01*
X160906443Y-84460227D01*
X160928387Y-84468079D01*
X160949457Y-84478044D01*
X160969448Y-84490026D01*
X160988168Y-84503910D01*
X161005438Y-84519562D01*
X161021090Y-84536832D01*
X161034974Y-84555552D01*
X161046956Y-84575543D01*
X161056921Y-84596613D01*
X161064773Y-84618557D01*
X161070437Y-84641166D01*
X161073856Y-84664221D01*
X161075000Y-84687500D01*
X161075000Y-85262500D01*
X161073856Y-85285779D01*
X161070437Y-85308834D01*
X161064773Y-85331443D01*
X161056921Y-85353387D01*
X161046956Y-85374457D01*
X161034974Y-85394448D01*
X161021090Y-85413168D01*
X161005438Y-85430438D01*
X160988168Y-85446090D01*
X160969448Y-85459974D01*
X160949457Y-85471956D01*
X160928387Y-85481921D01*
X160906443Y-85489773D01*
X160883834Y-85495437D01*
X160860779Y-85498856D01*
X160837500Y-85500000D01*
X160362500Y-85500000D01*
X160339221Y-85498856D01*
X160316166Y-85495437D01*
X160293557Y-85489773D01*
X160271613Y-85481921D01*
X160250543Y-85471956D01*
X160230552Y-85459974D01*
X160211832Y-85446090D01*
X160194562Y-85430438D01*
X160178910Y-85413168D01*
X160165026Y-85394448D01*
X160153044Y-85374457D01*
X160143079Y-85353387D01*
X160135227Y-85331443D01*
X160129563Y-85308834D01*
X160126144Y-85285779D01*
X160125000Y-85262500D01*
X160125000Y-84687500D01*
X160126144Y-84664221D01*
X160129563Y-84641166D01*
X160135227Y-84618557D01*
X160143079Y-84596613D01*
X160153044Y-84575543D01*
X160165026Y-84555552D01*
X160178910Y-84536832D01*
X160194562Y-84519562D01*
X160211832Y-84503910D01*
X160230552Y-84490026D01*
X160250543Y-84478044D01*
X160271613Y-84468079D01*
X160293557Y-84460227D01*
X160316166Y-84454563D01*
X160339221Y-84451144D01*
X160362500Y-84450000D01*
X160837500Y-84450000D01*
X160860779Y-84451144D01*
X160860779Y-84451144D01*
G37*
D11*
X160600000Y-84975000D03*
D10*
G36*
X160860779Y-82701144D02*
G01*
X160883834Y-82704563D01*
X160906443Y-82710227D01*
X160928387Y-82718079D01*
X160949457Y-82728044D01*
X160969448Y-82740026D01*
X160988168Y-82753910D01*
X161005438Y-82769562D01*
X161021090Y-82786832D01*
X161034974Y-82805552D01*
X161046956Y-82825543D01*
X161056921Y-82846613D01*
X161064773Y-82868557D01*
X161070437Y-82891166D01*
X161073856Y-82914221D01*
X161075000Y-82937500D01*
X161075000Y-83512500D01*
X161073856Y-83535779D01*
X161070437Y-83558834D01*
X161064773Y-83581443D01*
X161056921Y-83603387D01*
X161046956Y-83624457D01*
X161034974Y-83644448D01*
X161021090Y-83663168D01*
X161005438Y-83680438D01*
X160988168Y-83696090D01*
X160969448Y-83709974D01*
X160949457Y-83721956D01*
X160928387Y-83731921D01*
X160906443Y-83739773D01*
X160883834Y-83745437D01*
X160860779Y-83748856D01*
X160837500Y-83750000D01*
X160362500Y-83750000D01*
X160339221Y-83748856D01*
X160316166Y-83745437D01*
X160293557Y-83739773D01*
X160271613Y-83731921D01*
X160250543Y-83721956D01*
X160230552Y-83709974D01*
X160211832Y-83696090D01*
X160194562Y-83680438D01*
X160178910Y-83663168D01*
X160165026Y-83644448D01*
X160153044Y-83624457D01*
X160143079Y-83603387D01*
X160135227Y-83581443D01*
X160129563Y-83558834D01*
X160126144Y-83535779D01*
X160125000Y-83512500D01*
X160125000Y-82937500D01*
X160126144Y-82914221D01*
X160129563Y-82891166D01*
X160135227Y-82868557D01*
X160143079Y-82846613D01*
X160153044Y-82825543D01*
X160165026Y-82805552D01*
X160178910Y-82786832D01*
X160194562Y-82769562D01*
X160211832Y-82753910D01*
X160230552Y-82740026D01*
X160250543Y-82728044D01*
X160271613Y-82718079D01*
X160293557Y-82710227D01*
X160316166Y-82704563D01*
X160339221Y-82701144D01*
X160362500Y-82700000D01*
X160837500Y-82700000D01*
X160860779Y-82701144D01*
X160860779Y-82701144D01*
G37*
D11*
X160600000Y-83225000D03*
D10*
G36*
X149260779Y-82691144D02*
G01*
X149283834Y-82694563D01*
X149306443Y-82700227D01*
X149328387Y-82708079D01*
X149349457Y-82718044D01*
X149369448Y-82730026D01*
X149388168Y-82743910D01*
X149405438Y-82759562D01*
X149421090Y-82776832D01*
X149434974Y-82795552D01*
X149446956Y-82815543D01*
X149456921Y-82836613D01*
X149464773Y-82858557D01*
X149470437Y-82881166D01*
X149473856Y-82904221D01*
X149475000Y-82927500D01*
X149475000Y-83502500D01*
X149473856Y-83525779D01*
X149470437Y-83548834D01*
X149464773Y-83571443D01*
X149456921Y-83593387D01*
X149446956Y-83614457D01*
X149434974Y-83634448D01*
X149421090Y-83653168D01*
X149405438Y-83670438D01*
X149388168Y-83686090D01*
X149369448Y-83699974D01*
X149349457Y-83711956D01*
X149328387Y-83721921D01*
X149306443Y-83729773D01*
X149283834Y-83735437D01*
X149260779Y-83738856D01*
X149237500Y-83740000D01*
X148762500Y-83740000D01*
X148739221Y-83738856D01*
X148716166Y-83735437D01*
X148693557Y-83729773D01*
X148671613Y-83721921D01*
X148650543Y-83711956D01*
X148630552Y-83699974D01*
X148611832Y-83686090D01*
X148594562Y-83670438D01*
X148578910Y-83653168D01*
X148565026Y-83634448D01*
X148553044Y-83614457D01*
X148543079Y-83593387D01*
X148535227Y-83571443D01*
X148529563Y-83548834D01*
X148526144Y-83525779D01*
X148525000Y-83502500D01*
X148525000Y-82927500D01*
X148526144Y-82904221D01*
X148529563Y-82881166D01*
X148535227Y-82858557D01*
X148543079Y-82836613D01*
X148553044Y-82815543D01*
X148565026Y-82795552D01*
X148578910Y-82776832D01*
X148594562Y-82759562D01*
X148611832Y-82743910D01*
X148630552Y-82730026D01*
X148650543Y-82718044D01*
X148671613Y-82708079D01*
X148693557Y-82700227D01*
X148716166Y-82694563D01*
X148739221Y-82691144D01*
X148762500Y-82690000D01*
X149237500Y-82690000D01*
X149260779Y-82691144D01*
X149260779Y-82691144D01*
G37*
D11*
X149000000Y-83215000D03*
D10*
G36*
X149260779Y-84441144D02*
G01*
X149283834Y-84444563D01*
X149306443Y-84450227D01*
X149328387Y-84458079D01*
X149349457Y-84468044D01*
X149369448Y-84480026D01*
X149388168Y-84493910D01*
X149405438Y-84509562D01*
X149421090Y-84526832D01*
X149434974Y-84545552D01*
X149446956Y-84565543D01*
X149456921Y-84586613D01*
X149464773Y-84608557D01*
X149470437Y-84631166D01*
X149473856Y-84654221D01*
X149475000Y-84677500D01*
X149475000Y-85252500D01*
X149473856Y-85275779D01*
X149470437Y-85298834D01*
X149464773Y-85321443D01*
X149456921Y-85343387D01*
X149446956Y-85364457D01*
X149434974Y-85384448D01*
X149421090Y-85403168D01*
X149405438Y-85420438D01*
X149388168Y-85436090D01*
X149369448Y-85449974D01*
X149349457Y-85461956D01*
X149328387Y-85471921D01*
X149306443Y-85479773D01*
X149283834Y-85485437D01*
X149260779Y-85488856D01*
X149237500Y-85490000D01*
X148762500Y-85490000D01*
X148739221Y-85488856D01*
X148716166Y-85485437D01*
X148693557Y-85479773D01*
X148671613Y-85471921D01*
X148650543Y-85461956D01*
X148630552Y-85449974D01*
X148611832Y-85436090D01*
X148594562Y-85420438D01*
X148578910Y-85403168D01*
X148565026Y-85384448D01*
X148553044Y-85364457D01*
X148543079Y-85343387D01*
X148535227Y-85321443D01*
X148529563Y-85298834D01*
X148526144Y-85275779D01*
X148525000Y-85252500D01*
X148525000Y-84677500D01*
X148526144Y-84654221D01*
X148529563Y-84631166D01*
X148535227Y-84608557D01*
X148543079Y-84586613D01*
X148553044Y-84565543D01*
X148565026Y-84545552D01*
X148578910Y-84526832D01*
X148594562Y-84509562D01*
X148611832Y-84493910D01*
X148630552Y-84480026D01*
X148650543Y-84468044D01*
X148671613Y-84458079D01*
X148693557Y-84450227D01*
X148716166Y-84444563D01*
X148739221Y-84441144D01*
X148762500Y-84440000D01*
X149237500Y-84440000D01*
X149260779Y-84441144D01*
X149260779Y-84441144D01*
G37*
D11*
X149000000Y-84965000D03*
D10*
G36*
X200685779Y-65726144D02*
G01*
X200708834Y-65729563D01*
X200731443Y-65735227D01*
X200753387Y-65743079D01*
X200774457Y-65753044D01*
X200794448Y-65765026D01*
X200813168Y-65778910D01*
X200830438Y-65794562D01*
X200846090Y-65811832D01*
X200859974Y-65830552D01*
X200871956Y-65850543D01*
X200881921Y-65871613D01*
X200889773Y-65893557D01*
X200895437Y-65916166D01*
X200898856Y-65939221D01*
X200900000Y-65962500D01*
X200900000Y-66437500D01*
X200898856Y-66460779D01*
X200895437Y-66483834D01*
X200889773Y-66506443D01*
X200881921Y-66528387D01*
X200871956Y-66549457D01*
X200859974Y-66569448D01*
X200846090Y-66588168D01*
X200830438Y-66605438D01*
X200813168Y-66621090D01*
X200794448Y-66634974D01*
X200774457Y-66646956D01*
X200753387Y-66656921D01*
X200731443Y-66664773D01*
X200708834Y-66670437D01*
X200685779Y-66673856D01*
X200662500Y-66675000D01*
X200087500Y-66675000D01*
X200064221Y-66673856D01*
X200041166Y-66670437D01*
X200018557Y-66664773D01*
X199996613Y-66656921D01*
X199975543Y-66646956D01*
X199955552Y-66634974D01*
X199936832Y-66621090D01*
X199919562Y-66605438D01*
X199903910Y-66588168D01*
X199890026Y-66569448D01*
X199878044Y-66549457D01*
X199868079Y-66528387D01*
X199860227Y-66506443D01*
X199854563Y-66483834D01*
X199851144Y-66460779D01*
X199850000Y-66437500D01*
X199850000Y-65962500D01*
X199851144Y-65939221D01*
X199854563Y-65916166D01*
X199860227Y-65893557D01*
X199868079Y-65871613D01*
X199878044Y-65850543D01*
X199890026Y-65830552D01*
X199903910Y-65811832D01*
X199919562Y-65794562D01*
X199936832Y-65778910D01*
X199955552Y-65765026D01*
X199975543Y-65753044D01*
X199996613Y-65743079D01*
X200018557Y-65735227D01*
X200041166Y-65729563D01*
X200064221Y-65726144D01*
X200087500Y-65725000D01*
X200662500Y-65725000D01*
X200685779Y-65726144D01*
X200685779Y-65726144D01*
G37*
D11*
X200375000Y-66200000D03*
D10*
G36*
X198935779Y-65726144D02*
G01*
X198958834Y-65729563D01*
X198981443Y-65735227D01*
X199003387Y-65743079D01*
X199024457Y-65753044D01*
X199044448Y-65765026D01*
X199063168Y-65778910D01*
X199080438Y-65794562D01*
X199096090Y-65811832D01*
X199109974Y-65830552D01*
X199121956Y-65850543D01*
X199131921Y-65871613D01*
X199139773Y-65893557D01*
X199145437Y-65916166D01*
X199148856Y-65939221D01*
X199150000Y-65962500D01*
X199150000Y-66437500D01*
X199148856Y-66460779D01*
X199145437Y-66483834D01*
X199139773Y-66506443D01*
X199131921Y-66528387D01*
X199121956Y-66549457D01*
X199109974Y-66569448D01*
X199096090Y-66588168D01*
X199080438Y-66605438D01*
X199063168Y-66621090D01*
X199044448Y-66634974D01*
X199024457Y-66646956D01*
X199003387Y-66656921D01*
X198981443Y-66664773D01*
X198958834Y-66670437D01*
X198935779Y-66673856D01*
X198912500Y-66675000D01*
X198337500Y-66675000D01*
X198314221Y-66673856D01*
X198291166Y-66670437D01*
X198268557Y-66664773D01*
X198246613Y-66656921D01*
X198225543Y-66646956D01*
X198205552Y-66634974D01*
X198186832Y-66621090D01*
X198169562Y-66605438D01*
X198153910Y-66588168D01*
X198140026Y-66569448D01*
X198128044Y-66549457D01*
X198118079Y-66528387D01*
X198110227Y-66506443D01*
X198104563Y-66483834D01*
X198101144Y-66460779D01*
X198100000Y-66437500D01*
X198100000Y-65962500D01*
X198101144Y-65939221D01*
X198104563Y-65916166D01*
X198110227Y-65893557D01*
X198118079Y-65871613D01*
X198128044Y-65850543D01*
X198140026Y-65830552D01*
X198153910Y-65811832D01*
X198169562Y-65794562D01*
X198186832Y-65778910D01*
X198205552Y-65765026D01*
X198225543Y-65753044D01*
X198246613Y-65743079D01*
X198268557Y-65735227D01*
X198291166Y-65729563D01*
X198314221Y-65726144D01*
X198337500Y-65725000D01*
X198912500Y-65725000D01*
X198935779Y-65726144D01*
X198935779Y-65726144D01*
G37*
D11*
X198625000Y-66200000D03*
D10*
G36*
X223935779Y-65726144D02*
G01*
X223958834Y-65729563D01*
X223981443Y-65735227D01*
X224003387Y-65743079D01*
X224024457Y-65753044D01*
X224044448Y-65765026D01*
X224063168Y-65778910D01*
X224080438Y-65794562D01*
X224096090Y-65811832D01*
X224109974Y-65830552D01*
X224121956Y-65850543D01*
X224131921Y-65871613D01*
X224139773Y-65893557D01*
X224145437Y-65916166D01*
X224148856Y-65939221D01*
X224150000Y-65962500D01*
X224150000Y-66437500D01*
X224148856Y-66460779D01*
X224145437Y-66483834D01*
X224139773Y-66506443D01*
X224131921Y-66528387D01*
X224121956Y-66549457D01*
X224109974Y-66569448D01*
X224096090Y-66588168D01*
X224080438Y-66605438D01*
X224063168Y-66621090D01*
X224044448Y-66634974D01*
X224024457Y-66646956D01*
X224003387Y-66656921D01*
X223981443Y-66664773D01*
X223958834Y-66670437D01*
X223935779Y-66673856D01*
X223912500Y-66675000D01*
X223337500Y-66675000D01*
X223314221Y-66673856D01*
X223291166Y-66670437D01*
X223268557Y-66664773D01*
X223246613Y-66656921D01*
X223225543Y-66646956D01*
X223205552Y-66634974D01*
X223186832Y-66621090D01*
X223169562Y-66605438D01*
X223153910Y-66588168D01*
X223140026Y-66569448D01*
X223128044Y-66549457D01*
X223118079Y-66528387D01*
X223110227Y-66506443D01*
X223104563Y-66483834D01*
X223101144Y-66460779D01*
X223100000Y-66437500D01*
X223100000Y-65962500D01*
X223101144Y-65939221D01*
X223104563Y-65916166D01*
X223110227Y-65893557D01*
X223118079Y-65871613D01*
X223128044Y-65850543D01*
X223140026Y-65830552D01*
X223153910Y-65811832D01*
X223169562Y-65794562D01*
X223186832Y-65778910D01*
X223205552Y-65765026D01*
X223225543Y-65753044D01*
X223246613Y-65743079D01*
X223268557Y-65735227D01*
X223291166Y-65729563D01*
X223314221Y-65726144D01*
X223337500Y-65725000D01*
X223912500Y-65725000D01*
X223935779Y-65726144D01*
X223935779Y-65726144D01*
G37*
D11*
X223625000Y-66200000D03*
D10*
G36*
X225685779Y-65726144D02*
G01*
X225708834Y-65729563D01*
X225731443Y-65735227D01*
X225753387Y-65743079D01*
X225774457Y-65753044D01*
X225794448Y-65765026D01*
X225813168Y-65778910D01*
X225830438Y-65794562D01*
X225846090Y-65811832D01*
X225859974Y-65830552D01*
X225871956Y-65850543D01*
X225881921Y-65871613D01*
X225889773Y-65893557D01*
X225895437Y-65916166D01*
X225898856Y-65939221D01*
X225900000Y-65962500D01*
X225900000Y-66437500D01*
X225898856Y-66460779D01*
X225895437Y-66483834D01*
X225889773Y-66506443D01*
X225881921Y-66528387D01*
X225871956Y-66549457D01*
X225859974Y-66569448D01*
X225846090Y-66588168D01*
X225830438Y-66605438D01*
X225813168Y-66621090D01*
X225794448Y-66634974D01*
X225774457Y-66646956D01*
X225753387Y-66656921D01*
X225731443Y-66664773D01*
X225708834Y-66670437D01*
X225685779Y-66673856D01*
X225662500Y-66675000D01*
X225087500Y-66675000D01*
X225064221Y-66673856D01*
X225041166Y-66670437D01*
X225018557Y-66664773D01*
X224996613Y-66656921D01*
X224975543Y-66646956D01*
X224955552Y-66634974D01*
X224936832Y-66621090D01*
X224919562Y-66605438D01*
X224903910Y-66588168D01*
X224890026Y-66569448D01*
X224878044Y-66549457D01*
X224868079Y-66528387D01*
X224860227Y-66506443D01*
X224854563Y-66483834D01*
X224851144Y-66460779D01*
X224850000Y-66437500D01*
X224850000Y-65962500D01*
X224851144Y-65939221D01*
X224854563Y-65916166D01*
X224860227Y-65893557D01*
X224868079Y-65871613D01*
X224878044Y-65850543D01*
X224890026Y-65830552D01*
X224903910Y-65811832D01*
X224919562Y-65794562D01*
X224936832Y-65778910D01*
X224955552Y-65765026D01*
X224975543Y-65753044D01*
X224996613Y-65743079D01*
X225018557Y-65735227D01*
X225041166Y-65729563D01*
X225064221Y-65726144D01*
X225087500Y-65725000D01*
X225662500Y-65725000D01*
X225685779Y-65726144D01*
X225685779Y-65726144D01*
G37*
D11*
X225375000Y-66200000D03*
D10*
G36*
X198935779Y-62726144D02*
G01*
X198958834Y-62729563D01*
X198981443Y-62735227D01*
X199003387Y-62743079D01*
X199024457Y-62753044D01*
X199044448Y-62765026D01*
X199063168Y-62778910D01*
X199080438Y-62794562D01*
X199096090Y-62811832D01*
X199109974Y-62830552D01*
X199121956Y-62850543D01*
X199131921Y-62871613D01*
X199139773Y-62893557D01*
X199145437Y-62916166D01*
X199148856Y-62939221D01*
X199150000Y-62962500D01*
X199150000Y-63437500D01*
X199148856Y-63460779D01*
X199145437Y-63483834D01*
X199139773Y-63506443D01*
X199131921Y-63528387D01*
X199121956Y-63549457D01*
X199109974Y-63569448D01*
X199096090Y-63588168D01*
X199080438Y-63605438D01*
X199063168Y-63621090D01*
X199044448Y-63634974D01*
X199024457Y-63646956D01*
X199003387Y-63656921D01*
X198981443Y-63664773D01*
X198958834Y-63670437D01*
X198935779Y-63673856D01*
X198912500Y-63675000D01*
X198337500Y-63675000D01*
X198314221Y-63673856D01*
X198291166Y-63670437D01*
X198268557Y-63664773D01*
X198246613Y-63656921D01*
X198225543Y-63646956D01*
X198205552Y-63634974D01*
X198186832Y-63621090D01*
X198169562Y-63605438D01*
X198153910Y-63588168D01*
X198140026Y-63569448D01*
X198128044Y-63549457D01*
X198118079Y-63528387D01*
X198110227Y-63506443D01*
X198104563Y-63483834D01*
X198101144Y-63460779D01*
X198100000Y-63437500D01*
X198100000Y-62962500D01*
X198101144Y-62939221D01*
X198104563Y-62916166D01*
X198110227Y-62893557D01*
X198118079Y-62871613D01*
X198128044Y-62850543D01*
X198140026Y-62830552D01*
X198153910Y-62811832D01*
X198169562Y-62794562D01*
X198186832Y-62778910D01*
X198205552Y-62765026D01*
X198225543Y-62753044D01*
X198246613Y-62743079D01*
X198268557Y-62735227D01*
X198291166Y-62729563D01*
X198314221Y-62726144D01*
X198337500Y-62725000D01*
X198912500Y-62725000D01*
X198935779Y-62726144D01*
X198935779Y-62726144D01*
G37*
D11*
X198625000Y-63200000D03*
D10*
G36*
X200685779Y-62726144D02*
G01*
X200708834Y-62729563D01*
X200731443Y-62735227D01*
X200753387Y-62743079D01*
X200774457Y-62753044D01*
X200794448Y-62765026D01*
X200813168Y-62778910D01*
X200830438Y-62794562D01*
X200846090Y-62811832D01*
X200859974Y-62830552D01*
X200871956Y-62850543D01*
X200881921Y-62871613D01*
X200889773Y-62893557D01*
X200895437Y-62916166D01*
X200898856Y-62939221D01*
X200900000Y-62962500D01*
X200900000Y-63437500D01*
X200898856Y-63460779D01*
X200895437Y-63483834D01*
X200889773Y-63506443D01*
X200881921Y-63528387D01*
X200871956Y-63549457D01*
X200859974Y-63569448D01*
X200846090Y-63588168D01*
X200830438Y-63605438D01*
X200813168Y-63621090D01*
X200794448Y-63634974D01*
X200774457Y-63646956D01*
X200753387Y-63656921D01*
X200731443Y-63664773D01*
X200708834Y-63670437D01*
X200685779Y-63673856D01*
X200662500Y-63675000D01*
X200087500Y-63675000D01*
X200064221Y-63673856D01*
X200041166Y-63670437D01*
X200018557Y-63664773D01*
X199996613Y-63656921D01*
X199975543Y-63646956D01*
X199955552Y-63634974D01*
X199936832Y-63621090D01*
X199919562Y-63605438D01*
X199903910Y-63588168D01*
X199890026Y-63569448D01*
X199878044Y-63549457D01*
X199868079Y-63528387D01*
X199860227Y-63506443D01*
X199854563Y-63483834D01*
X199851144Y-63460779D01*
X199850000Y-63437500D01*
X199850000Y-62962500D01*
X199851144Y-62939221D01*
X199854563Y-62916166D01*
X199860227Y-62893557D01*
X199868079Y-62871613D01*
X199878044Y-62850543D01*
X199890026Y-62830552D01*
X199903910Y-62811832D01*
X199919562Y-62794562D01*
X199936832Y-62778910D01*
X199955552Y-62765026D01*
X199975543Y-62753044D01*
X199996613Y-62743079D01*
X200018557Y-62735227D01*
X200041166Y-62729563D01*
X200064221Y-62726144D01*
X200087500Y-62725000D01*
X200662500Y-62725000D01*
X200685779Y-62726144D01*
X200685779Y-62726144D01*
G37*
D11*
X200375000Y-63200000D03*
D10*
G36*
X156685779Y-68726144D02*
G01*
X156708834Y-68729563D01*
X156731443Y-68735227D01*
X156753387Y-68743079D01*
X156774457Y-68753044D01*
X156794448Y-68765026D01*
X156813168Y-68778910D01*
X156830438Y-68794562D01*
X156846090Y-68811832D01*
X156859974Y-68830552D01*
X156871956Y-68850543D01*
X156881921Y-68871613D01*
X156889773Y-68893557D01*
X156895437Y-68916166D01*
X156898856Y-68939221D01*
X156900000Y-68962500D01*
X156900000Y-69437500D01*
X156898856Y-69460779D01*
X156895437Y-69483834D01*
X156889773Y-69506443D01*
X156881921Y-69528387D01*
X156871956Y-69549457D01*
X156859974Y-69569448D01*
X156846090Y-69588168D01*
X156830438Y-69605438D01*
X156813168Y-69621090D01*
X156794448Y-69634974D01*
X156774457Y-69646956D01*
X156753387Y-69656921D01*
X156731443Y-69664773D01*
X156708834Y-69670437D01*
X156685779Y-69673856D01*
X156662500Y-69675000D01*
X156087500Y-69675000D01*
X156064221Y-69673856D01*
X156041166Y-69670437D01*
X156018557Y-69664773D01*
X155996613Y-69656921D01*
X155975543Y-69646956D01*
X155955552Y-69634974D01*
X155936832Y-69621090D01*
X155919562Y-69605438D01*
X155903910Y-69588168D01*
X155890026Y-69569448D01*
X155878044Y-69549457D01*
X155868079Y-69528387D01*
X155860227Y-69506443D01*
X155854563Y-69483834D01*
X155851144Y-69460779D01*
X155850000Y-69437500D01*
X155850000Y-68962500D01*
X155851144Y-68939221D01*
X155854563Y-68916166D01*
X155860227Y-68893557D01*
X155868079Y-68871613D01*
X155878044Y-68850543D01*
X155890026Y-68830552D01*
X155903910Y-68811832D01*
X155919562Y-68794562D01*
X155936832Y-68778910D01*
X155955552Y-68765026D01*
X155975543Y-68753044D01*
X155996613Y-68743079D01*
X156018557Y-68735227D01*
X156041166Y-68729563D01*
X156064221Y-68726144D01*
X156087500Y-68725000D01*
X156662500Y-68725000D01*
X156685779Y-68726144D01*
X156685779Y-68726144D01*
G37*
D11*
X156375000Y-69200000D03*
D10*
G36*
X154935779Y-68726144D02*
G01*
X154958834Y-68729563D01*
X154981443Y-68735227D01*
X155003387Y-68743079D01*
X155024457Y-68753044D01*
X155044448Y-68765026D01*
X155063168Y-68778910D01*
X155080438Y-68794562D01*
X155096090Y-68811832D01*
X155109974Y-68830552D01*
X155121956Y-68850543D01*
X155131921Y-68871613D01*
X155139773Y-68893557D01*
X155145437Y-68916166D01*
X155148856Y-68939221D01*
X155150000Y-68962500D01*
X155150000Y-69437500D01*
X155148856Y-69460779D01*
X155145437Y-69483834D01*
X155139773Y-69506443D01*
X155131921Y-69528387D01*
X155121956Y-69549457D01*
X155109974Y-69569448D01*
X155096090Y-69588168D01*
X155080438Y-69605438D01*
X155063168Y-69621090D01*
X155044448Y-69634974D01*
X155024457Y-69646956D01*
X155003387Y-69656921D01*
X154981443Y-69664773D01*
X154958834Y-69670437D01*
X154935779Y-69673856D01*
X154912500Y-69675000D01*
X154337500Y-69675000D01*
X154314221Y-69673856D01*
X154291166Y-69670437D01*
X154268557Y-69664773D01*
X154246613Y-69656921D01*
X154225543Y-69646956D01*
X154205552Y-69634974D01*
X154186832Y-69621090D01*
X154169562Y-69605438D01*
X154153910Y-69588168D01*
X154140026Y-69569448D01*
X154128044Y-69549457D01*
X154118079Y-69528387D01*
X154110227Y-69506443D01*
X154104563Y-69483834D01*
X154101144Y-69460779D01*
X154100000Y-69437500D01*
X154100000Y-68962500D01*
X154101144Y-68939221D01*
X154104563Y-68916166D01*
X154110227Y-68893557D01*
X154118079Y-68871613D01*
X154128044Y-68850543D01*
X154140026Y-68830552D01*
X154153910Y-68811832D01*
X154169562Y-68794562D01*
X154186832Y-68778910D01*
X154205552Y-68765026D01*
X154225543Y-68753044D01*
X154246613Y-68743079D01*
X154268557Y-68735227D01*
X154291166Y-68729563D01*
X154314221Y-68726144D01*
X154337500Y-68725000D01*
X154912500Y-68725000D01*
X154935779Y-68726144D01*
X154935779Y-68726144D01*
G37*
D11*
X154625000Y-69200000D03*
D10*
G36*
X181685779Y-68726144D02*
G01*
X181708834Y-68729563D01*
X181731443Y-68735227D01*
X181753387Y-68743079D01*
X181774457Y-68753044D01*
X181794448Y-68765026D01*
X181813168Y-68778910D01*
X181830438Y-68794562D01*
X181846090Y-68811832D01*
X181859974Y-68830552D01*
X181871956Y-68850543D01*
X181881921Y-68871613D01*
X181889773Y-68893557D01*
X181895437Y-68916166D01*
X181898856Y-68939221D01*
X181900000Y-68962500D01*
X181900000Y-69437500D01*
X181898856Y-69460779D01*
X181895437Y-69483834D01*
X181889773Y-69506443D01*
X181881921Y-69528387D01*
X181871956Y-69549457D01*
X181859974Y-69569448D01*
X181846090Y-69588168D01*
X181830438Y-69605438D01*
X181813168Y-69621090D01*
X181794448Y-69634974D01*
X181774457Y-69646956D01*
X181753387Y-69656921D01*
X181731443Y-69664773D01*
X181708834Y-69670437D01*
X181685779Y-69673856D01*
X181662500Y-69675000D01*
X181087500Y-69675000D01*
X181064221Y-69673856D01*
X181041166Y-69670437D01*
X181018557Y-69664773D01*
X180996613Y-69656921D01*
X180975543Y-69646956D01*
X180955552Y-69634974D01*
X180936832Y-69621090D01*
X180919562Y-69605438D01*
X180903910Y-69588168D01*
X180890026Y-69569448D01*
X180878044Y-69549457D01*
X180868079Y-69528387D01*
X180860227Y-69506443D01*
X180854563Y-69483834D01*
X180851144Y-69460779D01*
X180850000Y-69437500D01*
X180850000Y-68962500D01*
X180851144Y-68939221D01*
X180854563Y-68916166D01*
X180860227Y-68893557D01*
X180868079Y-68871613D01*
X180878044Y-68850543D01*
X180890026Y-68830552D01*
X180903910Y-68811832D01*
X180919562Y-68794562D01*
X180936832Y-68778910D01*
X180955552Y-68765026D01*
X180975543Y-68753044D01*
X180996613Y-68743079D01*
X181018557Y-68735227D01*
X181041166Y-68729563D01*
X181064221Y-68726144D01*
X181087500Y-68725000D01*
X181662500Y-68725000D01*
X181685779Y-68726144D01*
X181685779Y-68726144D01*
G37*
D11*
X181375000Y-69200000D03*
D10*
G36*
X179935779Y-68726144D02*
G01*
X179958834Y-68729563D01*
X179981443Y-68735227D01*
X180003387Y-68743079D01*
X180024457Y-68753044D01*
X180044448Y-68765026D01*
X180063168Y-68778910D01*
X180080438Y-68794562D01*
X180096090Y-68811832D01*
X180109974Y-68830552D01*
X180121956Y-68850543D01*
X180131921Y-68871613D01*
X180139773Y-68893557D01*
X180145437Y-68916166D01*
X180148856Y-68939221D01*
X180150000Y-68962500D01*
X180150000Y-69437500D01*
X180148856Y-69460779D01*
X180145437Y-69483834D01*
X180139773Y-69506443D01*
X180131921Y-69528387D01*
X180121956Y-69549457D01*
X180109974Y-69569448D01*
X180096090Y-69588168D01*
X180080438Y-69605438D01*
X180063168Y-69621090D01*
X180044448Y-69634974D01*
X180024457Y-69646956D01*
X180003387Y-69656921D01*
X179981443Y-69664773D01*
X179958834Y-69670437D01*
X179935779Y-69673856D01*
X179912500Y-69675000D01*
X179337500Y-69675000D01*
X179314221Y-69673856D01*
X179291166Y-69670437D01*
X179268557Y-69664773D01*
X179246613Y-69656921D01*
X179225543Y-69646956D01*
X179205552Y-69634974D01*
X179186832Y-69621090D01*
X179169562Y-69605438D01*
X179153910Y-69588168D01*
X179140026Y-69569448D01*
X179128044Y-69549457D01*
X179118079Y-69528387D01*
X179110227Y-69506443D01*
X179104563Y-69483834D01*
X179101144Y-69460779D01*
X179100000Y-69437500D01*
X179100000Y-68962500D01*
X179101144Y-68939221D01*
X179104563Y-68916166D01*
X179110227Y-68893557D01*
X179118079Y-68871613D01*
X179128044Y-68850543D01*
X179140026Y-68830552D01*
X179153910Y-68811832D01*
X179169562Y-68794562D01*
X179186832Y-68778910D01*
X179205552Y-68765026D01*
X179225543Y-68753044D01*
X179246613Y-68743079D01*
X179268557Y-68735227D01*
X179291166Y-68729563D01*
X179314221Y-68726144D01*
X179337500Y-68725000D01*
X179912500Y-68725000D01*
X179935779Y-68726144D01*
X179935779Y-68726144D01*
G37*
D11*
X179625000Y-69200000D03*
D10*
G36*
X200685779Y-59726144D02*
G01*
X200708834Y-59729563D01*
X200731443Y-59735227D01*
X200753387Y-59743079D01*
X200774457Y-59753044D01*
X200794448Y-59765026D01*
X200813168Y-59778910D01*
X200830438Y-59794562D01*
X200846090Y-59811832D01*
X200859974Y-59830552D01*
X200871956Y-59850543D01*
X200881921Y-59871613D01*
X200889773Y-59893557D01*
X200895437Y-59916166D01*
X200898856Y-59939221D01*
X200900000Y-59962500D01*
X200900000Y-60437500D01*
X200898856Y-60460779D01*
X200895437Y-60483834D01*
X200889773Y-60506443D01*
X200881921Y-60528387D01*
X200871956Y-60549457D01*
X200859974Y-60569448D01*
X200846090Y-60588168D01*
X200830438Y-60605438D01*
X200813168Y-60621090D01*
X200794448Y-60634974D01*
X200774457Y-60646956D01*
X200753387Y-60656921D01*
X200731443Y-60664773D01*
X200708834Y-60670437D01*
X200685779Y-60673856D01*
X200662500Y-60675000D01*
X200087500Y-60675000D01*
X200064221Y-60673856D01*
X200041166Y-60670437D01*
X200018557Y-60664773D01*
X199996613Y-60656921D01*
X199975543Y-60646956D01*
X199955552Y-60634974D01*
X199936832Y-60621090D01*
X199919562Y-60605438D01*
X199903910Y-60588168D01*
X199890026Y-60569448D01*
X199878044Y-60549457D01*
X199868079Y-60528387D01*
X199860227Y-60506443D01*
X199854563Y-60483834D01*
X199851144Y-60460779D01*
X199850000Y-60437500D01*
X199850000Y-59962500D01*
X199851144Y-59939221D01*
X199854563Y-59916166D01*
X199860227Y-59893557D01*
X199868079Y-59871613D01*
X199878044Y-59850543D01*
X199890026Y-59830552D01*
X199903910Y-59811832D01*
X199919562Y-59794562D01*
X199936832Y-59778910D01*
X199955552Y-59765026D01*
X199975543Y-59753044D01*
X199996613Y-59743079D01*
X200018557Y-59735227D01*
X200041166Y-59729563D01*
X200064221Y-59726144D01*
X200087500Y-59725000D01*
X200662500Y-59725000D01*
X200685779Y-59726144D01*
X200685779Y-59726144D01*
G37*
D11*
X200375000Y-60200000D03*
D10*
G36*
X198935779Y-59726144D02*
G01*
X198958834Y-59729563D01*
X198981443Y-59735227D01*
X199003387Y-59743079D01*
X199024457Y-59753044D01*
X199044448Y-59765026D01*
X199063168Y-59778910D01*
X199080438Y-59794562D01*
X199096090Y-59811832D01*
X199109974Y-59830552D01*
X199121956Y-59850543D01*
X199131921Y-59871613D01*
X199139773Y-59893557D01*
X199145437Y-59916166D01*
X199148856Y-59939221D01*
X199150000Y-59962500D01*
X199150000Y-60437500D01*
X199148856Y-60460779D01*
X199145437Y-60483834D01*
X199139773Y-60506443D01*
X199131921Y-60528387D01*
X199121956Y-60549457D01*
X199109974Y-60569448D01*
X199096090Y-60588168D01*
X199080438Y-60605438D01*
X199063168Y-60621090D01*
X199044448Y-60634974D01*
X199024457Y-60646956D01*
X199003387Y-60656921D01*
X198981443Y-60664773D01*
X198958834Y-60670437D01*
X198935779Y-60673856D01*
X198912500Y-60675000D01*
X198337500Y-60675000D01*
X198314221Y-60673856D01*
X198291166Y-60670437D01*
X198268557Y-60664773D01*
X198246613Y-60656921D01*
X198225543Y-60646956D01*
X198205552Y-60634974D01*
X198186832Y-60621090D01*
X198169562Y-60605438D01*
X198153910Y-60588168D01*
X198140026Y-60569448D01*
X198128044Y-60549457D01*
X198118079Y-60528387D01*
X198110227Y-60506443D01*
X198104563Y-60483834D01*
X198101144Y-60460779D01*
X198100000Y-60437500D01*
X198100000Y-59962500D01*
X198101144Y-59939221D01*
X198104563Y-59916166D01*
X198110227Y-59893557D01*
X198118079Y-59871613D01*
X198128044Y-59850543D01*
X198140026Y-59830552D01*
X198153910Y-59811832D01*
X198169562Y-59794562D01*
X198186832Y-59778910D01*
X198205552Y-59765026D01*
X198225543Y-59753044D01*
X198246613Y-59743079D01*
X198268557Y-59735227D01*
X198291166Y-59729563D01*
X198314221Y-59726144D01*
X198337500Y-59725000D01*
X198912500Y-59725000D01*
X198935779Y-59726144D01*
X198935779Y-59726144D01*
G37*
D11*
X198625000Y-60200000D03*
D10*
G36*
X223935779Y-59726144D02*
G01*
X223958834Y-59729563D01*
X223981443Y-59735227D01*
X224003387Y-59743079D01*
X224024457Y-59753044D01*
X224044448Y-59765026D01*
X224063168Y-59778910D01*
X224080438Y-59794562D01*
X224096090Y-59811832D01*
X224109974Y-59830552D01*
X224121956Y-59850543D01*
X224131921Y-59871613D01*
X224139773Y-59893557D01*
X224145437Y-59916166D01*
X224148856Y-59939221D01*
X224150000Y-59962500D01*
X224150000Y-60437500D01*
X224148856Y-60460779D01*
X224145437Y-60483834D01*
X224139773Y-60506443D01*
X224131921Y-60528387D01*
X224121956Y-60549457D01*
X224109974Y-60569448D01*
X224096090Y-60588168D01*
X224080438Y-60605438D01*
X224063168Y-60621090D01*
X224044448Y-60634974D01*
X224024457Y-60646956D01*
X224003387Y-60656921D01*
X223981443Y-60664773D01*
X223958834Y-60670437D01*
X223935779Y-60673856D01*
X223912500Y-60675000D01*
X223337500Y-60675000D01*
X223314221Y-60673856D01*
X223291166Y-60670437D01*
X223268557Y-60664773D01*
X223246613Y-60656921D01*
X223225543Y-60646956D01*
X223205552Y-60634974D01*
X223186832Y-60621090D01*
X223169562Y-60605438D01*
X223153910Y-60588168D01*
X223140026Y-60569448D01*
X223128044Y-60549457D01*
X223118079Y-60528387D01*
X223110227Y-60506443D01*
X223104563Y-60483834D01*
X223101144Y-60460779D01*
X223100000Y-60437500D01*
X223100000Y-59962500D01*
X223101144Y-59939221D01*
X223104563Y-59916166D01*
X223110227Y-59893557D01*
X223118079Y-59871613D01*
X223128044Y-59850543D01*
X223140026Y-59830552D01*
X223153910Y-59811832D01*
X223169562Y-59794562D01*
X223186832Y-59778910D01*
X223205552Y-59765026D01*
X223225543Y-59753044D01*
X223246613Y-59743079D01*
X223268557Y-59735227D01*
X223291166Y-59729563D01*
X223314221Y-59726144D01*
X223337500Y-59725000D01*
X223912500Y-59725000D01*
X223935779Y-59726144D01*
X223935779Y-59726144D01*
G37*
D11*
X223625000Y-60200000D03*
D10*
G36*
X225685779Y-59726144D02*
G01*
X225708834Y-59729563D01*
X225731443Y-59735227D01*
X225753387Y-59743079D01*
X225774457Y-59753044D01*
X225794448Y-59765026D01*
X225813168Y-59778910D01*
X225830438Y-59794562D01*
X225846090Y-59811832D01*
X225859974Y-59830552D01*
X225871956Y-59850543D01*
X225881921Y-59871613D01*
X225889773Y-59893557D01*
X225895437Y-59916166D01*
X225898856Y-59939221D01*
X225900000Y-59962500D01*
X225900000Y-60437500D01*
X225898856Y-60460779D01*
X225895437Y-60483834D01*
X225889773Y-60506443D01*
X225881921Y-60528387D01*
X225871956Y-60549457D01*
X225859974Y-60569448D01*
X225846090Y-60588168D01*
X225830438Y-60605438D01*
X225813168Y-60621090D01*
X225794448Y-60634974D01*
X225774457Y-60646956D01*
X225753387Y-60656921D01*
X225731443Y-60664773D01*
X225708834Y-60670437D01*
X225685779Y-60673856D01*
X225662500Y-60675000D01*
X225087500Y-60675000D01*
X225064221Y-60673856D01*
X225041166Y-60670437D01*
X225018557Y-60664773D01*
X224996613Y-60656921D01*
X224975543Y-60646956D01*
X224955552Y-60634974D01*
X224936832Y-60621090D01*
X224919562Y-60605438D01*
X224903910Y-60588168D01*
X224890026Y-60569448D01*
X224878044Y-60549457D01*
X224868079Y-60528387D01*
X224860227Y-60506443D01*
X224854563Y-60483834D01*
X224851144Y-60460779D01*
X224850000Y-60437500D01*
X224850000Y-59962500D01*
X224851144Y-59939221D01*
X224854563Y-59916166D01*
X224860227Y-59893557D01*
X224868079Y-59871613D01*
X224878044Y-59850543D01*
X224890026Y-59830552D01*
X224903910Y-59811832D01*
X224919562Y-59794562D01*
X224936832Y-59778910D01*
X224955552Y-59765026D01*
X224975543Y-59753044D01*
X224996613Y-59743079D01*
X225018557Y-59735227D01*
X225041166Y-59729563D01*
X225064221Y-59726144D01*
X225087500Y-59725000D01*
X225662500Y-59725000D01*
X225685779Y-59726144D01*
X225685779Y-59726144D01*
G37*
D11*
X225375000Y-60200000D03*
D10*
G36*
X148685779Y-68726144D02*
G01*
X148708834Y-68729563D01*
X148731443Y-68735227D01*
X148753387Y-68743079D01*
X148774457Y-68753044D01*
X148794448Y-68765026D01*
X148813168Y-68778910D01*
X148830438Y-68794562D01*
X148846090Y-68811832D01*
X148859974Y-68830552D01*
X148871956Y-68850543D01*
X148881921Y-68871613D01*
X148889773Y-68893557D01*
X148895437Y-68916166D01*
X148898856Y-68939221D01*
X148900000Y-68962500D01*
X148900000Y-69437500D01*
X148898856Y-69460779D01*
X148895437Y-69483834D01*
X148889773Y-69506443D01*
X148881921Y-69528387D01*
X148871956Y-69549457D01*
X148859974Y-69569448D01*
X148846090Y-69588168D01*
X148830438Y-69605438D01*
X148813168Y-69621090D01*
X148794448Y-69634974D01*
X148774457Y-69646956D01*
X148753387Y-69656921D01*
X148731443Y-69664773D01*
X148708834Y-69670437D01*
X148685779Y-69673856D01*
X148662500Y-69675000D01*
X148087500Y-69675000D01*
X148064221Y-69673856D01*
X148041166Y-69670437D01*
X148018557Y-69664773D01*
X147996613Y-69656921D01*
X147975543Y-69646956D01*
X147955552Y-69634974D01*
X147936832Y-69621090D01*
X147919562Y-69605438D01*
X147903910Y-69588168D01*
X147890026Y-69569448D01*
X147878044Y-69549457D01*
X147868079Y-69528387D01*
X147860227Y-69506443D01*
X147854563Y-69483834D01*
X147851144Y-69460779D01*
X147850000Y-69437500D01*
X147850000Y-68962500D01*
X147851144Y-68939221D01*
X147854563Y-68916166D01*
X147860227Y-68893557D01*
X147868079Y-68871613D01*
X147878044Y-68850543D01*
X147890026Y-68830552D01*
X147903910Y-68811832D01*
X147919562Y-68794562D01*
X147936832Y-68778910D01*
X147955552Y-68765026D01*
X147975543Y-68753044D01*
X147996613Y-68743079D01*
X148018557Y-68735227D01*
X148041166Y-68729563D01*
X148064221Y-68726144D01*
X148087500Y-68725000D01*
X148662500Y-68725000D01*
X148685779Y-68726144D01*
X148685779Y-68726144D01*
G37*
D11*
X148375000Y-69200000D03*
D10*
G36*
X146935779Y-68726144D02*
G01*
X146958834Y-68729563D01*
X146981443Y-68735227D01*
X147003387Y-68743079D01*
X147024457Y-68753044D01*
X147044448Y-68765026D01*
X147063168Y-68778910D01*
X147080438Y-68794562D01*
X147096090Y-68811832D01*
X147109974Y-68830552D01*
X147121956Y-68850543D01*
X147131921Y-68871613D01*
X147139773Y-68893557D01*
X147145437Y-68916166D01*
X147148856Y-68939221D01*
X147150000Y-68962500D01*
X147150000Y-69437500D01*
X147148856Y-69460779D01*
X147145437Y-69483834D01*
X147139773Y-69506443D01*
X147131921Y-69528387D01*
X147121956Y-69549457D01*
X147109974Y-69569448D01*
X147096090Y-69588168D01*
X147080438Y-69605438D01*
X147063168Y-69621090D01*
X147044448Y-69634974D01*
X147024457Y-69646956D01*
X147003387Y-69656921D01*
X146981443Y-69664773D01*
X146958834Y-69670437D01*
X146935779Y-69673856D01*
X146912500Y-69675000D01*
X146337500Y-69675000D01*
X146314221Y-69673856D01*
X146291166Y-69670437D01*
X146268557Y-69664773D01*
X146246613Y-69656921D01*
X146225543Y-69646956D01*
X146205552Y-69634974D01*
X146186832Y-69621090D01*
X146169562Y-69605438D01*
X146153910Y-69588168D01*
X146140026Y-69569448D01*
X146128044Y-69549457D01*
X146118079Y-69528387D01*
X146110227Y-69506443D01*
X146104563Y-69483834D01*
X146101144Y-69460779D01*
X146100000Y-69437500D01*
X146100000Y-68962500D01*
X146101144Y-68939221D01*
X146104563Y-68916166D01*
X146110227Y-68893557D01*
X146118079Y-68871613D01*
X146128044Y-68850543D01*
X146140026Y-68830552D01*
X146153910Y-68811832D01*
X146169562Y-68794562D01*
X146186832Y-68778910D01*
X146205552Y-68765026D01*
X146225543Y-68753044D01*
X146246613Y-68743079D01*
X146268557Y-68735227D01*
X146291166Y-68729563D01*
X146314221Y-68726144D01*
X146337500Y-68725000D01*
X146912500Y-68725000D01*
X146935779Y-68726144D01*
X146935779Y-68726144D01*
G37*
D11*
X146625000Y-69200000D03*
D10*
G36*
X173685779Y-68726144D02*
G01*
X173708834Y-68729563D01*
X173731443Y-68735227D01*
X173753387Y-68743079D01*
X173774457Y-68753044D01*
X173794448Y-68765026D01*
X173813168Y-68778910D01*
X173830438Y-68794562D01*
X173846090Y-68811832D01*
X173859974Y-68830552D01*
X173871956Y-68850543D01*
X173881921Y-68871613D01*
X173889773Y-68893557D01*
X173895437Y-68916166D01*
X173898856Y-68939221D01*
X173900000Y-68962500D01*
X173900000Y-69437500D01*
X173898856Y-69460779D01*
X173895437Y-69483834D01*
X173889773Y-69506443D01*
X173881921Y-69528387D01*
X173871956Y-69549457D01*
X173859974Y-69569448D01*
X173846090Y-69588168D01*
X173830438Y-69605438D01*
X173813168Y-69621090D01*
X173794448Y-69634974D01*
X173774457Y-69646956D01*
X173753387Y-69656921D01*
X173731443Y-69664773D01*
X173708834Y-69670437D01*
X173685779Y-69673856D01*
X173662500Y-69675000D01*
X173087500Y-69675000D01*
X173064221Y-69673856D01*
X173041166Y-69670437D01*
X173018557Y-69664773D01*
X172996613Y-69656921D01*
X172975543Y-69646956D01*
X172955552Y-69634974D01*
X172936832Y-69621090D01*
X172919562Y-69605438D01*
X172903910Y-69588168D01*
X172890026Y-69569448D01*
X172878044Y-69549457D01*
X172868079Y-69528387D01*
X172860227Y-69506443D01*
X172854563Y-69483834D01*
X172851144Y-69460779D01*
X172850000Y-69437500D01*
X172850000Y-68962500D01*
X172851144Y-68939221D01*
X172854563Y-68916166D01*
X172860227Y-68893557D01*
X172868079Y-68871613D01*
X172878044Y-68850543D01*
X172890026Y-68830552D01*
X172903910Y-68811832D01*
X172919562Y-68794562D01*
X172936832Y-68778910D01*
X172955552Y-68765026D01*
X172975543Y-68753044D01*
X172996613Y-68743079D01*
X173018557Y-68735227D01*
X173041166Y-68729563D01*
X173064221Y-68726144D01*
X173087500Y-68725000D01*
X173662500Y-68725000D01*
X173685779Y-68726144D01*
X173685779Y-68726144D01*
G37*
D11*
X173375000Y-69200000D03*
D10*
G36*
X171935779Y-68726144D02*
G01*
X171958834Y-68729563D01*
X171981443Y-68735227D01*
X172003387Y-68743079D01*
X172024457Y-68753044D01*
X172044448Y-68765026D01*
X172063168Y-68778910D01*
X172080438Y-68794562D01*
X172096090Y-68811832D01*
X172109974Y-68830552D01*
X172121956Y-68850543D01*
X172131921Y-68871613D01*
X172139773Y-68893557D01*
X172145437Y-68916166D01*
X172148856Y-68939221D01*
X172150000Y-68962500D01*
X172150000Y-69437500D01*
X172148856Y-69460779D01*
X172145437Y-69483834D01*
X172139773Y-69506443D01*
X172131921Y-69528387D01*
X172121956Y-69549457D01*
X172109974Y-69569448D01*
X172096090Y-69588168D01*
X172080438Y-69605438D01*
X172063168Y-69621090D01*
X172044448Y-69634974D01*
X172024457Y-69646956D01*
X172003387Y-69656921D01*
X171981443Y-69664773D01*
X171958834Y-69670437D01*
X171935779Y-69673856D01*
X171912500Y-69675000D01*
X171337500Y-69675000D01*
X171314221Y-69673856D01*
X171291166Y-69670437D01*
X171268557Y-69664773D01*
X171246613Y-69656921D01*
X171225543Y-69646956D01*
X171205552Y-69634974D01*
X171186832Y-69621090D01*
X171169562Y-69605438D01*
X171153910Y-69588168D01*
X171140026Y-69569448D01*
X171128044Y-69549457D01*
X171118079Y-69528387D01*
X171110227Y-69506443D01*
X171104563Y-69483834D01*
X171101144Y-69460779D01*
X171100000Y-69437500D01*
X171100000Y-68962500D01*
X171101144Y-68939221D01*
X171104563Y-68916166D01*
X171110227Y-68893557D01*
X171118079Y-68871613D01*
X171128044Y-68850543D01*
X171140026Y-68830552D01*
X171153910Y-68811832D01*
X171169562Y-68794562D01*
X171186832Y-68778910D01*
X171205552Y-68765026D01*
X171225543Y-68753044D01*
X171246613Y-68743079D01*
X171268557Y-68735227D01*
X171291166Y-68729563D01*
X171314221Y-68726144D01*
X171337500Y-68725000D01*
X171912500Y-68725000D01*
X171935779Y-68726144D01*
X171935779Y-68726144D01*
G37*
D11*
X171625000Y-69200000D03*
D10*
G36*
X200685779Y-68726144D02*
G01*
X200708834Y-68729563D01*
X200731443Y-68735227D01*
X200753387Y-68743079D01*
X200774457Y-68753044D01*
X200794448Y-68765026D01*
X200813168Y-68778910D01*
X200830438Y-68794562D01*
X200846090Y-68811832D01*
X200859974Y-68830552D01*
X200871956Y-68850543D01*
X200881921Y-68871613D01*
X200889773Y-68893557D01*
X200895437Y-68916166D01*
X200898856Y-68939221D01*
X200900000Y-68962500D01*
X200900000Y-69437500D01*
X200898856Y-69460779D01*
X200895437Y-69483834D01*
X200889773Y-69506443D01*
X200881921Y-69528387D01*
X200871956Y-69549457D01*
X200859974Y-69569448D01*
X200846090Y-69588168D01*
X200830438Y-69605438D01*
X200813168Y-69621090D01*
X200794448Y-69634974D01*
X200774457Y-69646956D01*
X200753387Y-69656921D01*
X200731443Y-69664773D01*
X200708834Y-69670437D01*
X200685779Y-69673856D01*
X200662500Y-69675000D01*
X200087500Y-69675000D01*
X200064221Y-69673856D01*
X200041166Y-69670437D01*
X200018557Y-69664773D01*
X199996613Y-69656921D01*
X199975543Y-69646956D01*
X199955552Y-69634974D01*
X199936832Y-69621090D01*
X199919562Y-69605438D01*
X199903910Y-69588168D01*
X199890026Y-69569448D01*
X199878044Y-69549457D01*
X199868079Y-69528387D01*
X199860227Y-69506443D01*
X199854563Y-69483834D01*
X199851144Y-69460779D01*
X199850000Y-69437500D01*
X199850000Y-68962500D01*
X199851144Y-68939221D01*
X199854563Y-68916166D01*
X199860227Y-68893557D01*
X199868079Y-68871613D01*
X199878044Y-68850543D01*
X199890026Y-68830552D01*
X199903910Y-68811832D01*
X199919562Y-68794562D01*
X199936832Y-68778910D01*
X199955552Y-68765026D01*
X199975543Y-68753044D01*
X199996613Y-68743079D01*
X200018557Y-68735227D01*
X200041166Y-68729563D01*
X200064221Y-68726144D01*
X200087500Y-68725000D01*
X200662500Y-68725000D01*
X200685779Y-68726144D01*
X200685779Y-68726144D01*
G37*
D11*
X200375000Y-69200000D03*
D10*
G36*
X198935779Y-68726144D02*
G01*
X198958834Y-68729563D01*
X198981443Y-68735227D01*
X199003387Y-68743079D01*
X199024457Y-68753044D01*
X199044448Y-68765026D01*
X199063168Y-68778910D01*
X199080438Y-68794562D01*
X199096090Y-68811832D01*
X199109974Y-68830552D01*
X199121956Y-68850543D01*
X199131921Y-68871613D01*
X199139773Y-68893557D01*
X199145437Y-68916166D01*
X199148856Y-68939221D01*
X199150000Y-68962500D01*
X199150000Y-69437500D01*
X199148856Y-69460779D01*
X199145437Y-69483834D01*
X199139773Y-69506443D01*
X199131921Y-69528387D01*
X199121956Y-69549457D01*
X199109974Y-69569448D01*
X199096090Y-69588168D01*
X199080438Y-69605438D01*
X199063168Y-69621090D01*
X199044448Y-69634974D01*
X199024457Y-69646956D01*
X199003387Y-69656921D01*
X198981443Y-69664773D01*
X198958834Y-69670437D01*
X198935779Y-69673856D01*
X198912500Y-69675000D01*
X198337500Y-69675000D01*
X198314221Y-69673856D01*
X198291166Y-69670437D01*
X198268557Y-69664773D01*
X198246613Y-69656921D01*
X198225543Y-69646956D01*
X198205552Y-69634974D01*
X198186832Y-69621090D01*
X198169562Y-69605438D01*
X198153910Y-69588168D01*
X198140026Y-69569448D01*
X198128044Y-69549457D01*
X198118079Y-69528387D01*
X198110227Y-69506443D01*
X198104563Y-69483834D01*
X198101144Y-69460779D01*
X198100000Y-69437500D01*
X198100000Y-68962500D01*
X198101144Y-68939221D01*
X198104563Y-68916166D01*
X198110227Y-68893557D01*
X198118079Y-68871613D01*
X198128044Y-68850543D01*
X198140026Y-68830552D01*
X198153910Y-68811832D01*
X198169562Y-68794562D01*
X198186832Y-68778910D01*
X198205552Y-68765026D01*
X198225543Y-68753044D01*
X198246613Y-68743079D01*
X198268557Y-68735227D01*
X198291166Y-68729563D01*
X198314221Y-68726144D01*
X198337500Y-68725000D01*
X198912500Y-68725000D01*
X198935779Y-68726144D01*
X198935779Y-68726144D01*
G37*
D11*
X198625000Y-69200000D03*
D10*
G36*
X223935779Y-68726144D02*
G01*
X223958834Y-68729563D01*
X223981443Y-68735227D01*
X224003387Y-68743079D01*
X224024457Y-68753044D01*
X224044448Y-68765026D01*
X224063168Y-68778910D01*
X224080438Y-68794562D01*
X224096090Y-68811832D01*
X224109974Y-68830552D01*
X224121956Y-68850543D01*
X224131921Y-68871613D01*
X224139773Y-68893557D01*
X224145437Y-68916166D01*
X224148856Y-68939221D01*
X224150000Y-68962500D01*
X224150000Y-69437500D01*
X224148856Y-69460779D01*
X224145437Y-69483834D01*
X224139773Y-69506443D01*
X224131921Y-69528387D01*
X224121956Y-69549457D01*
X224109974Y-69569448D01*
X224096090Y-69588168D01*
X224080438Y-69605438D01*
X224063168Y-69621090D01*
X224044448Y-69634974D01*
X224024457Y-69646956D01*
X224003387Y-69656921D01*
X223981443Y-69664773D01*
X223958834Y-69670437D01*
X223935779Y-69673856D01*
X223912500Y-69675000D01*
X223337500Y-69675000D01*
X223314221Y-69673856D01*
X223291166Y-69670437D01*
X223268557Y-69664773D01*
X223246613Y-69656921D01*
X223225543Y-69646956D01*
X223205552Y-69634974D01*
X223186832Y-69621090D01*
X223169562Y-69605438D01*
X223153910Y-69588168D01*
X223140026Y-69569448D01*
X223128044Y-69549457D01*
X223118079Y-69528387D01*
X223110227Y-69506443D01*
X223104563Y-69483834D01*
X223101144Y-69460779D01*
X223100000Y-69437500D01*
X223100000Y-68962500D01*
X223101144Y-68939221D01*
X223104563Y-68916166D01*
X223110227Y-68893557D01*
X223118079Y-68871613D01*
X223128044Y-68850543D01*
X223140026Y-68830552D01*
X223153910Y-68811832D01*
X223169562Y-68794562D01*
X223186832Y-68778910D01*
X223205552Y-68765026D01*
X223225543Y-68753044D01*
X223246613Y-68743079D01*
X223268557Y-68735227D01*
X223291166Y-68729563D01*
X223314221Y-68726144D01*
X223337500Y-68725000D01*
X223912500Y-68725000D01*
X223935779Y-68726144D01*
X223935779Y-68726144D01*
G37*
D11*
X223625000Y-69200000D03*
D10*
G36*
X225685779Y-68726144D02*
G01*
X225708834Y-68729563D01*
X225731443Y-68735227D01*
X225753387Y-68743079D01*
X225774457Y-68753044D01*
X225794448Y-68765026D01*
X225813168Y-68778910D01*
X225830438Y-68794562D01*
X225846090Y-68811832D01*
X225859974Y-68830552D01*
X225871956Y-68850543D01*
X225881921Y-68871613D01*
X225889773Y-68893557D01*
X225895437Y-68916166D01*
X225898856Y-68939221D01*
X225900000Y-68962500D01*
X225900000Y-69437500D01*
X225898856Y-69460779D01*
X225895437Y-69483834D01*
X225889773Y-69506443D01*
X225881921Y-69528387D01*
X225871956Y-69549457D01*
X225859974Y-69569448D01*
X225846090Y-69588168D01*
X225830438Y-69605438D01*
X225813168Y-69621090D01*
X225794448Y-69634974D01*
X225774457Y-69646956D01*
X225753387Y-69656921D01*
X225731443Y-69664773D01*
X225708834Y-69670437D01*
X225685779Y-69673856D01*
X225662500Y-69675000D01*
X225087500Y-69675000D01*
X225064221Y-69673856D01*
X225041166Y-69670437D01*
X225018557Y-69664773D01*
X224996613Y-69656921D01*
X224975543Y-69646956D01*
X224955552Y-69634974D01*
X224936832Y-69621090D01*
X224919562Y-69605438D01*
X224903910Y-69588168D01*
X224890026Y-69569448D01*
X224878044Y-69549457D01*
X224868079Y-69528387D01*
X224860227Y-69506443D01*
X224854563Y-69483834D01*
X224851144Y-69460779D01*
X224850000Y-69437500D01*
X224850000Y-68962500D01*
X224851144Y-68939221D01*
X224854563Y-68916166D01*
X224860227Y-68893557D01*
X224868079Y-68871613D01*
X224878044Y-68850543D01*
X224890026Y-68830552D01*
X224903910Y-68811832D01*
X224919562Y-68794562D01*
X224936832Y-68778910D01*
X224955552Y-68765026D01*
X224975543Y-68753044D01*
X224996613Y-68743079D01*
X225018557Y-68735227D01*
X225041166Y-68729563D01*
X225064221Y-68726144D01*
X225087500Y-68725000D01*
X225662500Y-68725000D01*
X225685779Y-68726144D01*
X225685779Y-68726144D01*
G37*
D11*
X225375000Y-69200000D03*
D10*
G36*
X154935779Y-55726144D02*
G01*
X154958834Y-55729563D01*
X154981443Y-55735227D01*
X155003387Y-55743079D01*
X155024457Y-55753044D01*
X155044448Y-55765026D01*
X155063168Y-55778910D01*
X155080438Y-55794562D01*
X155096090Y-55811832D01*
X155109974Y-55830552D01*
X155121956Y-55850543D01*
X155131921Y-55871613D01*
X155139773Y-55893557D01*
X155145437Y-55916166D01*
X155148856Y-55939221D01*
X155150000Y-55962500D01*
X155150000Y-56437500D01*
X155148856Y-56460779D01*
X155145437Y-56483834D01*
X155139773Y-56506443D01*
X155131921Y-56528387D01*
X155121956Y-56549457D01*
X155109974Y-56569448D01*
X155096090Y-56588168D01*
X155080438Y-56605438D01*
X155063168Y-56621090D01*
X155044448Y-56634974D01*
X155024457Y-56646956D01*
X155003387Y-56656921D01*
X154981443Y-56664773D01*
X154958834Y-56670437D01*
X154935779Y-56673856D01*
X154912500Y-56675000D01*
X154337500Y-56675000D01*
X154314221Y-56673856D01*
X154291166Y-56670437D01*
X154268557Y-56664773D01*
X154246613Y-56656921D01*
X154225543Y-56646956D01*
X154205552Y-56634974D01*
X154186832Y-56621090D01*
X154169562Y-56605438D01*
X154153910Y-56588168D01*
X154140026Y-56569448D01*
X154128044Y-56549457D01*
X154118079Y-56528387D01*
X154110227Y-56506443D01*
X154104563Y-56483834D01*
X154101144Y-56460779D01*
X154100000Y-56437500D01*
X154100000Y-55962500D01*
X154101144Y-55939221D01*
X154104563Y-55916166D01*
X154110227Y-55893557D01*
X154118079Y-55871613D01*
X154128044Y-55850543D01*
X154140026Y-55830552D01*
X154153910Y-55811832D01*
X154169562Y-55794562D01*
X154186832Y-55778910D01*
X154205552Y-55765026D01*
X154225543Y-55753044D01*
X154246613Y-55743079D01*
X154268557Y-55735227D01*
X154291166Y-55729563D01*
X154314221Y-55726144D01*
X154337500Y-55725000D01*
X154912500Y-55725000D01*
X154935779Y-55726144D01*
X154935779Y-55726144D01*
G37*
D11*
X154625000Y-56200000D03*
D10*
G36*
X156685779Y-55726144D02*
G01*
X156708834Y-55729563D01*
X156731443Y-55735227D01*
X156753387Y-55743079D01*
X156774457Y-55753044D01*
X156794448Y-55765026D01*
X156813168Y-55778910D01*
X156830438Y-55794562D01*
X156846090Y-55811832D01*
X156859974Y-55830552D01*
X156871956Y-55850543D01*
X156881921Y-55871613D01*
X156889773Y-55893557D01*
X156895437Y-55916166D01*
X156898856Y-55939221D01*
X156900000Y-55962500D01*
X156900000Y-56437500D01*
X156898856Y-56460779D01*
X156895437Y-56483834D01*
X156889773Y-56506443D01*
X156881921Y-56528387D01*
X156871956Y-56549457D01*
X156859974Y-56569448D01*
X156846090Y-56588168D01*
X156830438Y-56605438D01*
X156813168Y-56621090D01*
X156794448Y-56634974D01*
X156774457Y-56646956D01*
X156753387Y-56656921D01*
X156731443Y-56664773D01*
X156708834Y-56670437D01*
X156685779Y-56673856D01*
X156662500Y-56675000D01*
X156087500Y-56675000D01*
X156064221Y-56673856D01*
X156041166Y-56670437D01*
X156018557Y-56664773D01*
X155996613Y-56656921D01*
X155975543Y-56646956D01*
X155955552Y-56634974D01*
X155936832Y-56621090D01*
X155919562Y-56605438D01*
X155903910Y-56588168D01*
X155890026Y-56569448D01*
X155878044Y-56549457D01*
X155868079Y-56528387D01*
X155860227Y-56506443D01*
X155854563Y-56483834D01*
X155851144Y-56460779D01*
X155850000Y-56437500D01*
X155850000Y-55962500D01*
X155851144Y-55939221D01*
X155854563Y-55916166D01*
X155860227Y-55893557D01*
X155868079Y-55871613D01*
X155878044Y-55850543D01*
X155890026Y-55830552D01*
X155903910Y-55811832D01*
X155919562Y-55794562D01*
X155936832Y-55778910D01*
X155955552Y-55765026D01*
X155975543Y-55753044D01*
X155996613Y-55743079D01*
X156018557Y-55735227D01*
X156041166Y-55729563D01*
X156064221Y-55726144D01*
X156087500Y-55725000D01*
X156662500Y-55725000D01*
X156685779Y-55726144D01*
X156685779Y-55726144D01*
G37*
D11*
X156375000Y-56200000D03*
D10*
G36*
X181685779Y-55726144D02*
G01*
X181708834Y-55729563D01*
X181731443Y-55735227D01*
X181753387Y-55743079D01*
X181774457Y-55753044D01*
X181794448Y-55765026D01*
X181813168Y-55778910D01*
X181830438Y-55794562D01*
X181846090Y-55811832D01*
X181859974Y-55830552D01*
X181871956Y-55850543D01*
X181881921Y-55871613D01*
X181889773Y-55893557D01*
X181895437Y-55916166D01*
X181898856Y-55939221D01*
X181900000Y-55962500D01*
X181900000Y-56437500D01*
X181898856Y-56460779D01*
X181895437Y-56483834D01*
X181889773Y-56506443D01*
X181881921Y-56528387D01*
X181871956Y-56549457D01*
X181859974Y-56569448D01*
X181846090Y-56588168D01*
X181830438Y-56605438D01*
X181813168Y-56621090D01*
X181794448Y-56634974D01*
X181774457Y-56646956D01*
X181753387Y-56656921D01*
X181731443Y-56664773D01*
X181708834Y-56670437D01*
X181685779Y-56673856D01*
X181662500Y-56675000D01*
X181087500Y-56675000D01*
X181064221Y-56673856D01*
X181041166Y-56670437D01*
X181018557Y-56664773D01*
X180996613Y-56656921D01*
X180975543Y-56646956D01*
X180955552Y-56634974D01*
X180936832Y-56621090D01*
X180919562Y-56605438D01*
X180903910Y-56588168D01*
X180890026Y-56569448D01*
X180878044Y-56549457D01*
X180868079Y-56528387D01*
X180860227Y-56506443D01*
X180854563Y-56483834D01*
X180851144Y-56460779D01*
X180850000Y-56437500D01*
X180850000Y-55962500D01*
X180851144Y-55939221D01*
X180854563Y-55916166D01*
X180860227Y-55893557D01*
X180868079Y-55871613D01*
X180878044Y-55850543D01*
X180890026Y-55830552D01*
X180903910Y-55811832D01*
X180919562Y-55794562D01*
X180936832Y-55778910D01*
X180955552Y-55765026D01*
X180975543Y-55753044D01*
X180996613Y-55743079D01*
X181018557Y-55735227D01*
X181041166Y-55729563D01*
X181064221Y-55726144D01*
X181087500Y-55725000D01*
X181662500Y-55725000D01*
X181685779Y-55726144D01*
X181685779Y-55726144D01*
G37*
D11*
X181375000Y-56200000D03*
D10*
G36*
X179935779Y-55726144D02*
G01*
X179958834Y-55729563D01*
X179981443Y-55735227D01*
X180003387Y-55743079D01*
X180024457Y-55753044D01*
X180044448Y-55765026D01*
X180063168Y-55778910D01*
X180080438Y-55794562D01*
X180096090Y-55811832D01*
X180109974Y-55830552D01*
X180121956Y-55850543D01*
X180131921Y-55871613D01*
X180139773Y-55893557D01*
X180145437Y-55916166D01*
X180148856Y-55939221D01*
X180150000Y-55962500D01*
X180150000Y-56437500D01*
X180148856Y-56460779D01*
X180145437Y-56483834D01*
X180139773Y-56506443D01*
X180131921Y-56528387D01*
X180121956Y-56549457D01*
X180109974Y-56569448D01*
X180096090Y-56588168D01*
X180080438Y-56605438D01*
X180063168Y-56621090D01*
X180044448Y-56634974D01*
X180024457Y-56646956D01*
X180003387Y-56656921D01*
X179981443Y-56664773D01*
X179958834Y-56670437D01*
X179935779Y-56673856D01*
X179912500Y-56675000D01*
X179337500Y-56675000D01*
X179314221Y-56673856D01*
X179291166Y-56670437D01*
X179268557Y-56664773D01*
X179246613Y-56656921D01*
X179225543Y-56646956D01*
X179205552Y-56634974D01*
X179186832Y-56621090D01*
X179169562Y-56605438D01*
X179153910Y-56588168D01*
X179140026Y-56569448D01*
X179128044Y-56549457D01*
X179118079Y-56528387D01*
X179110227Y-56506443D01*
X179104563Y-56483834D01*
X179101144Y-56460779D01*
X179100000Y-56437500D01*
X179100000Y-55962500D01*
X179101144Y-55939221D01*
X179104563Y-55916166D01*
X179110227Y-55893557D01*
X179118079Y-55871613D01*
X179128044Y-55850543D01*
X179140026Y-55830552D01*
X179153910Y-55811832D01*
X179169562Y-55794562D01*
X179186832Y-55778910D01*
X179205552Y-55765026D01*
X179225543Y-55753044D01*
X179246613Y-55743079D01*
X179268557Y-55735227D01*
X179291166Y-55729563D01*
X179314221Y-55726144D01*
X179337500Y-55725000D01*
X179912500Y-55725000D01*
X179935779Y-55726144D01*
X179935779Y-55726144D01*
G37*
D11*
X179625000Y-56200000D03*
D10*
G36*
X198935779Y-56726144D02*
G01*
X198958834Y-56729563D01*
X198981443Y-56735227D01*
X199003387Y-56743079D01*
X199024457Y-56753044D01*
X199044448Y-56765026D01*
X199063168Y-56778910D01*
X199080438Y-56794562D01*
X199096090Y-56811832D01*
X199109974Y-56830552D01*
X199121956Y-56850543D01*
X199131921Y-56871613D01*
X199139773Y-56893557D01*
X199145437Y-56916166D01*
X199148856Y-56939221D01*
X199150000Y-56962500D01*
X199150000Y-57437500D01*
X199148856Y-57460779D01*
X199145437Y-57483834D01*
X199139773Y-57506443D01*
X199131921Y-57528387D01*
X199121956Y-57549457D01*
X199109974Y-57569448D01*
X199096090Y-57588168D01*
X199080438Y-57605438D01*
X199063168Y-57621090D01*
X199044448Y-57634974D01*
X199024457Y-57646956D01*
X199003387Y-57656921D01*
X198981443Y-57664773D01*
X198958834Y-57670437D01*
X198935779Y-57673856D01*
X198912500Y-57675000D01*
X198337500Y-57675000D01*
X198314221Y-57673856D01*
X198291166Y-57670437D01*
X198268557Y-57664773D01*
X198246613Y-57656921D01*
X198225543Y-57646956D01*
X198205552Y-57634974D01*
X198186832Y-57621090D01*
X198169562Y-57605438D01*
X198153910Y-57588168D01*
X198140026Y-57569448D01*
X198128044Y-57549457D01*
X198118079Y-57528387D01*
X198110227Y-57506443D01*
X198104563Y-57483834D01*
X198101144Y-57460779D01*
X198100000Y-57437500D01*
X198100000Y-56962500D01*
X198101144Y-56939221D01*
X198104563Y-56916166D01*
X198110227Y-56893557D01*
X198118079Y-56871613D01*
X198128044Y-56850543D01*
X198140026Y-56830552D01*
X198153910Y-56811832D01*
X198169562Y-56794562D01*
X198186832Y-56778910D01*
X198205552Y-56765026D01*
X198225543Y-56753044D01*
X198246613Y-56743079D01*
X198268557Y-56735227D01*
X198291166Y-56729563D01*
X198314221Y-56726144D01*
X198337500Y-56725000D01*
X198912500Y-56725000D01*
X198935779Y-56726144D01*
X198935779Y-56726144D01*
G37*
D11*
X198625000Y-57200000D03*
D10*
G36*
X200685779Y-56726144D02*
G01*
X200708834Y-56729563D01*
X200731443Y-56735227D01*
X200753387Y-56743079D01*
X200774457Y-56753044D01*
X200794448Y-56765026D01*
X200813168Y-56778910D01*
X200830438Y-56794562D01*
X200846090Y-56811832D01*
X200859974Y-56830552D01*
X200871956Y-56850543D01*
X200881921Y-56871613D01*
X200889773Y-56893557D01*
X200895437Y-56916166D01*
X200898856Y-56939221D01*
X200900000Y-56962500D01*
X200900000Y-57437500D01*
X200898856Y-57460779D01*
X200895437Y-57483834D01*
X200889773Y-57506443D01*
X200881921Y-57528387D01*
X200871956Y-57549457D01*
X200859974Y-57569448D01*
X200846090Y-57588168D01*
X200830438Y-57605438D01*
X200813168Y-57621090D01*
X200794448Y-57634974D01*
X200774457Y-57646956D01*
X200753387Y-57656921D01*
X200731443Y-57664773D01*
X200708834Y-57670437D01*
X200685779Y-57673856D01*
X200662500Y-57675000D01*
X200087500Y-57675000D01*
X200064221Y-57673856D01*
X200041166Y-57670437D01*
X200018557Y-57664773D01*
X199996613Y-57656921D01*
X199975543Y-57646956D01*
X199955552Y-57634974D01*
X199936832Y-57621090D01*
X199919562Y-57605438D01*
X199903910Y-57588168D01*
X199890026Y-57569448D01*
X199878044Y-57549457D01*
X199868079Y-57528387D01*
X199860227Y-57506443D01*
X199854563Y-57483834D01*
X199851144Y-57460779D01*
X199850000Y-57437500D01*
X199850000Y-56962500D01*
X199851144Y-56939221D01*
X199854563Y-56916166D01*
X199860227Y-56893557D01*
X199868079Y-56871613D01*
X199878044Y-56850543D01*
X199890026Y-56830552D01*
X199903910Y-56811832D01*
X199919562Y-56794562D01*
X199936832Y-56778910D01*
X199955552Y-56765026D01*
X199975543Y-56753044D01*
X199996613Y-56743079D01*
X200018557Y-56735227D01*
X200041166Y-56729563D01*
X200064221Y-56726144D01*
X200087500Y-56725000D01*
X200662500Y-56725000D01*
X200685779Y-56726144D01*
X200685779Y-56726144D01*
G37*
D11*
X200375000Y-57200000D03*
D10*
G36*
X225685779Y-56726144D02*
G01*
X225708834Y-56729563D01*
X225731443Y-56735227D01*
X225753387Y-56743079D01*
X225774457Y-56753044D01*
X225794448Y-56765026D01*
X225813168Y-56778910D01*
X225830438Y-56794562D01*
X225846090Y-56811832D01*
X225859974Y-56830552D01*
X225871956Y-56850543D01*
X225881921Y-56871613D01*
X225889773Y-56893557D01*
X225895437Y-56916166D01*
X225898856Y-56939221D01*
X225900000Y-56962500D01*
X225900000Y-57437500D01*
X225898856Y-57460779D01*
X225895437Y-57483834D01*
X225889773Y-57506443D01*
X225881921Y-57528387D01*
X225871956Y-57549457D01*
X225859974Y-57569448D01*
X225846090Y-57588168D01*
X225830438Y-57605438D01*
X225813168Y-57621090D01*
X225794448Y-57634974D01*
X225774457Y-57646956D01*
X225753387Y-57656921D01*
X225731443Y-57664773D01*
X225708834Y-57670437D01*
X225685779Y-57673856D01*
X225662500Y-57675000D01*
X225087500Y-57675000D01*
X225064221Y-57673856D01*
X225041166Y-57670437D01*
X225018557Y-57664773D01*
X224996613Y-57656921D01*
X224975543Y-57646956D01*
X224955552Y-57634974D01*
X224936832Y-57621090D01*
X224919562Y-57605438D01*
X224903910Y-57588168D01*
X224890026Y-57569448D01*
X224878044Y-57549457D01*
X224868079Y-57528387D01*
X224860227Y-57506443D01*
X224854563Y-57483834D01*
X224851144Y-57460779D01*
X224850000Y-57437500D01*
X224850000Y-56962500D01*
X224851144Y-56939221D01*
X224854563Y-56916166D01*
X224860227Y-56893557D01*
X224868079Y-56871613D01*
X224878044Y-56850543D01*
X224890026Y-56830552D01*
X224903910Y-56811832D01*
X224919562Y-56794562D01*
X224936832Y-56778910D01*
X224955552Y-56765026D01*
X224975543Y-56753044D01*
X224996613Y-56743079D01*
X225018557Y-56735227D01*
X225041166Y-56729563D01*
X225064221Y-56726144D01*
X225087500Y-56725000D01*
X225662500Y-56725000D01*
X225685779Y-56726144D01*
X225685779Y-56726144D01*
G37*
D11*
X225375000Y-57200000D03*
D10*
G36*
X223935779Y-56726144D02*
G01*
X223958834Y-56729563D01*
X223981443Y-56735227D01*
X224003387Y-56743079D01*
X224024457Y-56753044D01*
X224044448Y-56765026D01*
X224063168Y-56778910D01*
X224080438Y-56794562D01*
X224096090Y-56811832D01*
X224109974Y-56830552D01*
X224121956Y-56850543D01*
X224131921Y-56871613D01*
X224139773Y-56893557D01*
X224145437Y-56916166D01*
X224148856Y-56939221D01*
X224150000Y-56962500D01*
X224150000Y-57437500D01*
X224148856Y-57460779D01*
X224145437Y-57483834D01*
X224139773Y-57506443D01*
X224131921Y-57528387D01*
X224121956Y-57549457D01*
X224109974Y-57569448D01*
X224096090Y-57588168D01*
X224080438Y-57605438D01*
X224063168Y-57621090D01*
X224044448Y-57634974D01*
X224024457Y-57646956D01*
X224003387Y-57656921D01*
X223981443Y-57664773D01*
X223958834Y-57670437D01*
X223935779Y-57673856D01*
X223912500Y-57675000D01*
X223337500Y-57675000D01*
X223314221Y-57673856D01*
X223291166Y-57670437D01*
X223268557Y-57664773D01*
X223246613Y-57656921D01*
X223225543Y-57646956D01*
X223205552Y-57634974D01*
X223186832Y-57621090D01*
X223169562Y-57605438D01*
X223153910Y-57588168D01*
X223140026Y-57569448D01*
X223128044Y-57549457D01*
X223118079Y-57528387D01*
X223110227Y-57506443D01*
X223104563Y-57483834D01*
X223101144Y-57460779D01*
X223100000Y-57437500D01*
X223100000Y-56962500D01*
X223101144Y-56939221D01*
X223104563Y-56916166D01*
X223110227Y-56893557D01*
X223118079Y-56871613D01*
X223128044Y-56850543D01*
X223140026Y-56830552D01*
X223153910Y-56811832D01*
X223169562Y-56794562D01*
X223186832Y-56778910D01*
X223205552Y-56765026D01*
X223225543Y-56753044D01*
X223246613Y-56743079D01*
X223268557Y-56735227D01*
X223291166Y-56729563D01*
X223314221Y-56726144D01*
X223337500Y-56725000D01*
X223912500Y-56725000D01*
X223935779Y-56726144D01*
X223935779Y-56726144D01*
G37*
D11*
X223625000Y-57200000D03*
M02*
