G04 #@! TF.GenerationSoftware,KiCad,Pcbnew,(5.1.4)-1*
G04 #@! TF.CreationDate,2019-11-16T11:12:50+01:00*
G04 #@! TF.ProjectId,fpga_pedal,66706761-5f70-4656-9461-6c2e6b696361,rev?*
G04 #@! TF.SameCoordinates,Original*
G04 #@! TF.FileFunction,Legend,Bot*
G04 #@! TF.FilePolarity,Positive*
%FSLAX46Y46*%
G04 Gerber Fmt 4.6, Leading zero omitted, Abs format (unit mm)*
G04 Created by KiCad (PCBNEW (5.1.4)-1) date 2019-11-16 11:12:50*
%MOMM*%
%LPD*%
G04 APERTURE LIST*
%ADD10C,0.120000*%
%ADD11C,0.150000*%
G04 APERTURE END LIST*
D10*
X224671267Y-62690000D02*
X224328733Y-62690000D01*
X224671267Y-63710000D02*
X224328733Y-63710000D01*
X215420000Y-125530000D02*
X215420000Y-120330000D01*
X209770000Y-125530000D02*
X210790000Y-125530000D01*
X199610000Y-120330000D02*
X200630000Y-120330000D01*
X202150000Y-125530000D02*
X203170000Y-125530000D01*
X212310000Y-125530000D02*
X213330000Y-125530000D01*
X202150000Y-120330000D02*
X203170000Y-120330000D01*
X194980000Y-120330000D02*
X195550000Y-120330000D01*
X194980000Y-125530000D02*
X195550000Y-125530000D01*
X209770000Y-120330000D02*
X210790000Y-120330000D01*
X199610000Y-125530000D02*
X200630000Y-125530000D01*
X197070000Y-125530000D02*
X198090000Y-125530000D01*
X207230000Y-120330000D02*
X208250000Y-120330000D01*
X204690000Y-125530000D02*
X205710000Y-125530000D01*
X214850000Y-120330000D02*
X215420000Y-120330000D01*
X207230000Y-125530000D02*
X208250000Y-125530000D01*
X197070000Y-120330000D02*
X198090000Y-120330000D01*
X194980000Y-125530000D02*
X194980000Y-120330000D01*
X214850000Y-125530000D02*
X215420000Y-125530000D01*
X204690000Y-120330000D02*
X205710000Y-120330000D01*
X212310000Y-120330000D02*
X213330000Y-120330000D01*
X232550000Y-125530000D02*
X233120000Y-125530000D01*
X219850000Y-125530000D02*
X220870000Y-125530000D01*
X222390000Y-125530000D02*
X223410000Y-125530000D01*
X222390000Y-120330000D02*
X223410000Y-120330000D01*
X224930000Y-125530000D02*
X225950000Y-125530000D01*
X224930000Y-120330000D02*
X225950000Y-120330000D01*
X232550000Y-120330000D02*
X233120000Y-120330000D01*
X219850000Y-120330000D02*
X220870000Y-120330000D01*
X217760000Y-120330000D02*
X218330000Y-120330000D01*
X217760000Y-125530000D02*
X218330000Y-125530000D01*
X217760000Y-125530000D02*
X217760000Y-120330000D01*
X233120000Y-125530000D02*
X233120000Y-120330000D01*
X227470000Y-125530000D02*
X228490000Y-125530000D01*
X230010000Y-125530000D02*
X231030000Y-125530000D01*
X230010000Y-120330000D02*
X231030000Y-120330000D01*
X227470000Y-120330000D02*
X228490000Y-120330000D01*
X185820000Y-79520000D02*
X186390000Y-79520000D01*
X195530000Y-74320000D02*
X196550000Y-74320000D01*
X198070000Y-74320000D02*
X199090000Y-74320000D01*
X200610000Y-79520000D02*
X201630000Y-79520000D01*
X200610000Y-74320000D02*
X201630000Y-74320000D01*
X210770000Y-79520000D02*
X211340000Y-79520000D01*
X187910000Y-79520000D02*
X188930000Y-79520000D01*
X190450000Y-79520000D02*
X191470000Y-79520000D01*
X192990000Y-79520000D02*
X194010000Y-79520000D01*
X192990000Y-74320000D02*
X194010000Y-74320000D01*
X205690000Y-79520000D02*
X206710000Y-79520000D01*
X211340000Y-79520000D02*
X211340000Y-74320000D01*
X208230000Y-74320000D02*
X209250000Y-74320000D01*
X185820000Y-79520000D02*
X185820000Y-74320000D01*
X185820000Y-74320000D02*
X186390000Y-74320000D01*
X190450000Y-74320000D02*
X191470000Y-74320000D01*
X195530000Y-79520000D02*
X196550000Y-79520000D01*
X205690000Y-74320000D02*
X206710000Y-74320000D01*
X208230000Y-79520000D02*
X209250000Y-79520000D01*
X203150000Y-74320000D02*
X204170000Y-74320000D01*
X198070000Y-79520000D02*
X199090000Y-79520000D01*
X203150000Y-79520000D02*
X204170000Y-79520000D01*
X210770000Y-74320000D02*
X211340000Y-74320000D01*
X187910000Y-74320000D02*
X188930000Y-74320000D01*
X232550000Y-74320000D02*
X233120000Y-74320000D01*
X224930000Y-74320000D02*
X225950000Y-74320000D01*
X214770000Y-79520000D02*
X215790000Y-79520000D01*
X227470000Y-74320000D02*
X228490000Y-74320000D01*
X230010000Y-74320000D02*
X231030000Y-74320000D01*
X224930000Y-79520000D02*
X225950000Y-79520000D01*
X214770000Y-74320000D02*
X215790000Y-74320000D01*
X217310000Y-79520000D02*
X218330000Y-79520000D01*
X219850000Y-74320000D02*
X220870000Y-74320000D01*
X230010000Y-79520000D02*
X231030000Y-79520000D01*
X222390000Y-74320000D02*
X223410000Y-74320000D01*
X227470000Y-79520000D02*
X228490000Y-79520000D01*
X233120000Y-79520000D02*
X233120000Y-74320000D01*
X212680000Y-74320000D02*
X213250000Y-74320000D01*
X212680000Y-79520000D02*
X212680000Y-74320000D01*
X212680000Y-79520000D02*
X213250000Y-79520000D01*
X232550000Y-79520000D02*
X233120000Y-79520000D01*
X217310000Y-74320000D02*
X218330000Y-74320000D01*
X219850000Y-79520000D02*
X220870000Y-79520000D01*
X222390000Y-79520000D02*
X223410000Y-79520000D01*
X151928733Y-80290000D02*
X152271267Y-80290000D01*
X151928733Y-81310000D02*
X152271267Y-81310000D01*
X146510000Y-83968733D02*
X146510000Y-84311267D01*
X145490000Y-83968733D02*
X145490000Y-84311267D01*
X158210000Y-83918733D02*
X158210000Y-84261267D01*
X157190000Y-83918733D02*
X157190000Y-84261267D01*
X164210000Y-83918733D02*
X164210000Y-84261267D01*
X163190000Y-83918733D02*
X163190000Y-84261267D01*
X151928733Y-78190000D02*
X152271267Y-78190000D01*
X151928733Y-79210000D02*
X152271267Y-79210000D01*
X161110000Y-83928733D02*
X161110000Y-84271267D01*
X160090000Y-83928733D02*
X160090000Y-84271267D01*
X148490000Y-84261267D02*
X148490000Y-83918733D01*
X149510000Y-84261267D02*
X149510000Y-83918733D01*
X199671267Y-65690000D02*
X199328733Y-65690000D01*
X199671267Y-66710000D02*
X199328733Y-66710000D01*
X224671267Y-66710000D02*
X224328733Y-66710000D01*
X224671267Y-65690000D02*
X224328733Y-65690000D01*
X199671267Y-63710000D02*
X199328733Y-63710000D01*
X199671267Y-62690000D02*
X199328733Y-62690000D01*
X155328733Y-68690000D02*
X155671267Y-68690000D01*
X155328733Y-69710000D02*
X155671267Y-69710000D01*
X180328733Y-68690000D02*
X180671267Y-68690000D01*
X180328733Y-69710000D02*
X180671267Y-69710000D01*
X199328733Y-59690000D02*
X199671267Y-59690000D01*
X199328733Y-60710000D02*
X199671267Y-60710000D01*
X224328733Y-60710000D02*
X224671267Y-60710000D01*
X224328733Y-59690000D02*
X224671267Y-59690000D01*
X147671267Y-68690000D02*
X147328733Y-68690000D01*
X147671267Y-69710000D02*
X147328733Y-69710000D01*
X172671267Y-68690000D02*
X172328733Y-68690000D01*
X172671267Y-69710000D02*
X172328733Y-69710000D01*
X199671267Y-68690000D02*
X199328733Y-68690000D01*
X199671267Y-69710000D02*
X199328733Y-69710000D01*
X224671267Y-69710000D02*
X224328733Y-69710000D01*
X224671267Y-68690000D02*
X224328733Y-68690000D01*
X155328733Y-56710000D02*
X155671267Y-56710000D01*
X155328733Y-55690000D02*
X155671267Y-55690000D01*
X180328733Y-55690000D02*
X180671267Y-55690000D01*
X180328733Y-56710000D02*
X180671267Y-56710000D01*
X199328733Y-57710000D02*
X199671267Y-57710000D01*
X199328733Y-56690000D02*
X199671267Y-56690000D01*
X224328733Y-56690000D02*
X224671267Y-56690000D01*
X224328733Y-57710000D02*
X224671267Y-57710000D01*
D11*
X225142857Y-62222380D02*
X225476190Y-61746190D01*
X225714285Y-62222380D02*
X225714285Y-61222380D01*
X225333333Y-61222380D01*
X225238095Y-61270000D01*
X225190476Y-61317619D01*
X225142857Y-61412857D01*
X225142857Y-61555714D01*
X225190476Y-61650952D01*
X225238095Y-61698571D01*
X225333333Y-61746190D01*
X225714285Y-61746190D01*
X224285714Y-61555714D02*
X224285714Y-62222380D01*
X224523809Y-61174761D02*
X224761904Y-61889047D01*
X224142857Y-61889047D01*
X223857142Y-61222380D02*
X223238095Y-61222380D01*
X223571428Y-61603333D01*
X223428571Y-61603333D01*
X223333333Y-61650952D01*
X223285714Y-61698571D01*
X223238095Y-61793809D01*
X223238095Y-62031904D01*
X223285714Y-62127142D01*
X223333333Y-62174761D01*
X223428571Y-62222380D01*
X223714285Y-62222380D01*
X223809523Y-62174761D01*
X223857142Y-62127142D01*
X237012380Y-129676666D02*
X237726666Y-129676666D01*
X237869523Y-129629047D01*
X237964761Y-129533809D01*
X238012380Y-129390952D01*
X238012380Y-129295714D01*
X238012380Y-130676666D02*
X238012380Y-130105238D01*
X238012380Y-130390952D02*
X237012380Y-130390952D01*
X237155238Y-130295714D01*
X237250476Y-130200476D01*
X237298095Y-130105238D01*
X234522380Y-121591904D02*
X235331904Y-121591904D01*
X235427142Y-121639523D01*
X235474761Y-121687142D01*
X235522380Y-121782380D01*
X235522380Y-121972857D01*
X235474761Y-122068095D01*
X235427142Y-122115714D01*
X235331904Y-122163333D01*
X234522380Y-122163333D01*
X235522380Y-123163333D02*
X235522380Y-122591904D01*
X235522380Y-122877619D02*
X234522380Y-122877619D01*
X234665238Y-122782380D01*
X234760476Y-122687142D01*
X234808095Y-122591904D01*
X234617619Y-123544285D02*
X234570000Y-123591904D01*
X234522380Y-123687142D01*
X234522380Y-123925238D01*
X234570000Y-124020476D01*
X234617619Y-124068095D01*
X234712857Y-124115714D01*
X234808095Y-124115714D01*
X234950952Y-124068095D01*
X235522380Y-123496666D01*
X235522380Y-124115714D01*
X152742857Y-82657142D02*
X152790476Y-82704761D01*
X152933333Y-82752380D01*
X153028571Y-82752380D01*
X153171428Y-82704761D01*
X153266666Y-82609523D01*
X153314285Y-82514285D01*
X153361904Y-82323809D01*
X153361904Y-82180952D01*
X153314285Y-81990476D01*
X153266666Y-81895238D01*
X153171428Y-81800000D01*
X153028571Y-81752380D01*
X152933333Y-81752380D01*
X152790476Y-81800000D01*
X152742857Y-81847619D01*
X151838095Y-81752380D02*
X152314285Y-81752380D01*
X152361904Y-82228571D01*
X152314285Y-82180952D01*
X152219047Y-82133333D01*
X151980952Y-82133333D01*
X151885714Y-82180952D01*
X151838095Y-82228571D01*
X151790476Y-82323809D01*
X151790476Y-82561904D01*
X151838095Y-82657142D01*
X151885714Y-82704761D01*
X151980952Y-82752380D01*
X152219047Y-82752380D01*
X152314285Y-82704761D01*
X152361904Y-82657142D01*
X151314285Y-82752380D02*
X151123809Y-82752380D01*
X151028571Y-82704761D01*
X150980952Y-82657142D01*
X150885714Y-82514285D01*
X150838095Y-82323809D01*
X150838095Y-81942857D01*
X150885714Y-81847619D01*
X150933333Y-81800000D01*
X151028571Y-81752380D01*
X151219047Y-81752380D01*
X151314285Y-81800000D01*
X151361904Y-81847619D01*
X151409523Y-81942857D01*
X151409523Y-82180952D01*
X151361904Y-82276190D01*
X151314285Y-82323809D01*
X151219047Y-82371428D01*
X151028571Y-82371428D01*
X150933333Y-82323809D01*
X150885714Y-82276190D01*
X150838095Y-82180952D01*
X145002380Y-83347142D02*
X144526190Y-83013809D01*
X145002380Y-82775714D02*
X144002380Y-82775714D01*
X144002380Y-83156666D01*
X144050000Y-83251904D01*
X144097619Y-83299523D01*
X144192857Y-83347142D01*
X144335714Y-83347142D01*
X144430952Y-83299523D01*
X144478571Y-83251904D01*
X144526190Y-83156666D01*
X144526190Y-82775714D01*
X145002380Y-84299523D02*
X145002380Y-83728095D01*
X145002380Y-84013809D02*
X144002380Y-84013809D01*
X144145238Y-83918571D01*
X144240476Y-83823333D01*
X144288095Y-83728095D01*
X144335714Y-85156666D02*
X145002380Y-85156666D01*
X143954761Y-84918571D02*
X144669047Y-84680476D01*
X144669047Y-85299523D01*
X159652380Y-83447142D02*
X159176190Y-83113809D01*
X159652380Y-82875714D02*
X158652380Y-82875714D01*
X158652380Y-83256666D01*
X158700000Y-83351904D01*
X158747619Y-83399523D01*
X158842857Y-83447142D01*
X158985714Y-83447142D01*
X159080952Y-83399523D01*
X159128571Y-83351904D01*
X159176190Y-83256666D01*
X159176190Y-82875714D01*
X159652380Y-84399523D02*
X159652380Y-83828095D01*
X159652380Y-84113809D02*
X158652380Y-84113809D01*
X158795238Y-84018571D01*
X158890476Y-83923333D01*
X158938095Y-83828095D01*
X158747619Y-84780476D02*
X158700000Y-84828095D01*
X158652380Y-84923333D01*
X158652380Y-85161428D01*
X158700000Y-85256666D01*
X158747619Y-85304285D01*
X158842857Y-85351904D01*
X158938095Y-85351904D01*
X159080952Y-85304285D01*
X159652380Y-84732857D01*
X159652380Y-85351904D01*
X165652380Y-83447142D02*
X165176190Y-83113809D01*
X165652380Y-82875714D02*
X164652380Y-82875714D01*
X164652380Y-83256666D01*
X164700000Y-83351904D01*
X164747619Y-83399523D01*
X164842857Y-83447142D01*
X164985714Y-83447142D01*
X165080952Y-83399523D01*
X165128571Y-83351904D01*
X165176190Y-83256666D01*
X165176190Y-82875714D01*
X165652380Y-84399523D02*
X165652380Y-83828095D01*
X165652380Y-84113809D02*
X164652380Y-84113809D01*
X164795238Y-84018571D01*
X164890476Y-83923333D01*
X164938095Y-83828095D01*
X165652380Y-85351904D02*
X165652380Y-84780476D01*
X165652380Y-85066190D02*
X164652380Y-85066190D01*
X164795238Y-84970952D01*
X164890476Y-84875714D01*
X164938095Y-84780476D01*
X152742857Y-77557142D02*
X152790476Y-77604761D01*
X152933333Y-77652380D01*
X153028571Y-77652380D01*
X153171428Y-77604761D01*
X153266666Y-77509523D01*
X153314285Y-77414285D01*
X153361904Y-77223809D01*
X153361904Y-77080952D01*
X153314285Y-76890476D01*
X153266666Y-76795238D01*
X153171428Y-76700000D01*
X153028571Y-76652380D01*
X152933333Y-76652380D01*
X152790476Y-76700000D01*
X152742857Y-76747619D01*
X151885714Y-76652380D02*
X152076190Y-76652380D01*
X152171428Y-76700000D01*
X152219047Y-76747619D01*
X152314285Y-76890476D01*
X152361904Y-77080952D01*
X152361904Y-77461904D01*
X152314285Y-77557142D01*
X152266666Y-77604761D01*
X152171428Y-77652380D01*
X151980952Y-77652380D01*
X151885714Y-77604761D01*
X151838095Y-77557142D01*
X151790476Y-77461904D01*
X151790476Y-77223809D01*
X151838095Y-77128571D01*
X151885714Y-77080952D01*
X151980952Y-77033333D01*
X152171428Y-77033333D01*
X152266666Y-77080952D01*
X152314285Y-77128571D01*
X152361904Y-77223809D01*
X151457142Y-76652380D02*
X150838095Y-76652380D01*
X151171428Y-77033333D01*
X151028571Y-77033333D01*
X150933333Y-77080952D01*
X150885714Y-77128571D01*
X150838095Y-77223809D01*
X150838095Y-77461904D01*
X150885714Y-77557142D01*
X150933333Y-77604761D01*
X151028571Y-77652380D01*
X151314285Y-77652380D01*
X151409523Y-77604761D01*
X151457142Y-77557142D01*
X162557142Y-83457142D02*
X162604761Y-83409523D01*
X162652380Y-83266666D01*
X162652380Y-83171428D01*
X162604761Y-83028571D01*
X162509523Y-82933333D01*
X162414285Y-82885714D01*
X162223809Y-82838095D01*
X162080952Y-82838095D01*
X161890476Y-82885714D01*
X161795238Y-82933333D01*
X161700000Y-83028571D01*
X161652380Y-83171428D01*
X161652380Y-83266666D01*
X161700000Y-83409523D01*
X161747619Y-83457142D01*
X161652380Y-84314285D02*
X161652380Y-84123809D01*
X161700000Y-84028571D01*
X161747619Y-83980952D01*
X161890476Y-83885714D01*
X162080952Y-83838095D01*
X162461904Y-83838095D01*
X162557142Y-83885714D01*
X162604761Y-83933333D01*
X162652380Y-84028571D01*
X162652380Y-84219047D01*
X162604761Y-84314285D01*
X162557142Y-84361904D01*
X162461904Y-84409523D01*
X162223809Y-84409523D01*
X162128571Y-84361904D01*
X162080952Y-84314285D01*
X162033333Y-84219047D01*
X162033333Y-84028571D01*
X162080952Y-83933333D01*
X162128571Y-83885714D01*
X162223809Y-83838095D01*
X162652380Y-85361904D02*
X162652380Y-84790476D01*
X162652380Y-85076190D02*
X161652380Y-85076190D01*
X161795238Y-84980952D01*
X161890476Y-84885714D01*
X161938095Y-84790476D01*
X147957142Y-83447142D02*
X148004761Y-83399523D01*
X148052380Y-83256666D01*
X148052380Y-83161428D01*
X148004761Y-83018571D01*
X147909523Y-82923333D01*
X147814285Y-82875714D01*
X147623809Y-82828095D01*
X147480952Y-82828095D01*
X147290476Y-82875714D01*
X147195238Y-82923333D01*
X147100000Y-83018571D01*
X147052380Y-83161428D01*
X147052380Y-83256666D01*
X147100000Y-83399523D01*
X147147619Y-83447142D01*
X147052380Y-84351904D02*
X147052380Y-83875714D01*
X147528571Y-83828095D01*
X147480952Y-83875714D01*
X147433333Y-83970952D01*
X147433333Y-84209047D01*
X147480952Y-84304285D01*
X147528571Y-84351904D01*
X147623809Y-84399523D01*
X147861904Y-84399523D01*
X147957142Y-84351904D01*
X148004761Y-84304285D01*
X148052380Y-84209047D01*
X148052380Y-83970952D01*
X148004761Y-83875714D01*
X147957142Y-83828095D01*
X147385714Y-85256666D02*
X148052380Y-85256666D01*
X147004761Y-85018571D02*
X147719047Y-84780476D01*
X147719047Y-85399523D01*
X200142857Y-65127142D02*
X200190476Y-65174761D01*
X200333333Y-65222380D01*
X200428571Y-65222380D01*
X200571428Y-65174761D01*
X200666666Y-65079523D01*
X200714285Y-64984285D01*
X200761904Y-64793809D01*
X200761904Y-64650952D01*
X200714285Y-64460476D01*
X200666666Y-64365238D01*
X200571428Y-64270000D01*
X200428571Y-64222380D01*
X200333333Y-64222380D01*
X200190476Y-64270000D01*
X200142857Y-64317619D01*
X199571428Y-64650952D02*
X199666666Y-64603333D01*
X199714285Y-64555714D01*
X199761904Y-64460476D01*
X199761904Y-64412857D01*
X199714285Y-64317619D01*
X199666666Y-64270000D01*
X199571428Y-64222380D01*
X199380952Y-64222380D01*
X199285714Y-64270000D01*
X199238095Y-64317619D01*
X199190476Y-64412857D01*
X199190476Y-64460476D01*
X199238095Y-64555714D01*
X199285714Y-64603333D01*
X199380952Y-64650952D01*
X199571428Y-64650952D01*
X199666666Y-64698571D01*
X199714285Y-64746190D01*
X199761904Y-64841428D01*
X199761904Y-65031904D01*
X199714285Y-65127142D01*
X199666666Y-65174761D01*
X199571428Y-65222380D01*
X199380952Y-65222380D01*
X199285714Y-65174761D01*
X199238095Y-65127142D01*
X199190476Y-65031904D01*
X199190476Y-64841428D01*
X199238095Y-64746190D01*
X199285714Y-64698571D01*
X199380952Y-64650952D01*
X198333333Y-64555714D02*
X198333333Y-65222380D01*
X198571428Y-64174761D02*
X198809523Y-64889047D01*
X198190476Y-64889047D01*
X225142857Y-65127142D02*
X225190476Y-65174761D01*
X225333333Y-65222380D01*
X225428571Y-65222380D01*
X225571428Y-65174761D01*
X225666666Y-65079523D01*
X225714285Y-64984285D01*
X225761904Y-64793809D01*
X225761904Y-64650952D01*
X225714285Y-64460476D01*
X225666666Y-64365238D01*
X225571428Y-64270000D01*
X225428571Y-64222380D01*
X225333333Y-64222380D01*
X225190476Y-64270000D01*
X225142857Y-64317619D01*
X224571428Y-64650952D02*
X224666666Y-64603333D01*
X224714285Y-64555714D01*
X224761904Y-64460476D01*
X224761904Y-64412857D01*
X224714285Y-64317619D01*
X224666666Y-64270000D01*
X224571428Y-64222380D01*
X224380952Y-64222380D01*
X224285714Y-64270000D01*
X224238095Y-64317619D01*
X224190476Y-64412857D01*
X224190476Y-64460476D01*
X224238095Y-64555714D01*
X224285714Y-64603333D01*
X224380952Y-64650952D01*
X224571428Y-64650952D01*
X224666666Y-64698571D01*
X224714285Y-64746190D01*
X224761904Y-64841428D01*
X224761904Y-65031904D01*
X224714285Y-65127142D01*
X224666666Y-65174761D01*
X224571428Y-65222380D01*
X224380952Y-65222380D01*
X224285714Y-65174761D01*
X224238095Y-65127142D01*
X224190476Y-65031904D01*
X224190476Y-64841428D01*
X224238095Y-64746190D01*
X224285714Y-64698571D01*
X224380952Y-64650952D01*
X223285714Y-64222380D02*
X223761904Y-64222380D01*
X223809523Y-64698571D01*
X223761904Y-64650952D01*
X223666666Y-64603333D01*
X223428571Y-64603333D01*
X223333333Y-64650952D01*
X223285714Y-64698571D01*
X223238095Y-64793809D01*
X223238095Y-65031904D01*
X223285714Y-65127142D01*
X223333333Y-65174761D01*
X223428571Y-65222380D01*
X223666666Y-65222380D01*
X223761904Y-65174761D01*
X223809523Y-65127142D01*
X200142857Y-62152380D02*
X200476190Y-61676190D01*
X200714285Y-62152380D02*
X200714285Y-61152380D01*
X200333333Y-61152380D01*
X200238095Y-61200000D01*
X200190476Y-61247619D01*
X200142857Y-61342857D01*
X200142857Y-61485714D01*
X200190476Y-61580952D01*
X200238095Y-61628571D01*
X200333333Y-61676190D01*
X200714285Y-61676190D01*
X199285714Y-61485714D02*
X199285714Y-62152380D01*
X199523809Y-61104761D02*
X199761904Y-61819047D01*
X199142857Y-61819047D01*
X198809523Y-61247619D02*
X198761904Y-61200000D01*
X198666666Y-61152380D01*
X198428571Y-61152380D01*
X198333333Y-61200000D01*
X198285714Y-61247619D01*
X198238095Y-61342857D01*
X198238095Y-61438095D01*
X198285714Y-61580952D01*
X198857142Y-62152380D01*
X198238095Y-62152380D01*
X156142857Y-71252380D02*
X156476190Y-70776190D01*
X156714285Y-71252380D02*
X156714285Y-70252380D01*
X156333333Y-70252380D01*
X156238095Y-70300000D01*
X156190476Y-70347619D01*
X156142857Y-70442857D01*
X156142857Y-70585714D01*
X156190476Y-70680952D01*
X156238095Y-70728571D01*
X156333333Y-70776190D01*
X156714285Y-70776190D01*
X155285714Y-70585714D02*
X155285714Y-71252380D01*
X155523809Y-70204761D02*
X155761904Y-70919047D01*
X155142857Y-70919047D01*
X154333333Y-70585714D02*
X154333333Y-71252380D01*
X154571428Y-70204761D02*
X154809523Y-70919047D01*
X154190476Y-70919047D01*
X181142857Y-71082380D02*
X181476190Y-70606190D01*
X181714285Y-71082380D02*
X181714285Y-70082380D01*
X181333333Y-70082380D01*
X181238095Y-70130000D01*
X181190476Y-70177619D01*
X181142857Y-70272857D01*
X181142857Y-70415714D01*
X181190476Y-70510952D01*
X181238095Y-70558571D01*
X181333333Y-70606190D01*
X181714285Y-70606190D01*
X180285714Y-70415714D02*
X180285714Y-71082380D01*
X180523809Y-70034761D02*
X180761904Y-70749047D01*
X180142857Y-70749047D01*
X179285714Y-70082380D02*
X179761904Y-70082380D01*
X179809523Y-70558571D01*
X179761904Y-70510952D01*
X179666666Y-70463333D01*
X179428571Y-70463333D01*
X179333333Y-70510952D01*
X179285714Y-70558571D01*
X179238095Y-70653809D01*
X179238095Y-70891904D01*
X179285714Y-70987142D01*
X179333333Y-71034761D01*
X179428571Y-71082380D01*
X179666666Y-71082380D01*
X179761904Y-71034761D01*
X179809523Y-70987142D01*
X200142857Y-59152380D02*
X200476190Y-58676190D01*
X200714285Y-59152380D02*
X200714285Y-58152380D01*
X200333333Y-58152380D01*
X200238095Y-58200000D01*
X200190476Y-58247619D01*
X200142857Y-58342857D01*
X200142857Y-58485714D01*
X200190476Y-58580952D01*
X200238095Y-58628571D01*
X200333333Y-58676190D01*
X200714285Y-58676190D01*
X199285714Y-58485714D02*
X199285714Y-59152380D01*
X199523809Y-58104761D02*
X199761904Y-58819047D01*
X199142857Y-58819047D01*
X198333333Y-58152380D02*
X198523809Y-58152380D01*
X198619047Y-58200000D01*
X198666666Y-58247619D01*
X198761904Y-58390476D01*
X198809523Y-58580952D01*
X198809523Y-58961904D01*
X198761904Y-59057142D01*
X198714285Y-59104761D01*
X198619047Y-59152380D01*
X198428571Y-59152380D01*
X198333333Y-59104761D01*
X198285714Y-59057142D01*
X198238095Y-58961904D01*
X198238095Y-58723809D01*
X198285714Y-58628571D01*
X198333333Y-58580952D01*
X198428571Y-58533333D01*
X198619047Y-58533333D01*
X198714285Y-58580952D01*
X198761904Y-58628571D01*
X198809523Y-58723809D01*
X225142857Y-59152380D02*
X225476190Y-58676190D01*
X225714285Y-59152380D02*
X225714285Y-58152380D01*
X225333333Y-58152380D01*
X225238095Y-58200000D01*
X225190476Y-58247619D01*
X225142857Y-58342857D01*
X225142857Y-58485714D01*
X225190476Y-58580952D01*
X225238095Y-58628571D01*
X225333333Y-58676190D01*
X225714285Y-58676190D01*
X224285714Y-58485714D02*
X224285714Y-59152380D01*
X224523809Y-58104761D02*
X224761904Y-58819047D01*
X224142857Y-58819047D01*
X223857142Y-58152380D02*
X223190476Y-58152380D01*
X223619047Y-59152380D01*
X148142857Y-68222380D02*
X148476190Y-67746190D01*
X148714285Y-68222380D02*
X148714285Y-67222380D01*
X148333333Y-67222380D01*
X148238095Y-67270000D01*
X148190476Y-67317619D01*
X148142857Y-67412857D01*
X148142857Y-67555714D01*
X148190476Y-67650952D01*
X148238095Y-67698571D01*
X148333333Y-67746190D01*
X148714285Y-67746190D01*
X147285714Y-67555714D02*
X147285714Y-68222380D01*
X147523809Y-67174761D02*
X147761904Y-67889047D01*
X147142857Y-67889047D01*
X146619047Y-67650952D02*
X146714285Y-67603333D01*
X146761904Y-67555714D01*
X146809523Y-67460476D01*
X146809523Y-67412857D01*
X146761904Y-67317619D01*
X146714285Y-67270000D01*
X146619047Y-67222380D01*
X146428571Y-67222380D01*
X146333333Y-67270000D01*
X146285714Y-67317619D01*
X146238095Y-67412857D01*
X146238095Y-67460476D01*
X146285714Y-67555714D01*
X146333333Y-67603333D01*
X146428571Y-67650952D01*
X146619047Y-67650952D01*
X146714285Y-67698571D01*
X146761904Y-67746190D01*
X146809523Y-67841428D01*
X146809523Y-68031904D01*
X146761904Y-68127142D01*
X146714285Y-68174761D01*
X146619047Y-68222380D01*
X146428571Y-68222380D01*
X146333333Y-68174761D01*
X146285714Y-68127142D01*
X146238095Y-68031904D01*
X146238095Y-67841428D01*
X146285714Y-67746190D01*
X146333333Y-67698571D01*
X146428571Y-67650952D01*
X173142857Y-68222380D02*
X173476190Y-67746190D01*
X173714285Y-68222380D02*
X173714285Y-67222380D01*
X173333333Y-67222380D01*
X173238095Y-67270000D01*
X173190476Y-67317619D01*
X173142857Y-67412857D01*
X173142857Y-67555714D01*
X173190476Y-67650952D01*
X173238095Y-67698571D01*
X173333333Y-67746190D01*
X173714285Y-67746190D01*
X172285714Y-67555714D02*
X172285714Y-68222380D01*
X172523809Y-67174761D02*
X172761904Y-67889047D01*
X172142857Y-67889047D01*
X171714285Y-68222380D02*
X171523809Y-68222380D01*
X171428571Y-68174761D01*
X171380952Y-68127142D01*
X171285714Y-67984285D01*
X171238095Y-67793809D01*
X171238095Y-67412857D01*
X171285714Y-67317619D01*
X171333333Y-67270000D01*
X171428571Y-67222380D01*
X171619047Y-67222380D01*
X171714285Y-67270000D01*
X171761904Y-67317619D01*
X171809523Y-67412857D01*
X171809523Y-67650952D01*
X171761904Y-67746190D01*
X171714285Y-67793809D01*
X171619047Y-67841428D01*
X171428571Y-67841428D01*
X171333333Y-67793809D01*
X171285714Y-67746190D01*
X171238095Y-67650952D01*
X200142857Y-68222380D02*
X200476190Y-67746190D01*
X200714285Y-68222380D02*
X200714285Y-67222380D01*
X200333333Y-67222380D01*
X200238095Y-67270000D01*
X200190476Y-67317619D01*
X200142857Y-67412857D01*
X200142857Y-67555714D01*
X200190476Y-67650952D01*
X200238095Y-67698571D01*
X200333333Y-67746190D01*
X200714285Y-67746190D01*
X199238095Y-67222380D02*
X199714285Y-67222380D01*
X199761904Y-67698571D01*
X199714285Y-67650952D01*
X199619047Y-67603333D01*
X199380952Y-67603333D01*
X199285714Y-67650952D01*
X199238095Y-67698571D01*
X199190476Y-67793809D01*
X199190476Y-68031904D01*
X199238095Y-68127142D01*
X199285714Y-68174761D01*
X199380952Y-68222380D01*
X199619047Y-68222380D01*
X199714285Y-68174761D01*
X199761904Y-68127142D01*
X198571428Y-67222380D02*
X198476190Y-67222380D01*
X198380952Y-67270000D01*
X198333333Y-67317619D01*
X198285714Y-67412857D01*
X198238095Y-67603333D01*
X198238095Y-67841428D01*
X198285714Y-68031904D01*
X198333333Y-68127142D01*
X198380952Y-68174761D01*
X198476190Y-68222380D01*
X198571428Y-68222380D01*
X198666666Y-68174761D01*
X198714285Y-68127142D01*
X198761904Y-68031904D01*
X198809523Y-67841428D01*
X198809523Y-67603333D01*
X198761904Y-67412857D01*
X198714285Y-67317619D01*
X198666666Y-67270000D01*
X198571428Y-67222380D01*
X225142857Y-68152380D02*
X225476190Y-67676190D01*
X225714285Y-68152380D02*
X225714285Y-67152380D01*
X225333333Y-67152380D01*
X225238095Y-67200000D01*
X225190476Y-67247619D01*
X225142857Y-67342857D01*
X225142857Y-67485714D01*
X225190476Y-67580952D01*
X225238095Y-67628571D01*
X225333333Y-67676190D01*
X225714285Y-67676190D01*
X224238095Y-67152380D02*
X224714285Y-67152380D01*
X224761904Y-67628571D01*
X224714285Y-67580952D01*
X224619047Y-67533333D01*
X224380952Y-67533333D01*
X224285714Y-67580952D01*
X224238095Y-67628571D01*
X224190476Y-67723809D01*
X224190476Y-67961904D01*
X224238095Y-68057142D01*
X224285714Y-68104761D01*
X224380952Y-68152380D01*
X224619047Y-68152380D01*
X224714285Y-68104761D01*
X224761904Y-68057142D01*
X223238095Y-68152380D02*
X223809523Y-68152380D01*
X223523809Y-68152380D02*
X223523809Y-67152380D01*
X223619047Y-67295238D01*
X223714285Y-67390476D01*
X223809523Y-67438095D01*
X156142857Y-58082380D02*
X156476190Y-57606190D01*
X156714285Y-58082380D02*
X156714285Y-57082380D01*
X156333333Y-57082380D01*
X156238095Y-57130000D01*
X156190476Y-57177619D01*
X156142857Y-57272857D01*
X156142857Y-57415714D01*
X156190476Y-57510952D01*
X156238095Y-57558571D01*
X156333333Y-57606190D01*
X156714285Y-57606190D01*
X155238095Y-57082380D02*
X155714285Y-57082380D01*
X155761904Y-57558571D01*
X155714285Y-57510952D01*
X155619047Y-57463333D01*
X155380952Y-57463333D01*
X155285714Y-57510952D01*
X155238095Y-57558571D01*
X155190476Y-57653809D01*
X155190476Y-57891904D01*
X155238095Y-57987142D01*
X155285714Y-58034761D01*
X155380952Y-58082380D01*
X155619047Y-58082380D01*
X155714285Y-58034761D01*
X155761904Y-57987142D01*
X154809523Y-57177619D02*
X154761904Y-57130000D01*
X154666666Y-57082380D01*
X154428571Y-57082380D01*
X154333333Y-57130000D01*
X154285714Y-57177619D01*
X154238095Y-57272857D01*
X154238095Y-57368095D01*
X154285714Y-57510952D01*
X154857142Y-58082380D01*
X154238095Y-58082380D01*
X181142857Y-58082380D02*
X181476190Y-57606190D01*
X181714285Y-58082380D02*
X181714285Y-57082380D01*
X181333333Y-57082380D01*
X181238095Y-57130000D01*
X181190476Y-57177619D01*
X181142857Y-57272857D01*
X181142857Y-57415714D01*
X181190476Y-57510952D01*
X181238095Y-57558571D01*
X181333333Y-57606190D01*
X181714285Y-57606190D01*
X180238095Y-57082380D02*
X180714285Y-57082380D01*
X180761904Y-57558571D01*
X180714285Y-57510952D01*
X180619047Y-57463333D01*
X180380952Y-57463333D01*
X180285714Y-57510952D01*
X180238095Y-57558571D01*
X180190476Y-57653809D01*
X180190476Y-57891904D01*
X180238095Y-57987142D01*
X180285714Y-58034761D01*
X180380952Y-58082380D01*
X180619047Y-58082380D01*
X180714285Y-58034761D01*
X180761904Y-57987142D01*
X179857142Y-57082380D02*
X179238095Y-57082380D01*
X179571428Y-57463333D01*
X179428571Y-57463333D01*
X179333333Y-57510952D01*
X179285714Y-57558571D01*
X179238095Y-57653809D01*
X179238095Y-57891904D01*
X179285714Y-57987142D01*
X179333333Y-58034761D01*
X179428571Y-58082380D01*
X179714285Y-58082380D01*
X179809523Y-58034761D01*
X179857142Y-57987142D01*
X200142857Y-56152380D02*
X200476190Y-55676190D01*
X200714285Y-56152380D02*
X200714285Y-55152380D01*
X200333333Y-55152380D01*
X200238095Y-55200000D01*
X200190476Y-55247619D01*
X200142857Y-55342857D01*
X200142857Y-55485714D01*
X200190476Y-55580952D01*
X200238095Y-55628571D01*
X200333333Y-55676190D01*
X200714285Y-55676190D01*
X199238095Y-55152380D02*
X199714285Y-55152380D01*
X199761904Y-55628571D01*
X199714285Y-55580952D01*
X199619047Y-55533333D01*
X199380952Y-55533333D01*
X199285714Y-55580952D01*
X199238095Y-55628571D01*
X199190476Y-55723809D01*
X199190476Y-55961904D01*
X199238095Y-56057142D01*
X199285714Y-56104761D01*
X199380952Y-56152380D01*
X199619047Y-56152380D01*
X199714285Y-56104761D01*
X199761904Y-56057142D01*
X198333333Y-55485714D02*
X198333333Y-56152380D01*
X198571428Y-55104761D02*
X198809523Y-55819047D01*
X198190476Y-55819047D01*
X225142857Y-56152380D02*
X225476190Y-55676190D01*
X225714285Y-56152380D02*
X225714285Y-55152380D01*
X225333333Y-55152380D01*
X225238095Y-55200000D01*
X225190476Y-55247619D01*
X225142857Y-55342857D01*
X225142857Y-55485714D01*
X225190476Y-55580952D01*
X225238095Y-55628571D01*
X225333333Y-55676190D01*
X225714285Y-55676190D01*
X224238095Y-55152380D02*
X224714285Y-55152380D01*
X224761904Y-55628571D01*
X224714285Y-55580952D01*
X224619047Y-55533333D01*
X224380952Y-55533333D01*
X224285714Y-55580952D01*
X224238095Y-55628571D01*
X224190476Y-55723809D01*
X224190476Y-55961904D01*
X224238095Y-56057142D01*
X224285714Y-56104761D01*
X224380952Y-56152380D01*
X224619047Y-56152380D01*
X224714285Y-56104761D01*
X224761904Y-56057142D01*
X223285714Y-55152380D02*
X223761904Y-55152380D01*
X223809523Y-55628571D01*
X223761904Y-55580952D01*
X223666666Y-55533333D01*
X223428571Y-55533333D01*
X223333333Y-55580952D01*
X223285714Y-55628571D01*
X223238095Y-55723809D01*
X223238095Y-55961904D01*
X223285714Y-56057142D01*
X223333333Y-56104761D01*
X223428571Y-56152380D01*
X223666666Y-56152380D01*
X223761904Y-56104761D01*
X223809523Y-56057142D01*
M02*
