G04 #@! TF.GenerationSoftware,KiCad,Pcbnew,(5.1.4)-1*
G04 #@! TF.CreationDate,2019-11-16T11:12:50+01:00*
G04 #@! TF.ProjectId,fpga_pedal,66706761-5f70-4656-9461-6c2e6b696361,rev?*
G04 #@! TF.SameCoordinates,Original*
G04 #@! TF.FileFunction,Legend,Top*
G04 #@! TF.FilePolarity,Positive*
%FSLAX46Y46*%
G04 Gerber Fmt 4.6, Leading zero omitted, Abs format (unit mm)*
G04 Created by KiCad (PCBNEW (5.1.4)-1) date 2019-11-16 11:12:50*
%MOMM*%
%LPD*%
G04 APERTURE LIST*
%ADD10C,0.200000*%
%ADD11C,1.000000*%
%ADD12C,0.150000*%
%ADD13C,2.000000*%
%ADD14C,0.120000*%
%ADD15C,0.300000*%
%ADD16C,0.700000*%
G04 APERTURE END LIST*
D10*
X143114285Y-136014285D02*
X142714285Y-136014285D01*
X142714285Y-136642857D02*
X142714285Y-135442857D01*
X143285714Y-135442857D01*
X143742857Y-136642857D02*
X143742857Y-135842857D01*
X143742857Y-136071428D02*
X143800000Y-135957142D01*
X143857142Y-135900000D01*
X143971428Y-135842857D01*
X144085714Y-135842857D01*
X144942857Y-136585714D02*
X144828571Y-136642857D01*
X144600000Y-136642857D01*
X144485714Y-136585714D01*
X144428571Y-136471428D01*
X144428571Y-136014285D01*
X144485714Y-135900000D01*
X144600000Y-135842857D01*
X144828571Y-135842857D01*
X144942857Y-135900000D01*
X145000000Y-136014285D01*
X145000000Y-136128571D01*
X144428571Y-136242857D01*
X146028571Y-136642857D02*
X146028571Y-135442857D01*
X146028571Y-136585714D02*
X145914285Y-136642857D01*
X145685714Y-136642857D01*
X145571428Y-136585714D01*
X145514285Y-136528571D01*
X145457142Y-136414285D01*
X145457142Y-136071428D01*
X145514285Y-135957142D01*
X145571428Y-135900000D01*
X145685714Y-135842857D01*
X145914285Y-135842857D01*
X146028571Y-135900000D01*
X146600000Y-136642857D02*
X146600000Y-135842857D01*
X146600000Y-136071428D02*
X146657142Y-135957142D01*
X146714285Y-135900000D01*
X146828571Y-135842857D01*
X146942857Y-135842857D01*
X147342857Y-136642857D02*
X147342857Y-135842857D01*
X147342857Y-135442857D02*
X147285714Y-135500000D01*
X147342857Y-135557142D01*
X147400000Y-135500000D01*
X147342857Y-135442857D01*
X147342857Y-135557142D01*
X147914285Y-136642857D02*
X147914285Y-135442857D01*
X148028571Y-136185714D02*
X148371428Y-136642857D01*
X148371428Y-135842857D02*
X147914285Y-136300000D01*
X149742857Y-136300000D02*
X150314285Y-136300000D01*
X149628571Y-136642857D02*
X150028571Y-135442857D01*
X150428571Y-136642857D01*
X150028571Y-135442857D02*
X149914285Y-135385714D01*
X149857142Y-135271428D01*
X149914285Y-135157142D01*
X150028571Y-135100000D01*
X150142857Y-135157142D01*
X150200000Y-135271428D01*
X150142857Y-135385714D01*
X150028571Y-135442857D01*
X150828571Y-136642857D02*
X150828571Y-135442857D01*
X150942857Y-136185714D02*
X151285714Y-136642857D01*
X151285714Y-135842857D02*
X150828571Y-136300000D01*
X152257142Y-136585714D02*
X152142857Y-136642857D01*
X151914285Y-136642857D01*
X151800000Y-136585714D01*
X151742857Y-136471428D01*
X151742857Y-136014285D01*
X151800000Y-135900000D01*
X151914285Y-135842857D01*
X152142857Y-135842857D01*
X152257142Y-135900000D01*
X152314285Y-136014285D01*
X152314285Y-136128571D01*
X151742857Y-136242857D01*
X152828571Y-136642857D02*
X152828571Y-135842857D01*
X152828571Y-136071428D02*
X152885714Y-135957142D01*
X152942857Y-135900000D01*
X153057142Y-135842857D01*
X153171428Y-135842857D01*
X153742857Y-136642857D02*
X153628571Y-136585714D01*
X153571428Y-136471428D01*
X153571428Y-135442857D01*
X154714285Y-135842857D02*
X154714285Y-136642857D01*
X154200000Y-135842857D02*
X154200000Y-136471428D01*
X154257142Y-136585714D01*
X154371428Y-136642857D01*
X154542857Y-136642857D01*
X154657142Y-136585714D01*
X154714285Y-136528571D01*
X155285714Y-135842857D02*
X155285714Y-136642857D01*
X155285714Y-135957142D02*
X155342857Y-135900000D01*
X155457142Y-135842857D01*
X155628571Y-135842857D01*
X155742857Y-135900000D01*
X155800000Y-136014285D01*
X155800000Y-136642857D01*
X156885714Y-136642857D02*
X156885714Y-135442857D01*
X156885714Y-136585714D02*
X156771428Y-136642857D01*
X156542857Y-136642857D01*
X156428571Y-136585714D01*
X156371428Y-136528571D01*
X156314285Y-136414285D01*
X156314285Y-136071428D01*
X156371428Y-135957142D01*
X156428571Y-135900000D01*
X156542857Y-135842857D01*
X156771428Y-135842857D01*
X156885714Y-135900000D01*
X142971428Y-138642857D02*
X142971428Y-137442857D01*
X143657142Y-138642857D01*
X143657142Y-137442857D01*
X144400000Y-138642857D02*
X144285714Y-138585714D01*
X144228571Y-138528571D01*
X144171428Y-138414285D01*
X144171428Y-138071428D01*
X144228571Y-137957142D01*
X144285714Y-137900000D01*
X144400000Y-137842857D01*
X144571428Y-137842857D01*
X144685714Y-137900000D01*
X144742857Y-137957142D01*
X144800000Y-138071428D01*
X144800000Y-138414285D01*
X144742857Y-138528571D01*
X144685714Y-138585714D01*
X144571428Y-138642857D01*
X144400000Y-138642857D01*
X145200000Y-137842857D02*
X145485714Y-138642857D01*
X145771428Y-137842857D01*
X146685714Y-138585714D02*
X146571428Y-138642857D01*
X146342857Y-138642857D01*
X146228571Y-138585714D01*
X146171428Y-138471428D01*
X146171428Y-138014285D01*
X146228571Y-137900000D01*
X146342857Y-137842857D01*
X146571428Y-137842857D01*
X146685714Y-137900000D01*
X146742857Y-138014285D01*
X146742857Y-138128571D01*
X146171428Y-138242857D01*
X147257142Y-138642857D02*
X147257142Y-137842857D01*
X147257142Y-137957142D02*
X147314285Y-137900000D01*
X147428571Y-137842857D01*
X147600000Y-137842857D01*
X147714285Y-137900000D01*
X147771428Y-138014285D01*
X147771428Y-138642857D01*
X147771428Y-138014285D02*
X147828571Y-137900000D01*
X147942857Y-137842857D01*
X148114285Y-137842857D01*
X148228571Y-137900000D01*
X148285714Y-138014285D01*
X148285714Y-138642857D01*
X148857142Y-138642857D02*
X148857142Y-137442857D01*
X148857142Y-137900000D02*
X148971428Y-137842857D01*
X149200000Y-137842857D01*
X149314285Y-137900000D01*
X149371428Y-137957142D01*
X149428571Y-138071428D01*
X149428571Y-138414285D01*
X149371428Y-138528571D01*
X149314285Y-138585714D01*
X149200000Y-138642857D01*
X148971428Y-138642857D01*
X148857142Y-138585714D01*
X150400000Y-138585714D02*
X150285714Y-138642857D01*
X150057142Y-138642857D01*
X149942857Y-138585714D01*
X149885714Y-138471428D01*
X149885714Y-138014285D01*
X149942857Y-137900000D01*
X150057142Y-137842857D01*
X150285714Y-137842857D01*
X150400000Y-137900000D01*
X150457142Y-138014285D01*
X150457142Y-138128571D01*
X149885714Y-138242857D01*
X150971428Y-138642857D02*
X150971428Y-137842857D01*
X150971428Y-138071428D02*
X151028571Y-137957142D01*
X151085714Y-137900000D01*
X151200000Y-137842857D01*
X151314285Y-137842857D01*
X152571428Y-137557142D02*
X152628571Y-137500000D01*
X152742857Y-137442857D01*
X153028571Y-137442857D01*
X153142857Y-137500000D01*
X153200000Y-137557142D01*
X153257142Y-137671428D01*
X153257142Y-137785714D01*
X153200000Y-137957142D01*
X152514285Y-138642857D01*
X153257142Y-138642857D01*
X154000000Y-137442857D02*
X154114285Y-137442857D01*
X154228571Y-137500000D01*
X154285714Y-137557142D01*
X154342857Y-137671428D01*
X154400000Y-137900000D01*
X154400000Y-138185714D01*
X154342857Y-138414285D01*
X154285714Y-138528571D01*
X154228571Y-138585714D01*
X154114285Y-138642857D01*
X154000000Y-138642857D01*
X153885714Y-138585714D01*
X153828571Y-138528571D01*
X153771428Y-138414285D01*
X153714285Y-138185714D01*
X153714285Y-137900000D01*
X153771428Y-137671428D01*
X153828571Y-137557142D01*
X153885714Y-137500000D01*
X154000000Y-137442857D01*
X155542857Y-138642857D02*
X154857142Y-138642857D01*
X155200000Y-138642857D02*
X155200000Y-137442857D01*
X155085714Y-137614285D01*
X154971428Y-137728571D01*
X154857142Y-137785714D01*
X156114285Y-138642857D02*
X156342857Y-138642857D01*
X156457142Y-138585714D01*
X156514285Y-138528571D01*
X156628571Y-138357142D01*
X156685714Y-138128571D01*
X156685714Y-137671428D01*
X156628571Y-137557142D01*
X156571428Y-137500000D01*
X156457142Y-137442857D01*
X156228571Y-137442857D01*
X156114285Y-137500000D01*
X156057142Y-137557142D01*
X156000000Y-137671428D01*
X156000000Y-137957142D01*
X156057142Y-138071428D01*
X156114285Y-138128571D01*
X156228571Y-138185714D01*
X156457142Y-138185714D01*
X156571428Y-138128571D01*
X156628571Y-138071428D01*
X156685714Y-137957142D01*
D11*
X163500000Y-109500000D02*
X163500000Y-86500000D01*
X139500000Y-86500000D02*
X163500000Y-86500000D01*
X139500000Y-109500000D02*
X163500000Y-109500000D01*
D12*
X194585714Y-107542857D02*
X194585714Y-106628571D01*
X193842857Y-105485714D02*
X193842857Y-106057142D01*
X194414285Y-106114285D01*
X194357142Y-106057142D01*
X194300000Y-105942857D01*
X194300000Y-105657142D01*
X194357142Y-105542857D01*
X194414285Y-105485714D01*
X194528571Y-105428571D01*
X194814285Y-105428571D01*
X194928571Y-105485714D01*
X194985714Y-105542857D01*
X195042857Y-105657142D01*
X195042857Y-105942857D01*
X194985714Y-106057142D01*
X194928571Y-106114285D01*
X193842857Y-105085714D02*
X195042857Y-104685714D01*
X193842857Y-104285714D01*
X179585714Y-107542857D02*
X179585714Y-106628571D01*
X178842857Y-105485714D02*
X178842857Y-106057142D01*
X179414285Y-106114285D01*
X179357142Y-106057142D01*
X179300000Y-105942857D01*
X179300000Y-105657142D01*
X179357142Y-105542857D01*
X179414285Y-105485714D01*
X179528571Y-105428571D01*
X179814285Y-105428571D01*
X179928571Y-105485714D01*
X179985714Y-105542857D01*
X180042857Y-105657142D01*
X180042857Y-105942857D01*
X179985714Y-106057142D01*
X179928571Y-106114285D01*
X178842857Y-105085714D02*
X180042857Y-104685714D01*
X178842857Y-104285714D01*
X198092857Y-128735714D02*
X198092857Y-127992857D01*
X198550000Y-128392857D01*
X198550000Y-128221428D01*
X198607142Y-128107142D01*
X198664285Y-128050000D01*
X198778571Y-127992857D01*
X199064285Y-127992857D01*
X199178571Y-128050000D01*
X199235714Y-128107142D01*
X199292857Y-128221428D01*
X199292857Y-128564285D01*
X199235714Y-128678571D01*
X199178571Y-128735714D01*
X198092857Y-127650000D02*
X199292857Y-127250000D01*
X198092857Y-126850000D01*
X198092857Y-126564285D02*
X198092857Y-125821428D01*
X198550000Y-126221428D01*
X198550000Y-126050000D01*
X198607142Y-125935714D01*
X198664285Y-125878571D01*
X198778571Y-125821428D01*
X199064285Y-125821428D01*
X199178571Y-125878571D01*
X199235714Y-125935714D01*
X199292857Y-126050000D01*
X199292857Y-126392857D01*
X199235714Y-126507142D01*
X199178571Y-126564285D01*
X168342857Y-130228571D02*
X168342857Y-130800000D01*
X168914285Y-130857142D01*
X168857142Y-130800000D01*
X168800000Y-130685714D01*
X168800000Y-130400000D01*
X168857142Y-130285714D01*
X168914285Y-130228571D01*
X169028571Y-130171428D01*
X169314285Y-130171428D01*
X169428571Y-130228571D01*
X169485714Y-130285714D01*
X169542857Y-130400000D01*
X169542857Y-130685714D01*
X169485714Y-130800000D01*
X169428571Y-130857142D01*
X168342857Y-129828571D02*
X169542857Y-129428571D01*
X168342857Y-129028571D01*
X178342857Y-130228571D02*
X178342857Y-130800000D01*
X178914285Y-130857142D01*
X178857142Y-130800000D01*
X178800000Y-130685714D01*
X178800000Y-130400000D01*
X178857142Y-130285714D01*
X178914285Y-130228571D01*
X179028571Y-130171428D01*
X179314285Y-130171428D01*
X179428571Y-130228571D01*
X179485714Y-130285714D01*
X179542857Y-130400000D01*
X179542857Y-130685714D01*
X179485714Y-130800000D01*
X179428571Y-130857142D01*
X178342857Y-129828571D02*
X179542857Y-129428571D01*
X178342857Y-129028571D01*
D13*
X139990000Y-86000000D02*
X140000000Y-53250000D01*
X140000000Y-141000000D02*
X140010000Y-110010000D01*
X238000000Y-53250000D02*
X140000000Y-53250000D01*
X238000000Y-141000000D02*
X140000000Y-141000000D01*
X238000000Y-53300000D02*
X238000000Y-141000000D01*
D14*
X213050000Y-98150000D02*
X213050000Y-90450000D01*
D15*
X158428571Y-113242857D02*
X159952380Y-113242857D01*
X161857142Y-112004761D02*
X160904761Y-112004761D01*
X160809523Y-112957142D01*
X160904761Y-112861904D01*
X161095238Y-112766666D01*
X161571428Y-112766666D01*
X161761904Y-112861904D01*
X161857142Y-112957142D01*
X161952380Y-113147619D01*
X161952380Y-113623809D01*
X161857142Y-113814285D01*
X161761904Y-113909523D01*
X161571428Y-114004761D01*
X161095238Y-114004761D01*
X160904761Y-113909523D01*
X160809523Y-113814285D01*
X162523809Y-112004761D02*
X163190476Y-114004761D01*
X163857142Y-112004761D01*
X147019047Y-112004761D02*
X146066666Y-112004761D01*
X145971428Y-112957142D01*
X146066666Y-112861904D01*
X146257142Y-112766666D01*
X146733333Y-112766666D01*
X146923809Y-112861904D01*
X147019047Y-112957142D01*
X147114285Y-113147619D01*
X147114285Y-113623809D01*
X147019047Y-113814285D01*
X146923809Y-113909523D01*
X146733333Y-114004761D01*
X146257142Y-114004761D01*
X146066666Y-113909523D01*
X145971428Y-113814285D01*
X147685714Y-112004761D02*
X148352380Y-114004761D01*
X149019047Y-112004761D01*
X212857142Y-76304761D02*
X211904761Y-76304761D01*
X211904761Y-74304761D01*
X216190476Y-76304761D02*
X215523809Y-75352380D01*
X215047619Y-76304761D02*
X215047619Y-74304761D01*
X215809523Y-74304761D01*
X216000000Y-74400000D01*
X216095238Y-74495238D01*
X216190476Y-74685714D01*
X216190476Y-74971428D01*
X216095238Y-75161904D01*
X216000000Y-75257142D01*
X215809523Y-75352380D01*
X215047619Y-75352380D01*
X162757142Y-76404761D02*
X161804761Y-76404761D01*
X161804761Y-74404761D01*
X166090476Y-76404761D02*
X165423809Y-75452380D01*
X164947619Y-76404761D02*
X164947619Y-74404761D01*
X165709523Y-74404761D01*
X165900000Y-74500000D01*
X165995238Y-74595238D01*
X166090476Y-74785714D01*
X166090476Y-75071428D01*
X165995238Y-75261904D01*
X165900000Y-75357142D01*
X165709523Y-75452380D01*
X164947619Y-75452380D01*
D16*
X212009523Y-71800000D02*
X212009523Y-71038095D01*
X212200000Y-70657142D01*
X212580952Y-70276190D01*
X213342857Y-70085714D01*
X214676190Y-70085714D01*
X215438095Y-70276190D01*
X215819047Y-70657142D01*
X216009523Y-71038095D01*
X216009523Y-71800000D01*
X215819047Y-72180952D01*
X215438095Y-72561904D01*
X214676190Y-72752380D01*
X213342857Y-72752380D01*
X212580952Y-72561904D01*
X212200000Y-72180952D01*
X212009523Y-71800000D01*
X212009523Y-68371428D02*
X215247619Y-68371428D01*
X215628571Y-68180952D01*
X215819047Y-67990476D01*
X216009523Y-67609523D01*
X216009523Y-66847619D01*
X215819047Y-66466666D01*
X215628571Y-66276190D01*
X215247619Y-66085714D01*
X212009523Y-66085714D01*
X212009523Y-64752380D02*
X212009523Y-62466666D01*
X216009523Y-63609523D02*
X212009523Y-63609523D01*
X165909523Y-72695238D02*
X161909523Y-72695238D01*
X165909523Y-70790476D02*
X161909523Y-70790476D01*
X165909523Y-68504761D01*
X161909523Y-68504761D01*
D12*
X188342857Y-130228571D02*
X188342857Y-130800000D01*
X188914285Y-130857142D01*
X188857142Y-130800000D01*
X188800000Y-130685714D01*
X188800000Y-130400000D01*
X188857142Y-130285714D01*
X188914285Y-130228571D01*
X189028571Y-130171428D01*
X189314285Y-130171428D01*
X189428571Y-130228571D01*
X189485714Y-130285714D01*
X189542857Y-130400000D01*
X189542857Y-130685714D01*
X189485714Y-130800000D01*
X189428571Y-130857142D01*
X188342857Y-129828571D02*
X189542857Y-129428571D01*
X188342857Y-129028571D01*
D14*
X210670000Y-128800000D02*
X210670000Y-127690000D01*
X210670000Y-127690000D02*
X212000000Y-127690000D01*
X210670000Y-141430000D02*
X236190000Y-141430000D01*
X236190000Y-141430000D02*
X236190000Y-132800000D01*
X210670000Y-132800000D02*
X236190000Y-132800000D01*
X210670000Y-141430000D02*
X210670000Y-132800000D01*
X233590000Y-141430000D02*
X233590000Y-132800000D01*
X231050000Y-141430000D02*
X231050000Y-132800000D01*
X228510000Y-141430000D02*
X228510000Y-132800000D01*
X225970000Y-141430000D02*
X225970000Y-132800000D01*
X223430000Y-141430000D02*
X223430000Y-132800000D01*
X220890000Y-141430000D02*
X220890000Y-132800000D01*
X218350000Y-141430000D02*
X218350000Y-132800000D01*
X215810000Y-141430000D02*
X215810000Y-132800000D01*
X213270000Y-141430000D02*
X213270000Y-132800000D01*
X235220000Y-130290000D02*
X235220000Y-129850000D01*
X235220000Y-132800000D02*
X235220000Y-132390000D01*
X234500000Y-130290000D02*
X234500000Y-129850000D01*
X234500000Y-132800000D02*
X234500000Y-132390000D01*
X232680000Y-130290000D02*
X232680000Y-129850000D01*
X232680000Y-132800000D02*
X232680000Y-132390000D01*
X231960000Y-130290000D02*
X231960000Y-129850000D01*
X231960000Y-132800000D02*
X231960000Y-132390000D01*
X230140000Y-130290000D02*
X230140000Y-129850000D01*
X230140000Y-132800000D02*
X230140000Y-132390000D01*
X229420000Y-130290000D02*
X229420000Y-129850000D01*
X229420000Y-132800000D02*
X229420000Y-132390000D01*
X227600000Y-130290000D02*
X227600000Y-129850000D01*
X227600000Y-132800000D02*
X227600000Y-132390000D01*
X226880000Y-130290000D02*
X226880000Y-129850000D01*
X226880000Y-132800000D02*
X226880000Y-132390000D01*
X225060000Y-130290000D02*
X225060000Y-129850000D01*
X225060000Y-132800000D02*
X225060000Y-132390000D01*
X224340000Y-130290000D02*
X224340000Y-129850000D01*
X224340000Y-132800000D02*
X224340000Y-132390000D01*
X222520000Y-130290000D02*
X222520000Y-129850000D01*
X222520000Y-132800000D02*
X222520000Y-132390000D01*
X221800000Y-130290000D02*
X221800000Y-129850000D01*
X221800000Y-132800000D02*
X221800000Y-132390000D01*
X219980000Y-130290000D02*
X219980000Y-129850000D01*
X219980000Y-132800000D02*
X219980000Y-132390000D01*
X219260000Y-130290000D02*
X219260000Y-129850000D01*
X219260000Y-132800000D02*
X219260000Y-132390000D01*
X217440000Y-130290000D02*
X217440000Y-129850000D01*
X217440000Y-132800000D02*
X217440000Y-132390000D01*
X216720000Y-130290000D02*
X216720000Y-129850000D01*
X216720000Y-132800000D02*
X216720000Y-132390000D01*
X214900000Y-130290000D02*
X214900000Y-129850000D01*
X214900000Y-132800000D02*
X214900000Y-132390000D01*
X214180000Y-130290000D02*
X214180000Y-129850000D01*
X214180000Y-132800000D02*
X214180000Y-132390000D01*
X212360000Y-130290000D02*
X212360000Y-129910000D01*
X212360000Y-132800000D02*
X212360000Y-132390000D01*
X211640000Y-130290000D02*
X211640000Y-129910000D01*
X211640000Y-132800000D02*
X211640000Y-132390000D01*
X213151900Y-141430000D02*
X213151900Y-132800000D01*
X213033805Y-141430000D02*
X213033805Y-132800000D01*
X212915710Y-141430000D02*
X212915710Y-132800000D01*
X212797615Y-141430000D02*
X212797615Y-132800000D01*
X212679520Y-141430000D02*
X212679520Y-132800000D01*
X212561425Y-141430000D02*
X212561425Y-132800000D01*
X212443330Y-141430000D02*
X212443330Y-132800000D01*
X212325235Y-141430000D02*
X212325235Y-132800000D01*
X212207140Y-141430000D02*
X212207140Y-132800000D01*
X212089045Y-141430000D02*
X212089045Y-132800000D01*
X211970950Y-141430000D02*
X211970950Y-132800000D01*
X211852855Y-141430000D02*
X211852855Y-132800000D01*
X211734760Y-141430000D02*
X211734760Y-132800000D01*
X211616665Y-141430000D02*
X211616665Y-132800000D01*
X211498570Y-141430000D02*
X211498570Y-132800000D01*
X211380475Y-141430000D02*
X211380475Y-132800000D01*
X211262380Y-141430000D02*
X211262380Y-132800000D01*
X211144285Y-141430000D02*
X211144285Y-132800000D01*
X211026190Y-141430000D02*
X211026190Y-132800000D01*
X210908095Y-141430000D02*
X210908095Y-132800000D01*
X210790000Y-141430000D02*
X210790000Y-132800000D01*
X161254000Y-121854000D02*
X156946000Y-121854000D01*
X156946000Y-117546000D02*
X161254000Y-117546000D01*
X152354000Y-121854000D02*
X148046000Y-121854000D01*
X148046000Y-117546000D02*
X152354000Y-117546000D01*
D12*
X232750000Y-114825000D02*
X232750000Y-113750000D01*
X223025000Y-114825000D02*
X223025000Y-119475000D01*
X232975000Y-114825000D02*
X232975000Y-119475000D01*
X223025000Y-114825000D02*
X223350000Y-114825000D01*
X223025000Y-119475000D02*
X223350000Y-119475000D01*
X232975000Y-119475000D02*
X232650000Y-119475000D01*
X232975000Y-114825000D02*
X232750000Y-114825000D01*
D14*
X192400000Y-104390000D02*
X189950000Y-104390000D01*
X190600000Y-107610000D02*
X192400000Y-107610000D01*
X177400000Y-104390000D02*
X174950000Y-104390000D01*
X175600000Y-107610000D02*
X177400000Y-107610000D01*
D12*
X150900000Y-124550000D02*
X156875000Y-124550000D01*
X152425000Y-131450000D02*
X156875000Y-131450000D01*
D14*
X233990000Y-80328733D02*
X233990000Y-80671267D01*
X235010000Y-80328733D02*
X235010000Y-80671267D01*
X192240000Y-80328733D02*
X192240000Y-80671267D01*
X193260000Y-80328733D02*
X193260000Y-80671267D01*
X235010000Y-84671267D02*
X235010000Y-84328733D01*
X233990000Y-84671267D02*
X233990000Y-84328733D01*
X193260000Y-84671267D02*
X193260000Y-84328733D01*
X192240000Y-84671267D02*
X192240000Y-84328733D01*
X227010000Y-84671267D02*
X227010000Y-84328733D01*
X225990000Y-84671267D02*
X225990000Y-84328733D01*
X202260000Y-84671267D02*
X202260000Y-84328733D01*
X201240000Y-84671267D02*
X201240000Y-84328733D01*
X227010000Y-80671267D02*
X227010000Y-80328733D01*
X225990000Y-80671267D02*
X225990000Y-80328733D01*
X202260000Y-80796267D02*
X202260000Y-80453733D01*
X201240000Y-80796267D02*
X201240000Y-80453733D01*
X222740000Y-88328733D02*
X222740000Y-88671267D01*
X223760000Y-88328733D02*
X223760000Y-88671267D01*
X201240000Y-88328733D02*
X201240000Y-88671267D01*
X202260000Y-88328733D02*
X202260000Y-88671267D01*
X213490000Y-96328733D02*
X213490000Y-96671267D01*
X214510000Y-96328733D02*
X214510000Y-96671267D01*
X220510000Y-92671267D02*
X220510000Y-92328733D01*
X219490000Y-92671267D02*
X219490000Y-92328733D01*
X222740000Y-92328733D02*
X222740000Y-92671267D01*
X223760000Y-92328733D02*
X223760000Y-92671267D01*
X210240000Y-92328733D02*
X210240000Y-92671267D01*
X211260000Y-92328733D02*
X211260000Y-92671267D01*
X208260000Y-92671267D02*
X208260000Y-92328733D01*
X207240000Y-92671267D02*
X207240000Y-92328733D01*
X204240000Y-92328733D02*
X204240000Y-92671267D01*
X205260000Y-92328733D02*
X205260000Y-92671267D01*
X217510000Y-96671267D02*
X217510000Y-96328733D01*
X216490000Y-96671267D02*
X216490000Y-96328733D01*
X225940000Y-96278733D02*
X225940000Y-96621267D01*
X226960000Y-96278733D02*
X226960000Y-96621267D01*
X208260000Y-96671267D02*
X208260000Y-96328733D01*
X207240000Y-96671267D02*
X207240000Y-96328733D01*
X204240000Y-96328733D02*
X204240000Y-96671267D01*
X205260000Y-96328733D02*
X205260000Y-96671267D01*
X171760000Y-90861267D02*
X171760000Y-90518733D01*
X170740000Y-90861267D02*
X170740000Y-90518733D01*
X180760000Y-90861267D02*
X180760000Y-90518733D01*
X179740000Y-90861267D02*
X179740000Y-90518733D01*
X168760000Y-86861267D02*
X168760000Y-86518733D01*
X167740000Y-86861267D02*
X167740000Y-86518733D01*
X183760000Y-86861267D02*
X183760000Y-86518733D01*
X182740000Y-86861267D02*
X182740000Y-86518733D01*
X174760000Y-79361267D02*
X174760000Y-79018733D01*
X173740000Y-79361267D02*
X173740000Y-79018733D01*
X179740000Y-79018733D02*
X179740000Y-79361267D01*
X180760000Y-79018733D02*
X180760000Y-79361267D01*
X143610000Y-84111267D02*
X143610000Y-83768733D01*
X142590000Y-84111267D02*
X142590000Y-83768733D01*
X149560000Y-78611267D02*
X149560000Y-78268733D01*
X148540000Y-78611267D02*
X148540000Y-78268733D01*
X154540000Y-78268733D02*
X154540000Y-78611267D01*
X155560000Y-78268733D02*
X155560000Y-78611267D01*
X233790000Y-109328733D02*
X233790000Y-109671267D01*
X234810000Y-109328733D02*
X234810000Y-109671267D01*
X155220000Y-121631267D02*
X155220000Y-121288733D01*
X154200000Y-121631267D02*
X154200000Y-121288733D01*
X156478733Y-134010000D02*
X156821267Y-134010000D01*
X156478733Y-132990000D02*
X156821267Y-132990000D01*
X147071267Y-122740000D02*
X146728733Y-122740000D01*
X147071267Y-123760000D02*
X146728733Y-123760000D01*
X152821267Y-132990000D02*
X152478733Y-132990000D01*
X152821267Y-134010000D02*
X152478733Y-134010000D01*
X147071267Y-129490000D02*
X146728733Y-129490000D01*
X147071267Y-130510000D02*
X146728733Y-130510000D01*
X147071267Y-131740000D02*
X146728733Y-131740000D01*
X147071267Y-132760000D02*
X146728733Y-132760000D01*
X147071267Y-127240000D02*
X146728733Y-127240000D01*
X147071267Y-128260000D02*
X146728733Y-128260000D01*
X228920000Y-81260000D02*
X228920000Y-79800000D01*
X232080000Y-81260000D02*
X232080000Y-79100000D01*
X232080000Y-81260000D02*
X231150000Y-81260000D01*
X228920000Y-81260000D02*
X229850000Y-81260000D01*
X198830000Y-79740000D02*
X198830000Y-81200000D01*
X195670000Y-79740000D02*
X195670000Y-81900000D01*
X195670000Y-79740000D02*
X196600000Y-79740000D01*
X198830000Y-79740000D02*
X197900000Y-79740000D01*
X228920000Y-85510000D02*
X228920000Y-84050000D01*
X232080000Y-85510000D02*
X232080000Y-83350000D01*
X232080000Y-85510000D02*
X231150000Y-85510000D01*
X228920000Y-85510000D02*
X229850000Y-85510000D01*
X198830000Y-83740000D02*
X198830000Y-85200000D01*
X195670000Y-83740000D02*
X195670000Y-85900000D01*
X195670000Y-83740000D02*
X196600000Y-83740000D01*
X198830000Y-83740000D02*
X197900000Y-83740000D01*
X164250000Y-116600000D02*
X160350000Y-116600000D01*
X164250000Y-114600000D02*
X160350000Y-114600000D01*
X164250000Y-116600000D02*
X164250000Y-114600000D01*
X149550000Y-116600000D02*
X145650000Y-116600000D01*
X149550000Y-114600000D02*
X145650000Y-114600000D01*
X149550000Y-116600000D02*
X149550000Y-114600000D01*
X219252500Y-85812500D02*
X219877500Y-85812500D01*
X219565000Y-86125000D02*
X219565000Y-85500000D01*
X222945563Y-85260000D02*
X224010000Y-84195563D01*
X219554437Y-85260000D02*
X218490000Y-84195563D01*
X219554437Y-85260000D02*
X220190000Y-85260000D01*
X222945563Y-85260000D02*
X222310000Y-85260000D01*
X224010000Y-84195563D02*
X224010000Y-79740000D01*
X218490000Y-84195563D02*
X218490000Y-79740000D01*
X218490000Y-79740000D02*
X220190000Y-79740000D01*
X224010000Y-79740000D02*
X222310000Y-79740000D01*
X205002500Y-85812500D02*
X205627500Y-85812500D01*
X205315000Y-86125000D02*
X205315000Y-85500000D01*
X208695563Y-85260000D02*
X209760000Y-84195563D01*
X205304437Y-85260000D02*
X204240000Y-84195563D01*
X205304437Y-85260000D02*
X205940000Y-85260000D01*
X208695563Y-85260000D02*
X208060000Y-85260000D01*
X209760000Y-84195563D02*
X209760000Y-79740000D01*
X204240000Y-84195563D02*
X204240000Y-79740000D01*
X204240000Y-79740000D02*
X205940000Y-79740000D01*
X209760000Y-79740000D02*
X208060000Y-79740000D01*
X219740000Y-88328733D02*
X219740000Y-88671267D01*
X220760000Y-88328733D02*
X220760000Y-88671267D01*
X204240000Y-88328733D02*
X204240000Y-88671267D01*
X205260000Y-88328733D02*
X205260000Y-88671267D01*
X217510000Y-92671267D02*
X217510000Y-92328733D01*
X216490000Y-92671267D02*
X216490000Y-92328733D01*
X208260000Y-88671267D02*
X208260000Y-88328733D01*
X207240000Y-88671267D02*
X207240000Y-88328733D01*
X219490000Y-96328733D02*
X219490000Y-96671267D01*
X220510000Y-96328733D02*
X220510000Y-96671267D01*
X210240000Y-96328733D02*
X210240000Y-96671267D01*
X211260000Y-96328733D02*
X211260000Y-96671267D01*
X223760000Y-96671267D02*
X223760000Y-96328733D01*
X222740000Y-96671267D02*
X222740000Y-96328733D01*
X202260000Y-96671267D02*
X202260000Y-96328733D01*
X201240000Y-96671267D02*
X201240000Y-96328733D01*
X214510000Y-92671267D02*
X214510000Y-92328733D01*
X213490000Y-92671267D02*
X213490000Y-92328733D01*
X213490000Y-82028733D02*
X213490000Y-82371267D01*
X214510000Y-82028733D02*
X214510000Y-82371267D01*
X167740000Y-90518733D02*
X167740000Y-90861267D01*
X168760000Y-90518733D02*
X168760000Y-90861267D01*
X171760000Y-86861267D02*
X171760000Y-86518733D01*
X170740000Y-86861267D02*
X170740000Y-86518733D01*
X182740000Y-90518733D02*
X182740000Y-90861267D01*
X183760000Y-90518733D02*
X183760000Y-90861267D01*
X167690000Y-83690000D02*
X168190000Y-83690000D01*
X167940000Y-83940000D02*
X167940000Y-83440000D01*
X170695563Y-83200000D02*
X171760000Y-82135563D01*
X168304437Y-83200000D02*
X167240000Y-82135563D01*
X168304437Y-83200000D02*
X168440000Y-83200000D01*
X170695563Y-83200000D02*
X170560000Y-83200000D01*
X171760000Y-82135563D02*
X171760000Y-78680000D01*
X167240000Y-82135563D02*
X167240000Y-78680000D01*
X167240000Y-78680000D02*
X168440000Y-78680000D01*
X171760000Y-78680000D02*
X170560000Y-78680000D01*
X183190000Y-83690000D02*
X183690000Y-83690000D01*
X183440000Y-83940000D02*
X183440000Y-83440000D01*
X186195563Y-83200000D02*
X187260000Y-82135563D01*
X183804437Y-83200000D02*
X182740000Y-82135563D01*
X183804437Y-83200000D02*
X183940000Y-83200000D01*
X186195563Y-83200000D02*
X186060000Y-83200000D01*
X187260000Y-82135563D02*
X187260000Y-78680000D01*
X182740000Y-82135563D02*
X182740000Y-78680000D01*
X182740000Y-78680000D02*
X183940000Y-78680000D01*
X187260000Y-78680000D02*
X186060000Y-78680000D01*
X177760000Y-79361267D02*
X177760000Y-79018733D01*
X176740000Y-79361267D02*
X176740000Y-79018733D01*
X146560000Y-84111267D02*
X146560000Y-83768733D01*
X145540000Y-84111267D02*
X145540000Y-83768733D01*
X146800000Y-81250000D02*
X146800000Y-80750000D01*
X147050000Y-81000000D02*
X146550000Y-81000000D01*
X146310000Y-78244437D02*
X145245563Y-77180000D01*
X146310000Y-80635563D02*
X145245563Y-81700000D01*
X146310000Y-80635563D02*
X146310000Y-80500000D01*
X146310000Y-78244437D02*
X146310000Y-78380000D01*
X145245563Y-77180000D02*
X141790000Y-77180000D01*
X145245563Y-81700000D02*
X141790000Y-81700000D01*
X141790000Y-81700000D02*
X141790000Y-80500000D01*
X141790000Y-77180000D02*
X141790000Y-78380000D01*
X158250000Y-79140000D02*
X158250000Y-79640000D01*
X158000000Y-79390000D02*
X158500000Y-79390000D01*
X158740000Y-82145563D02*
X159804437Y-83210000D01*
X158740000Y-79754437D02*
X159804437Y-78690000D01*
X158740000Y-79754437D02*
X158740000Y-79890000D01*
X158740000Y-82145563D02*
X158740000Y-82010000D01*
X159804437Y-83210000D02*
X163260000Y-83210000D01*
X159804437Y-78690000D02*
X163260000Y-78690000D01*
X163260000Y-78690000D02*
X163260000Y-79890000D01*
X163260000Y-83210000D02*
X163260000Y-82010000D01*
X152560000Y-78611267D02*
X152560000Y-78268733D01*
X151540000Y-78611267D02*
X151540000Y-78268733D01*
X222610000Y-109671267D02*
X222610000Y-109328733D01*
X221590000Y-109671267D02*
X221590000Y-109328733D01*
X225710000Y-109671267D02*
X225710000Y-109328733D01*
X224690000Y-109671267D02*
X224690000Y-109328733D01*
X227690000Y-109328733D02*
X227690000Y-109671267D01*
X228710000Y-109328733D02*
X228710000Y-109671267D01*
X230790000Y-109328733D02*
X230790000Y-109671267D01*
X231810000Y-109328733D02*
X231810000Y-109671267D01*
X225578733Y-125160000D02*
X225921267Y-125160000D01*
X225578733Y-124140000D02*
X225921267Y-124140000D01*
X225578733Y-123160000D02*
X225921267Y-123160000D01*
X225578733Y-122140000D02*
X225921267Y-122140000D01*
X218990000Y-118978733D02*
X218990000Y-119321267D01*
X220010000Y-118978733D02*
X220010000Y-119321267D01*
X229578733Y-123160000D02*
X229921267Y-123160000D01*
X229578733Y-122140000D02*
X229921267Y-122140000D01*
X220990000Y-118978733D02*
X220990000Y-119321267D01*
X222010000Y-118978733D02*
X222010000Y-119321267D01*
X177760000Y-90861267D02*
X177760000Y-90518733D01*
X176740000Y-90861267D02*
X176740000Y-90518733D01*
X174760000Y-90861267D02*
X174760000Y-90518733D01*
X173740000Y-90861267D02*
X173740000Y-90518733D01*
X191671267Y-99990000D02*
X191328733Y-99990000D01*
X191671267Y-101010000D02*
X191328733Y-101010000D01*
X191671267Y-101990000D02*
X191328733Y-101990000D01*
X191671267Y-103010000D02*
X191328733Y-103010000D01*
X183250000Y-100690000D02*
X183250000Y-101190000D01*
X183000000Y-100940000D02*
X183500000Y-100940000D01*
X183740000Y-103695563D02*
X184804437Y-104760000D01*
X183740000Y-101304437D02*
X184804437Y-100240000D01*
X183740000Y-101304437D02*
X183740000Y-101440000D01*
X183740000Y-103695563D02*
X183740000Y-103560000D01*
X184804437Y-104760000D02*
X188260000Y-104760000D01*
X184804437Y-100240000D02*
X188260000Y-100240000D01*
X188260000Y-100240000D02*
X188260000Y-101440000D01*
X188260000Y-104760000D02*
X188260000Y-103560000D01*
X183250000Y-107690000D02*
X183250000Y-108190000D01*
X183000000Y-107940000D02*
X183500000Y-107940000D01*
X183740000Y-110695563D02*
X184804437Y-111760000D01*
X183740000Y-108304437D02*
X184804437Y-107240000D01*
X183740000Y-108304437D02*
X183740000Y-108440000D01*
X183740000Y-110695563D02*
X183740000Y-110560000D01*
X184804437Y-111760000D02*
X188260000Y-111760000D01*
X184804437Y-107240000D02*
X188260000Y-107240000D01*
X188260000Y-107240000D02*
X188260000Y-108440000D01*
X188260000Y-111760000D02*
X188260000Y-110560000D01*
X191328733Y-109510000D02*
X191671267Y-109510000D01*
X191328733Y-108490000D02*
X191671267Y-108490000D01*
X191328733Y-111510000D02*
X191671267Y-111510000D01*
X191328733Y-110490000D02*
X191671267Y-110490000D01*
X185010000Y-121171267D02*
X185010000Y-120828733D01*
X183990000Y-121171267D02*
X183990000Y-120828733D01*
X183010000Y-121171267D02*
X183010000Y-120828733D01*
X181990000Y-121171267D02*
X181990000Y-120828733D01*
X181010000Y-121171267D02*
X181010000Y-120828733D01*
X179990000Y-121171267D02*
X179990000Y-120828733D01*
X183990000Y-134328733D02*
X183990000Y-134671267D01*
X185010000Y-134328733D02*
X185010000Y-134671267D01*
X181990000Y-134328733D02*
X181990000Y-134671267D01*
X183010000Y-134328733D02*
X183010000Y-134671267D01*
X179990000Y-134328733D02*
X179990000Y-134671267D01*
X181010000Y-134328733D02*
X181010000Y-134671267D01*
X175010000Y-121021267D02*
X175010000Y-120678733D01*
X173990000Y-121021267D02*
X173990000Y-120678733D01*
X173010000Y-121021267D02*
X173010000Y-120678733D01*
X171990000Y-121021267D02*
X171990000Y-120678733D01*
X171010000Y-121021267D02*
X171010000Y-120678733D01*
X169990000Y-121021267D02*
X169990000Y-120678733D01*
X173990000Y-134178733D02*
X173990000Y-134521267D01*
X175010000Y-134178733D02*
X175010000Y-134521267D01*
X171990000Y-134178733D02*
X171990000Y-134521267D01*
X173010000Y-134178733D02*
X173010000Y-134521267D01*
X169990000Y-134178733D02*
X169990000Y-134521267D01*
X171010000Y-134178733D02*
X171010000Y-134521267D01*
X201990000Y-122828733D02*
X201990000Y-123171267D01*
X203010000Y-122828733D02*
X203010000Y-123171267D01*
X201010000Y-123171267D02*
X201010000Y-122828733D01*
X199990000Y-123171267D02*
X199990000Y-122828733D01*
X199990000Y-131828733D02*
X199990000Y-132171267D01*
X201010000Y-131828733D02*
X201010000Y-132171267D01*
X201990000Y-131828733D02*
X201990000Y-132171267D01*
X203010000Y-131828733D02*
X203010000Y-132171267D01*
X176771267Y-102090000D02*
X176428733Y-102090000D01*
X176771267Y-103110000D02*
X176428733Y-103110000D01*
X176771267Y-100090000D02*
X176428733Y-100090000D01*
X176771267Y-101110000D02*
X176428733Y-101110000D01*
X168250000Y-100690000D02*
X168250000Y-101190000D01*
X168000000Y-100940000D02*
X168500000Y-100940000D01*
X168740000Y-103695563D02*
X169804437Y-104760000D01*
X168740000Y-101304437D02*
X169804437Y-100240000D01*
X168740000Y-101304437D02*
X168740000Y-101440000D01*
X168740000Y-103695563D02*
X168740000Y-103560000D01*
X169804437Y-104760000D02*
X173260000Y-104760000D01*
X169804437Y-100240000D02*
X173260000Y-100240000D01*
X173260000Y-100240000D02*
X173260000Y-101440000D01*
X173260000Y-104760000D02*
X173260000Y-103560000D01*
X168150000Y-107690000D02*
X168150000Y-108190000D01*
X167900000Y-107940000D02*
X168400000Y-107940000D01*
X168640000Y-110695563D02*
X169704437Y-111760000D01*
X168640000Y-108304437D02*
X169704437Y-107240000D01*
X168640000Y-108304437D02*
X168640000Y-108440000D01*
X168640000Y-110695563D02*
X168640000Y-110560000D01*
X169704437Y-111760000D02*
X173160000Y-111760000D01*
X169704437Y-107240000D02*
X173160000Y-107240000D01*
X173160000Y-107240000D02*
X173160000Y-108440000D01*
X173160000Y-111760000D02*
X173160000Y-110560000D01*
X176328733Y-109510000D02*
X176671267Y-109510000D01*
X176328733Y-108490000D02*
X176671267Y-108490000D01*
X176328733Y-111510000D02*
X176671267Y-111510000D01*
X176328733Y-110490000D02*
X176671267Y-110490000D01*
X191010000Y-121171267D02*
X191010000Y-120828733D01*
X189990000Y-121171267D02*
X189990000Y-120828733D01*
X193010000Y-121171267D02*
X193010000Y-120828733D01*
X191990000Y-121171267D02*
X191990000Y-120828733D01*
X195010000Y-121171267D02*
X195010000Y-120828733D01*
X193990000Y-121171267D02*
X193990000Y-120828733D01*
X193990000Y-134328733D02*
X193990000Y-134671267D01*
X195010000Y-134328733D02*
X195010000Y-134671267D01*
X191990000Y-134328733D02*
X191990000Y-134671267D01*
X193010000Y-134328733D02*
X193010000Y-134671267D01*
X189990000Y-134328733D02*
X189990000Y-134671267D01*
X191010000Y-134328733D02*
X191010000Y-134671267D01*
X161871267Y-132090000D02*
X161528733Y-132090000D01*
X161871267Y-133110000D02*
X161528733Y-133110000D01*
X161528733Y-130910000D02*
X161871267Y-130910000D01*
X161528733Y-129890000D02*
X161871267Y-129890000D01*
X144160000Y-131171267D02*
X144160000Y-130828733D01*
X143140000Y-131171267D02*
X143140000Y-130828733D01*
X144160000Y-126921267D02*
X144160000Y-126578733D01*
X143140000Y-126921267D02*
X143140000Y-126578733D01*
X199890000Y-126600000D02*
X199890000Y-129050000D01*
X203110000Y-128400000D02*
X203110000Y-126600000D01*
X152400000Y-85600000D02*
X155850000Y-85600000D01*
X152400000Y-85600000D02*
X150450000Y-85600000D01*
X152400000Y-80480000D02*
X154350000Y-80480000D01*
X152400000Y-80480000D02*
X150450000Y-80480000D01*
X177250000Y-87500000D02*
X180700000Y-87500000D01*
X177250000Y-87500000D02*
X175300000Y-87500000D01*
X177250000Y-82380000D02*
X179200000Y-82380000D01*
X177250000Y-82380000D02*
X175300000Y-82380000D01*
X214000000Y-84690000D02*
X210550000Y-84690000D01*
X214000000Y-84690000D02*
X215950000Y-84690000D01*
X214000000Y-89810000D02*
X212050000Y-89810000D01*
X214000000Y-89810000D02*
X215950000Y-89810000D01*
X195060000Y-127500000D02*
X195060000Y-124050000D01*
X195060000Y-127500000D02*
X195060000Y-129450000D01*
X189940000Y-127500000D02*
X189940000Y-125550000D01*
X189940000Y-127500000D02*
X189940000Y-129450000D01*
X175060000Y-127500000D02*
X175060000Y-124050000D01*
X175060000Y-127500000D02*
X175060000Y-129450000D01*
X169940000Y-127500000D02*
X169940000Y-125550000D01*
X169940000Y-127500000D02*
X169940000Y-129450000D01*
X185060000Y-127500000D02*
X185060000Y-124050000D01*
X185060000Y-127500000D02*
X185060000Y-129450000D01*
X179940000Y-127500000D02*
X179940000Y-125550000D01*
X179940000Y-127500000D02*
X179940000Y-129450000D01*
X143697936Y-120960000D02*
X144902064Y-120960000D01*
X143697936Y-118240000D02*
X144902064Y-118240000D01*
X165502064Y-118340000D02*
X164297936Y-118340000D01*
X165502064Y-121060000D02*
X164297936Y-121060000D01*
X229947936Y-125960000D02*
X231152064Y-125960000D01*
X229947936Y-124140000D02*
X231152064Y-124140000D01*
X162010000Y-126702064D02*
X162010000Y-125497936D01*
X160190000Y-126702064D02*
X160190000Y-125497936D01*
X164510000Y-126702064D02*
X164510000Y-125497936D01*
X162690000Y-126702064D02*
X162690000Y-125497936D01*
X167010000Y-126702064D02*
X167010000Y-125497936D01*
X165190000Y-126702064D02*
X165190000Y-125497936D01*
X161528733Y-135310000D02*
X161871267Y-135310000D01*
X161528733Y-134290000D02*
X161871267Y-134290000D01*
X210812500Y-104097500D02*
X210812500Y-103472500D01*
X211125000Y-103785000D02*
X210500000Y-103785000D01*
X210260000Y-100404437D02*
X209195563Y-99340000D01*
X210260000Y-103795563D02*
X209195563Y-104860000D01*
X210260000Y-103795563D02*
X210260000Y-103160000D01*
X210260000Y-100404437D02*
X210260000Y-101040000D01*
X209195563Y-99340000D02*
X204740000Y-99340000D01*
X209195563Y-104860000D02*
X204740000Y-104860000D01*
X204740000Y-104860000D02*
X204740000Y-103160000D01*
X204740000Y-99340000D02*
X204740000Y-101040000D01*
X213987500Y-100102500D02*
X213987500Y-100727500D01*
X213675000Y-100415000D02*
X214300000Y-100415000D01*
X214540000Y-103795563D02*
X215604437Y-104860000D01*
X214540000Y-100404437D02*
X215604437Y-99340000D01*
X214540000Y-100404437D02*
X214540000Y-101040000D01*
X214540000Y-103795563D02*
X214540000Y-103160000D01*
X215604437Y-104860000D02*
X220060000Y-104860000D01*
X215604437Y-99340000D02*
X220060000Y-99340000D01*
X220060000Y-99340000D02*
X220060000Y-101040000D01*
X220060000Y-104860000D02*
X220060000Y-103160000D01*
D10*
X145800000Y-73086000D02*
X145800000Y-75930000D01*
X142400000Y-57210000D02*
X142400000Y-68210000D01*
X157200000Y-75930000D02*
X157200000Y-73016000D01*
X160600000Y-73010000D02*
X142400000Y-73010000D01*
X142400000Y-73010000D02*
X142400000Y-69818000D01*
X141947340Y-56395000D02*
G75*
G03X141947340Y-56395000I-143340J0D01*
G01*
X145800000Y-75930000D02*
X157200000Y-75930000D01*
X142400000Y-52400000D02*
X160600000Y-52400000D01*
X160600000Y-52400000D02*
X160600000Y-55389000D01*
X160600000Y-57210000D02*
X160600000Y-68210000D01*
X160600000Y-73010000D02*
X160600000Y-69818000D01*
X142400000Y-73010000D02*
X142400000Y-52400000D01*
X170800000Y-73086000D02*
X170800000Y-75930000D01*
X167400000Y-57210000D02*
X167400000Y-68210000D01*
X182200000Y-75930000D02*
X182200000Y-73016000D01*
X185600000Y-73010000D02*
X167400000Y-73010000D01*
X167400000Y-73010000D02*
X167400000Y-69818000D01*
X166947340Y-56395000D02*
G75*
G03X166947340Y-56395000I-143340J0D01*
G01*
X170800000Y-75930000D02*
X182200000Y-75930000D01*
X167400000Y-52400000D02*
X185600000Y-52400000D01*
X185600000Y-52400000D02*
X185600000Y-55389000D01*
X185600000Y-57210000D02*
X185600000Y-68210000D01*
X185600000Y-73010000D02*
X185600000Y-69818000D01*
X167400000Y-73010000D02*
X167400000Y-52400000D01*
X192400000Y-73010000D02*
X192400000Y-52400000D01*
X210600000Y-73010000D02*
X210600000Y-69818000D01*
X210600000Y-57210000D02*
X210600000Y-68210000D01*
X210600000Y-52400000D02*
X210600000Y-55389000D01*
X192400000Y-52400000D02*
X210600000Y-52400000D01*
X195800000Y-75930000D02*
X207200000Y-75930000D01*
X191947340Y-56395000D02*
G75*
G03X191947340Y-56395000I-143340J0D01*
G01*
X192400000Y-73010000D02*
X192400000Y-69818000D01*
X210600000Y-73010000D02*
X192400000Y-73010000D01*
X207200000Y-75930000D02*
X207200000Y-73016000D01*
X192400000Y-57210000D02*
X192400000Y-68210000D01*
X195800000Y-73086000D02*
X195800000Y-75930000D01*
X217400000Y-73010000D02*
X217400000Y-52400000D01*
X235600000Y-73010000D02*
X235600000Y-69818000D01*
X235600000Y-57210000D02*
X235600000Y-68210000D01*
X235600000Y-52400000D02*
X235600000Y-55389000D01*
X217400000Y-52400000D02*
X235600000Y-52400000D01*
X220800000Y-75930000D02*
X232200000Y-75930000D01*
X216947340Y-56395000D02*
G75*
G03X216947340Y-56395000I-143340J0D01*
G01*
X217400000Y-73010000D02*
X217400000Y-69818000D01*
X235600000Y-73010000D02*
X217400000Y-73010000D01*
X232200000Y-75930000D02*
X232200000Y-73016000D01*
X217400000Y-57210000D02*
X217400000Y-68210000D01*
X220800000Y-73086000D02*
X220800000Y-75930000D01*
D12*
X156452380Y-118366666D02*
X156452380Y-118842857D01*
X155452380Y-118842857D01*
X155547619Y-118080952D02*
X155500000Y-118033333D01*
X155452380Y-117938095D01*
X155452380Y-117700000D01*
X155500000Y-117604761D01*
X155547619Y-117557142D01*
X155642857Y-117509523D01*
X155738095Y-117509523D01*
X155880952Y-117557142D01*
X156452380Y-118128571D01*
X156452380Y-117509523D01*
X153752380Y-121366666D02*
X153752380Y-121842857D01*
X152752380Y-121842857D01*
X153752380Y-120509523D02*
X153752380Y-121080952D01*
X153752380Y-120795238D02*
X152752380Y-120795238D01*
X152895238Y-120890476D01*
X152990476Y-120985714D01*
X153038095Y-121080952D01*
X233702380Y-120411904D02*
X234511904Y-120411904D01*
X234607142Y-120364285D01*
X234654761Y-120316666D01*
X234702380Y-120221428D01*
X234702380Y-120030952D01*
X234654761Y-119935714D01*
X234607142Y-119888095D01*
X234511904Y-119840476D01*
X233702380Y-119840476D01*
X234130952Y-119221428D02*
X234083333Y-119316666D01*
X234035714Y-119364285D01*
X233940476Y-119411904D01*
X233892857Y-119411904D01*
X233797619Y-119364285D01*
X233750000Y-119316666D01*
X233702380Y-119221428D01*
X233702380Y-119030952D01*
X233750000Y-118935714D01*
X233797619Y-118888095D01*
X233892857Y-118840476D01*
X233940476Y-118840476D01*
X234035714Y-118888095D01*
X234083333Y-118935714D01*
X234130952Y-119030952D01*
X234130952Y-119221428D01*
X234178571Y-119316666D01*
X234226190Y-119364285D01*
X234321428Y-119411904D01*
X234511904Y-119411904D01*
X234607142Y-119364285D01*
X234654761Y-119316666D01*
X234702380Y-119221428D01*
X234702380Y-119030952D01*
X234654761Y-118935714D01*
X234607142Y-118888095D01*
X234511904Y-118840476D01*
X234321428Y-118840476D01*
X234226190Y-118888095D01*
X234178571Y-118935714D01*
X234130952Y-119030952D01*
X188252380Y-106761904D02*
X189061904Y-106761904D01*
X189157142Y-106714285D01*
X189204761Y-106666666D01*
X189252380Y-106571428D01*
X189252380Y-106380952D01*
X189204761Y-106285714D01*
X189157142Y-106238095D01*
X189061904Y-106190476D01*
X188252380Y-106190476D01*
X188252380Y-105809523D02*
X188252380Y-105142857D01*
X189252380Y-105571428D01*
X173252380Y-106761904D02*
X174061904Y-106761904D01*
X174157142Y-106714285D01*
X174204761Y-106666666D01*
X174252380Y-106571428D01*
X174252380Y-106380952D01*
X174204761Y-106285714D01*
X174157142Y-106238095D01*
X174061904Y-106190476D01*
X173252380Y-106190476D01*
X173252380Y-105809523D02*
X173252380Y-105190476D01*
X173633333Y-105523809D01*
X173633333Y-105380952D01*
X173680952Y-105285714D01*
X173728571Y-105238095D01*
X173823809Y-105190476D01*
X174061904Y-105190476D01*
X174157142Y-105238095D01*
X174204761Y-105285714D01*
X174252380Y-105380952D01*
X174252380Y-105666666D01*
X174204761Y-105761904D01*
X174157142Y-105809523D01*
X153888095Y-127202380D02*
X153888095Y-128011904D01*
X153935714Y-128107142D01*
X153983333Y-128154761D01*
X154078571Y-128202380D01*
X154269047Y-128202380D01*
X154364285Y-128154761D01*
X154411904Y-128107142D01*
X154459523Y-128011904D01*
X154459523Y-127202380D01*
X155459523Y-128202380D02*
X154888095Y-128202380D01*
X155173809Y-128202380D02*
X155173809Y-127202380D01*
X155078571Y-127345238D01*
X154983333Y-127440476D01*
X154888095Y-127488095D01*
X236452380Y-81142857D02*
X235976190Y-81476190D01*
X236452380Y-81714285D02*
X235452380Y-81714285D01*
X235452380Y-81333333D01*
X235500000Y-81238095D01*
X235547619Y-81190476D01*
X235642857Y-81142857D01*
X235785714Y-81142857D01*
X235880952Y-81190476D01*
X235928571Y-81238095D01*
X235976190Y-81333333D01*
X235976190Y-81714285D01*
X235785714Y-80285714D02*
X236452380Y-80285714D01*
X235404761Y-80523809D02*
X236119047Y-80761904D01*
X236119047Y-80142857D01*
X235452380Y-79571428D02*
X235452380Y-79476190D01*
X235500000Y-79380952D01*
X235547619Y-79333333D01*
X235642857Y-79285714D01*
X235833333Y-79238095D01*
X236071428Y-79238095D01*
X236261904Y-79285714D01*
X236357142Y-79333333D01*
X236404761Y-79380952D01*
X236452380Y-79476190D01*
X236452380Y-79571428D01*
X236404761Y-79666666D01*
X236357142Y-79714285D01*
X236261904Y-79761904D01*
X236071428Y-79809523D01*
X235833333Y-79809523D01*
X235642857Y-79761904D01*
X235547619Y-79714285D01*
X235500000Y-79666666D01*
X235452380Y-79571428D01*
X194702380Y-81142857D02*
X194226190Y-81476190D01*
X194702380Y-81714285D02*
X193702380Y-81714285D01*
X193702380Y-81333333D01*
X193750000Y-81238095D01*
X193797619Y-81190476D01*
X193892857Y-81142857D01*
X194035714Y-81142857D01*
X194130952Y-81190476D01*
X194178571Y-81238095D01*
X194226190Y-81333333D01*
X194226190Y-81714285D01*
X193702380Y-80809523D02*
X193702380Y-80190476D01*
X194083333Y-80523809D01*
X194083333Y-80380952D01*
X194130952Y-80285714D01*
X194178571Y-80238095D01*
X194273809Y-80190476D01*
X194511904Y-80190476D01*
X194607142Y-80238095D01*
X194654761Y-80285714D01*
X194702380Y-80380952D01*
X194702380Y-80666666D01*
X194654761Y-80761904D01*
X194607142Y-80809523D01*
X194702380Y-79714285D02*
X194702380Y-79523809D01*
X194654761Y-79428571D01*
X194607142Y-79380952D01*
X194464285Y-79285714D01*
X194273809Y-79238095D01*
X193892857Y-79238095D01*
X193797619Y-79285714D01*
X193750000Y-79333333D01*
X193702380Y-79428571D01*
X193702380Y-79619047D01*
X193750000Y-79714285D01*
X193797619Y-79761904D01*
X193892857Y-79809523D01*
X194130952Y-79809523D01*
X194226190Y-79761904D01*
X194273809Y-79714285D01*
X194321428Y-79619047D01*
X194321428Y-79428571D01*
X194273809Y-79333333D01*
X194226190Y-79285714D01*
X194130952Y-79238095D01*
X236452380Y-85142857D02*
X235976190Y-85476190D01*
X236452380Y-85714285D02*
X235452380Y-85714285D01*
X235452380Y-85333333D01*
X235500000Y-85238095D01*
X235547619Y-85190476D01*
X235642857Y-85142857D01*
X235785714Y-85142857D01*
X235880952Y-85190476D01*
X235928571Y-85238095D01*
X235976190Y-85333333D01*
X235976190Y-85714285D01*
X235452380Y-84809523D02*
X235452380Y-84190476D01*
X235833333Y-84523809D01*
X235833333Y-84380952D01*
X235880952Y-84285714D01*
X235928571Y-84238095D01*
X236023809Y-84190476D01*
X236261904Y-84190476D01*
X236357142Y-84238095D01*
X236404761Y-84285714D01*
X236452380Y-84380952D01*
X236452380Y-84666666D01*
X236404761Y-84761904D01*
X236357142Y-84809523D01*
X235880952Y-83619047D02*
X235833333Y-83714285D01*
X235785714Y-83761904D01*
X235690476Y-83809523D01*
X235642857Y-83809523D01*
X235547619Y-83761904D01*
X235500000Y-83714285D01*
X235452380Y-83619047D01*
X235452380Y-83428571D01*
X235500000Y-83333333D01*
X235547619Y-83285714D01*
X235642857Y-83238095D01*
X235690476Y-83238095D01*
X235785714Y-83285714D01*
X235833333Y-83333333D01*
X235880952Y-83428571D01*
X235880952Y-83619047D01*
X235928571Y-83714285D01*
X235976190Y-83761904D01*
X236071428Y-83809523D01*
X236261904Y-83809523D01*
X236357142Y-83761904D01*
X236404761Y-83714285D01*
X236452380Y-83619047D01*
X236452380Y-83428571D01*
X236404761Y-83333333D01*
X236357142Y-83285714D01*
X236261904Y-83238095D01*
X236071428Y-83238095D01*
X235976190Y-83285714D01*
X235928571Y-83333333D01*
X235880952Y-83428571D01*
X194702380Y-85142857D02*
X194226190Y-85476190D01*
X194702380Y-85714285D02*
X193702380Y-85714285D01*
X193702380Y-85333333D01*
X193750000Y-85238095D01*
X193797619Y-85190476D01*
X193892857Y-85142857D01*
X194035714Y-85142857D01*
X194130952Y-85190476D01*
X194178571Y-85238095D01*
X194226190Y-85333333D01*
X194226190Y-85714285D01*
X193702380Y-84809523D02*
X193702380Y-84190476D01*
X194083333Y-84523809D01*
X194083333Y-84380952D01*
X194130952Y-84285714D01*
X194178571Y-84238095D01*
X194273809Y-84190476D01*
X194511904Y-84190476D01*
X194607142Y-84238095D01*
X194654761Y-84285714D01*
X194702380Y-84380952D01*
X194702380Y-84666666D01*
X194654761Y-84761904D01*
X194607142Y-84809523D01*
X193702380Y-83857142D02*
X193702380Y-83190476D01*
X194702380Y-83619047D01*
X228452380Y-85142857D02*
X227976190Y-85476190D01*
X228452380Y-85714285D02*
X227452380Y-85714285D01*
X227452380Y-85333333D01*
X227500000Y-85238095D01*
X227547619Y-85190476D01*
X227642857Y-85142857D01*
X227785714Y-85142857D01*
X227880952Y-85190476D01*
X227928571Y-85238095D01*
X227976190Y-85333333D01*
X227976190Y-85714285D01*
X227452380Y-84809523D02*
X227452380Y-84190476D01*
X227833333Y-84523809D01*
X227833333Y-84380952D01*
X227880952Y-84285714D01*
X227928571Y-84238095D01*
X228023809Y-84190476D01*
X228261904Y-84190476D01*
X228357142Y-84238095D01*
X228404761Y-84285714D01*
X228452380Y-84380952D01*
X228452380Y-84666666D01*
X228404761Y-84761904D01*
X228357142Y-84809523D01*
X227452380Y-83333333D02*
X227452380Y-83523809D01*
X227500000Y-83619047D01*
X227547619Y-83666666D01*
X227690476Y-83761904D01*
X227880952Y-83809523D01*
X228261904Y-83809523D01*
X228357142Y-83761904D01*
X228404761Y-83714285D01*
X228452380Y-83619047D01*
X228452380Y-83428571D01*
X228404761Y-83333333D01*
X228357142Y-83285714D01*
X228261904Y-83238095D01*
X228023809Y-83238095D01*
X227928571Y-83285714D01*
X227880952Y-83333333D01*
X227833333Y-83428571D01*
X227833333Y-83619047D01*
X227880952Y-83714285D01*
X227928571Y-83761904D01*
X228023809Y-83809523D01*
X203702380Y-85142857D02*
X203226190Y-85476190D01*
X203702380Y-85714285D02*
X202702380Y-85714285D01*
X202702380Y-85333333D01*
X202750000Y-85238095D01*
X202797619Y-85190476D01*
X202892857Y-85142857D01*
X203035714Y-85142857D01*
X203130952Y-85190476D01*
X203178571Y-85238095D01*
X203226190Y-85333333D01*
X203226190Y-85714285D01*
X202702380Y-84809523D02*
X202702380Y-84190476D01*
X203083333Y-84523809D01*
X203083333Y-84380952D01*
X203130952Y-84285714D01*
X203178571Y-84238095D01*
X203273809Y-84190476D01*
X203511904Y-84190476D01*
X203607142Y-84238095D01*
X203654761Y-84285714D01*
X203702380Y-84380952D01*
X203702380Y-84666666D01*
X203654761Y-84761904D01*
X203607142Y-84809523D01*
X202702380Y-83285714D02*
X202702380Y-83761904D01*
X203178571Y-83809523D01*
X203130952Y-83761904D01*
X203083333Y-83666666D01*
X203083333Y-83428571D01*
X203130952Y-83333333D01*
X203178571Y-83285714D01*
X203273809Y-83238095D01*
X203511904Y-83238095D01*
X203607142Y-83285714D01*
X203654761Y-83333333D01*
X203702380Y-83428571D01*
X203702380Y-83666666D01*
X203654761Y-83761904D01*
X203607142Y-83809523D01*
X228452380Y-81142857D02*
X227976190Y-81476190D01*
X228452380Y-81714285D02*
X227452380Y-81714285D01*
X227452380Y-81333333D01*
X227500000Y-81238095D01*
X227547619Y-81190476D01*
X227642857Y-81142857D01*
X227785714Y-81142857D01*
X227880952Y-81190476D01*
X227928571Y-81238095D01*
X227976190Y-81333333D01*
X227976190Y-81714285D01*
X227452380Y-80809523D02*
X227452380Y-80190476D01*
X227833333Y-80523809D01*
X227833333Y-80380952D01*
X227880952Y-80285714D01*
X227928571Y-80238095D01*
X228023809Y-80190476D01*
X228261904Y-80190476D01*
X228357142Y-80238095D01*
X228404761Y-80285714D01*
X228452380Y-80380952D01*
X228452380Y-80666666D01*
X228404761Y-80761904D01*
X228357142Y-80809523D01*
X227785714Y-79333333D02*
X228452380Y-79333333D01*
X227404761Y-79571428D02*
X228119047Y-79809523D01*
X228119047Y-79190476D01*
X203702380Y-81267857D02*
X203226190Y-81601190D01*
X203702380Y-81839285D02*
X202702380Y-81839285D01*
X202702380Y-81458333D01*
X202750000Y-81363095D01*
X202797619Y-81315476D01*
X202892857Y-81267857D01*
X203035714Y-81267857D01*
X203130952Y-81315476D01*
X203178571Y-81363095D01*
X203226190Y-81458333D01*
X203226190Y-81839285D01*
X202702380Y-80934523D02*
X202702380Y-80315476D01*
X203083333Y-80648809D01*
X203083333Y-80505952D01*
X203130952Y-80410714D01*
X203178571Y-80363095D01*
X203273809Y-80315476D01*
X203511904Y-80315476D01*
X203607142Y-80363095D01*
X203654761Y-80410714D01*
X203702380Y-80505952D01*
X203702380Y-80791666D01*
X203654761Y-80886904D01*
X203607142Y-80934523D01*
X202702380Y-79982142D02*
X202702380Y-79363095D01*
X203083333Y-79696428D01*
X203083333Y-79553571D01*
X203130952Y-79458333D01*
X203178571Y-79410714D01*
X203273809Y-79363095D01*
X203511904Y-79363095D01*
X203607142Y-79410714D01*
X203654761Y-79458333D01*
X203702380Y-79553571D01*
X203702380Y-79839285D01*
X203654761Y-79934523D01*
X203607142Y-79982142D01*
X225202380Y-89142857D02*
X224726190Y-89476190D01*
X225202380Y-89714285D02*
X224202380Y-89714285D01*
X224202380Y-89333333D01*
X224250000Y-89238095D01*
X224297619Y-89190476D01*
X224392857Y-89142857D01*
X224535714Y-89142857D01*
X224630952Y-89190476D01*
X224678571Y-89238095D01*
X224726190Y-89333333D01*
X224726190Y-89714285D01*
X224202380Y-88809523D02*
X224202380Y-88190476D01*
X224583333Y-88523809D01*
X224583333Y-88380952D01*
X224630952Y-88285714D01*
X224678571Y-88238095D01*
X224773809Y-88190476D01*
X225011904Y-88190476D01*
X225107142Y-88238095D01*
X225154761Y-88285714D01*
X225202380Y-88380952D01*
X225202380Y-88666666D01*
X225154761Y-88761904D01*
X225107142Y-88809523D01*
X224297619Y-87809523D02*
X224250000Y-87761904D01*
X224202380Y-87666666D01*
X224202380Y-87428571D01*
X224250000Y-87333333D01*
X224297619Y-87285714D01*
X224392857Y-87238095D01*
X224488095Y-87238095D01*
X224630952Y-87285714D01*
X225202380Y-87857142D01*
X225202380Y-87238095D01*
X203702380Y-89142857D02*
X203226190Y-89476190D01*
X203702380Y-89714285D02*
X202702380Y-89714285D01*
X202702380Y-89333333D01*
X202750000Y-89238095D01*
X202797619Y-89190476D01*
X202892857Y-89142857D01*
X203035714Y-89142857D01*
X203130952Y-89190476D01*
X203178571Y-89238095D01*
X203226190Y-89333333D01*
X203226190Y-89714285D01*
X202702380Y-88809523D02*
X202702380Y-88190476D01*
X203083333Y-88523809D01*
X203083333Y-88380952D01*
X203130952Y-88285714D01*
X203178571Y-88238095D01*
X203273809Y-88190476D01*
X203511904Y-88190476D01*
X203607142Y-88238095D01*
X203654761Y-88285714D01*
X203702380Y-88380952D01*
X203702380Y-88666666D01*
X203654761Y-88761904D01*
X203607142Y-88809523D01*
X203702380Y-87238095D02*
X203702380Y-87809523D01*
X203702380Y-87523809D02*
X202702380Y-87523809D01*
X202845238Y-87619047D01*
X202940476Y-87714285D01*
X202988095Y-87809523D01*
X215952380Y-97142857D02*
X215476190Y-97476190D01*
X215952380Y-97714285D02*
X214952380Y-97714285D01*
X214952380Y-97333333D01*
X215000000Y-97238095D01*
X215047619Y-97190476D01*
X215142857Y-97142857D01*
X215285714Y-97142857D01*
X215380952Y-97190476D01*
X215428571Y-97238095D01*
X215476190Y-97333333D01*
X215476190Y-97714285D01*
X214952380Y-96809523D02*
X214952380Y-96190476D01*
X215333333Y-96523809D01*
X215333333Y-96380952D01*
X215380952Y-96285714D01*
X215428571Y-96238095D01*
X215523809Y-96190476D01*
X215761904Y-96190476D01*
X215857142Y-96238095D01*
X215904761Y-96285714D01*
X215952380Y-96380952D01*
X215952380Y-96666666D01*
X215904761Y-96761904D01*
X215857142Y-96809523D01*
X214952380Y-95571428D02*
X214952380Y-95476190D01*
X215000000Y-95380952D01*
X215047619Y-95333333D01*
X215142857Y-95285714D01*
X215333333Y-95238095D01*
X215571428Y-95238095D01*
X215761904Y-95285714D01*
X215857142Y-95333333D01*
X215904761Y-95380952D01*
X215952380Y-95476190D01*
X215952380Y-95571428D01*
X215904761Y-95666666D01*
X215857142Y-95714285D01*
X215761904Y-95761904D01*
X215571428Y-95809523D01*
X215333333Y-95809523D01*
X215142857Y-95761904D01*
X215047619Y-95714285D01*
X215000000Y-95666666D01*
X214952380Y-95571428D01*
X221952380Y-93142857D02*
X221476190Y-93476190D01*
X221952380Y-93714285D02*
X220952380Y-93714285D01*
X220952380Y-93333333D01*
X221000000Y-93238095D01*
X221047619Y-93190476D01*
X221142857Y-93142857D01*
X221285714Y-93142857D01*
X221380952Y-93190476D01*
X221428571Y-93238095D01*
X221476190Y-93333333D01*
X221476190Y-93714285D01*
X221047619Y-92761904D02*
X221000000Y-92714285D01*
X220952380Y-92619047D01*
X220952380Y-92380952D01*
X221000000Y-92285714D01*
X221047619Y-92238095D01*
X221142857Y-92190476D01*
X221238095Y-92190476D01*
X221380952Y-92238095D01*
X221952380Y-92809523D01*
X221952380Y-92190476D01*
X221952380Y-91714285D02*
X221952380Y-91523809D01*
X221904761Y-91428571D01*
X221857142Y-91380952D01*
X221714285Y-91285714D01*
X221523809Y-91238095D01*
X221142857Y-91238095D01*
X221047619Y-91285714D01*
X221000000Y-91333333D01*
X220952380Y-91428571D01*
X220952380Y-91619047D01*
X221000000Y-91714285D01*
X221047619Y-91761904D01*
X221142857Y-91809523D01*
X221380952Y-91809523D01*
X221476190Y-91761904D01*
X221523809Y-91714285D01*
X221571428Y-91619047D01*
X221571428Y-91428571D01*
X221523809Y-91333333D01*
X221476190Y-91285714D01*
X221380952Y-91238095D01*
X225202380Y-93142857D02*
X224726190Y-93476190D01*
X225202380Y-93714285D02*
X224202380Y-93714285D01*
X224202380Y-93333333D01*
X224250000Y-93238095D01*
X224297619Y-93190476D01*
X224392857Y-93142857D01*
X224535714Y-93142857D01*
X224630952Y-93190476D01*
X224678571Y-93238095D01*
X224726190Y-93333333D01*
X224726190Y-93714285D01*
X224297619Y-92761904D02*
X224250000Y-92714285D01*
X224202380Y-92619047D01*
X224202380Y-92380952D01*
X224250000Y-92285714D01*
X224297619Y-92238095D01*
X224392857Y-92190476D01*
X224488095Y-92190476D01*
X224630952Y-92238095D01*
X225202380Y-92809523D01*
X225202380Y-92190476D01*
X224630952Y-91619047D02*
X224583333Y-91714285D01*
X224535714Y-91761904D01*
X224440476Y-91809523D01*
X224392857Y-91809523D01*
X224297619Y-91761904D01*
X224250000Y-91714285D01*
X224202380Y-91619047D01*
X224202380Y-91428571D01*
X224250000Y-91333333D01*
X224297619Y-91285714D01*
X224392857Y-91238095D01*
X224440476Y-91238095D01*
X224535714Y-91285714D01*
X224583333Y-91333333D01*
X224630952Y-91428571D01*
X224630952Y-91619047D01*
X224678571Y-91714285D01*
X224726190Y-91761904D01*
X224821428Y-91809523D01*
X225011904Y-91809523D01*
X225107142Y-91761904D01*
X225154761Y-91714285D01*
X225202380Y-91619047D01*
X225202380Y-91428571D01*
X225154761Y-91333333D01*
X225107142Y-91285714D01*
X225011904Y-91238095D01*
X224821428Y-91238095D01*
X224726190Y-91285714D01*
X224678571Y-91333333D01*
X224630952Y-91428571D01*
X212702380Y-93142857D02*
X212226190Y-93476190D01*
X212702380Y-93714285D02*
X211702380Y-93714285D01*
X211702380Y-93333333D01*
X211750000Y-93238095D01*
X211797619Y-93190476D01*
X211892857Y-93142857D01*
X212035714Y-93142857D01*
X212130952Y-93190476D01*
X212178571Y-93238095D01*
X212226190Y-93333333D01*
X212226190Y-93714285D01*
X211797619Y-92761904D02*
X211750000Y-92714285D01*
X211702380Y-92619047D01*
X211702380Y-92380952D01*
X211750000Y-92285714D01*
X211797619Y-92238095D01*
X211892857Y-92190476D01*
X211988095Y-92190476D01*
X212130952Y-92238095D01*
X212702380Y-92809523D01*
X212702380Y-92190476D01*
X211702380Y-91857142D02*
X211702380Y-91190476D01*
X212702380Y-91619047D01*
X209702380Y-93142857D02*
X209226190Y-93476190D01*
X209702380Y-93714285D02*
X208702380Y-93714285D01*
X208702380Y-93333333D01*
X208750000Y-93238095D01*
X208797619Y-93190476D01*
X208892857Y-93142857D01*
X209035714Y-93142857D01*
X209130952Y-93190476D01*
X209178571Y-93238095D01*
X209226190Y-93333333D01*
X209226190Y-93714285D01*
X208797619Y-92761904D02*
X208750000Y-92714285D01*
X208702380Y-92619047D01*
X208702380Y-92380952D01*
X208750000Y-92285714D01*
X208797619Y-92238095D01*
X208892857Y-92190476D01*
X208988095Y-92190476D01*
X209130952Y-92238095D01*
X209702380Y-92809523D01*
X209702380Y-92190476D01*
X208702380Y-91333333D02*
X208702380Y-91523809D01*
X208750000Y-91619047D01*
X208797619Y-91666666D01*
X208940476Y-91761904D01*
X209130952Y-91809523D01*
X209511904Y-91809523D01*
X209607142Y-91761904D01*
X209654761Y-91714285D01*
X209702380Y-91619047D01*
X209702380Y-91428571D01*
X209654761Y-91333333D01*
X209607142Y-91285714D01*
X209511904Y-91238095D01*
X209273809Y-91238095D01*
X209178571Y-91285714D01*
X209130952Y-91333333D01*
X209083333Y-91428571D01*
X209083333Y-91619047D01*
X209130952Y-91714285D01*
X209178571Y-91761904D01*
X209273809Y-91809523D01*
X206702380Y-93142857D02*
X206226190Y-93476190D01*
X206702380Y-93714285D02*
X205702380Y-93714285D01*
X205702380Y-93333333D01*
X205750000Y-93238095D01*
X205797619Y-93190476D01*
X205892857Y-93142857D01*
X206035714Y-93142857D01*
X206130952Y-93190476D01*
X206178571Y-93238095D01*
X206226190Y-93333333D01*
X206226190Y-93714285D01*
X205797619Y-92761904D02*
X205750000Y-92714285D01*
X205702380Y-92619047D01*
X205702380Y-92380952D01*
X205750000Y-92285714D01*
X205797619Y-92238095D01*
X205892857Y-92190476D01*
X205988095Y-92190476D01*
X206130952Y-92238095D01*
X206702380Y-92809523D01*
X206702380Y-92190476D01*
X205702380Y-91285714D02*
X205702380Y-91761904D01*
X206178571Y-91809523D01*
X206130952Y-91761904D01*
X206083333Y-91666666D01*
X206083333Y-91428571D01*
X206130952Y-91333333D01*
X206178571Y-91285714D01*
X206273809Y-91238095D01*
X206511904Y-91238095D01*
X206607142Y-91285714D01*
X206654761Y-91333333D01*
X206702380Y-91428571D01*
X206702380Y-91666666D01*
X206654761Y-91761904D01*
X206607142Y-91809523D01*
X218952380Y-97142857D02*
X218476190Y-97476190D01*
X218952380Y-97714285D02*
X217952380Y-97714285D01*
X217952380Y-97333333D01*
X218000000Y-97238095D01*
X218047619Y-97190476D01*
X218142857Y-97142857D01*
X218285714Y-97142857D01*
X218380952Y-97190476D01*
X218428571Y-97238095D01*
X218476190Y-97333333D01*
X218476190Y-97714285D01*
X218047619Y-96761904D02*
X218000000Y-96714285D01*
X217952380Y-96619047D01*
X217952380Y-96380952D01*
X218000000Y-96285714D01*
X218047619Y-96238095D01*
X218142857Y-96190476D01*
X218238095Y-96190476D01*
X218380952Y-96238095D01*
X218952380Y-96809523D01*
X218952380Y-96190476D01*
X218285714Y-95333333D02*
X218952380Y-95333333D01*
X217904761Y-95571428D02*
X218619047Y-95809523D01*
X218619047Y-95190476D01*
X228402380Y-97092857D02*
X227926190Y-97426190D01*
X228402380Y-97664285D02*
X227402380Y-97664285D01*
X227402380Y-97283333D01*
X227450000Y-97188095D01*
X227497619Y-97140476D01*
X227592857Y-97092857D01*
X227735714Y-97092857D01*
X227830952Y-97140476D01*
X227878571Y-97188095D01*
X227926190Y-97283333D01*
X227926190Y-97664285D01*
X227497619Y-96711904D02*
X227450000Y-96664285D01*
X227402380Y-96569047D01*
X227402380Y-96330952D01*
X227450000Y-96235714D01*
X227497619Y-96188095D01*
X227592857Y-96140476D01*
X227688095Y-96140476D01*
X227830952Y-96188095D01*
X228402380Y-96759523D01*
X228402380Y-96140476D01*
X227402380Y-95807142D02*
X227402380Y-95188095D01*
X227783333Y-95521428D01*
X227783333Y-95378571D01*
X227830952Y-95283333D01*
X227878571Y-95235714D01*
X227973809Y-95188095D01*
X228211904Y-95188095D01*
X228307142Y-95235714D01*
X228354761Y-95283333D01*
X228402380Y-95378571D01*
X228402380Y-95664285D01*
X228354761Y-95759523D01*
X228307142Y-95807142D01*
X209702380Y-97142857D02*
X209226190Y-97476190D01*
X209702380Y-97714285D02*
X208702380Y-97714285D01*
X208702380Y-97333333D01*
X208750000Y-97238095D01*
X208797619Y-97190476D01*
X208892857Y-97142857D01*
X209035714Y-97142857D01*
X209130952Y-97190476D01*
X209178571Y-97238095D01*
X209226190Y-97333333D01*
X209226190Y-97714285D01*
X208797619Y-96761904D02*
X208750000Y-96714285D01*
X208702380Y-96619047D01*
X208702380Y-96380952D01*
X208750000Y-96285714D01*
X208797619Y-96238095D01*
X208892857Y-96190476D01*
X208988095Y-96190476D01*
X209130952Y-96238095D01*
X209702380Y-96809523D01*
X209702380Y-96190476D01*
X208797619Y-95809523D02*
X208750000Y-95761904D01*
X208702380Y-95666666D01*
X208702380Y-95428571D01*
X208750000Y-95333333D01*
X208797619Y-95285714D01*
X208892857Y-95238095D01*
X208988095Y-95238095D01*
X209130952Y-95285714D01*
X209702380Y-95857142D01*
X209702380Y-95238095D01*
X206702380Y-97142857D02*
X206226190Y-97476190D01*
X206702380Y-97714285D02*
X205702380Y-97714285D01*
X205702380Y-97333333D01*
X205750000Y-97238095D01*
X205797619Y-97190476D01*
X205892857Y-97142857D01*
X206035714Y-97142857D01*
X206130952Y-97190476D01*
X206178571Y-97238095D01*
X206226190Y-97333333D01*
X206226190Y-97714285D01*
X205797619Y-96761904D02*
X205750000Y-96714285D01*
X205702380Y-96619047D01*
X205702380Y-96380952D01*
X205750000Y-96285714D01*
X205797619Y-96238095D01*
X205892857Y-96190476D01*
X205988095Y-96190476D01*
X206130952Y-96238095D01*
X206702380Y-96809523D01*
X206702380Y-96190476D01*
X206702380Y-95238095D02*
X206702380Y-95809523D01*
X206702380Y-95523809D02*
X205702380Y-95523809D01*
X205845238Y-95619047D01*
X205940476Y-95714285D01*
X205988095Y-95809523D01*
X173202380Y-91332857D02*
X172726190Y-91666190D01*
X173202380Y-91904285D02*
X172202380Y-91904285D01*
X172202380Y-91523333D01*
X172250000Y-91428095D01*
X172297619Y-91380476D01*
X172392857Y-91332857D01*
X172535714Y-91332857D01*
X172630952Y-91380476D01*
X172678571Y-91428095D01*
X172726190Y-91523333D01*
X172726190Y-91904285D01*
X172297619Y-90951904D02*
X172250000Y-90904285D01*
X172202380Y-90809047D01*
X172202380Y-90570952D01*
X172250000Y-90475714D01*
X172297619Y-90428095D01*
X172392857Y-90380476D01*
X172488095Y-90380476D01*
X172630952Y-90428095D01*
X173202380Y-90999523D01*
X173202380Y-90380476D01*
X172202380Y-89761428D02*
X172202380Y-89666190D01*
X172250000Y-89570952D01*
X172297619Y-89523333D01*
X172392857Y-89475714D01*
X172583333Y-89428095D01*
X172821428Y-89428095D01*
X173011904Y-89475714D01*
X173107142Y-89523333D01*
X173154761Y-89570952D01*
X173202380Y-89666190D01*
X173202380Y-89761428D01*
X173154761Y-89856666D01*
X173107142Y-89904285D01*
X173011904Y-89951904D01*
X172821428Y-89999523D01*
X172583333Y-89999523D01*
X172392857Y-89951904D01*
X172297619Y-89904285D01*
X172250000Y-89856666D01*
X172202380Y-89761428D01*
X182202380Y-91332857D02*
X181726190Y-91666190D01*
X182202380Y-91904285D02*
X181202380Y-91904285D01*
X181202380Y-91523333D01*
X181250000Y-91428095D01*
X181297619Y-91380476D01*
X181392857Y-91332857D01*
X181535714Y-91332857D01*
X181630952Y-91380476D01*
X181678571Y-91428095D01*
X181726190Y-91523333D01*
X181726190Y-91904285D01*
X182202380Y-90380476D02*
X182202380Y-90951904D01*
X182202380Y-90666190D02*
X181202380Y-90666190D01*
X181345238Y-90761428D01*
X181440476Y-90856666D01*
X181488095Y-90951904D01*
X181630952Y-89809047D02*
X181583333Y-89904285D01*
X181535714Y-89951904D01*
X181440476Y-89999523D01*
X181392857Y-89999523D01*
X181297619Y-89951904D01*
X181250000Y-89904285D01*
X181202380Y-89809047D01*
X181202380Y-89618571D01*
X181250000Y-89523333D01*
X181297619Y-89475714D01*
X181392857Y-89428095D01*
X181440476Y-89428095D01*
X181535714Y-89475714D01*
X181583333Y-89523333D01*
X181630952Y-89618571D01*
X181630952Y-89809047D01*
X181678571Y-89904285D01*
X181726190Y-89951904D01*
X181821428Y-89999523D01*
X182011904Y-89999523D01*
X182107142Y-89951904D01*
X182154761Y-89904285D01*
X182202380Y-89809047D01*
X182202380Y-89618571D01*
X182154761Y-89523333D01*
X182107142Y-89475714D01*
X182011904Y-89428095D01*
X181821428Y-89428095D01*
X181726190Y-89475714D01*
X181678571Y-89523333D01*
X181630952Y-89618571D01*
X170202380Y-87332857D02*
X169726190Y-87666190D01*
X170202380Y-87904285D02*
X169202380Y-87904285D01*
X169202380Y-87523333D01*
X169250000Y-87428095D01*
X169297619Y-87380476D01*
X169392857Y-87332857D01*
X169535714Y-87332857D01*
X169630952Y-87380476D01*
X169678571Y-87428095D01*
X169726190Y-87523333D01*
X169726190Y-87904285D01*
X170202380Y-86380476D02*
X170202380Y-86951904D01*
X170202380Y-86666190D02*
X169202380Y-86666190D01*
X169345238Y-86761428D01*
X169440476Y-86856666D01*
X169488095Y-86951904D01*
X170202380Y-85904285D02*
X170202380Y-85713809D01*
X170154761Y-85618571D01*
X170107142Y-85570952D01*
X169964285Y-85475714D01*
X169773809Y-85428095D01*
X169392857Y-85428095D01*
X169297619Y-85475714D01*
X169250000Y-85523333D01*
X169202380Y-85618571D01*
X169202380Y-85809047D01*
X169250000Y-85904285D01*
X169297619Y-85951904D01*
X169392857Y-85999523D01*
X169630952Y-85999523D01*
X169726190Y-85951904D01*
X169773809Y-85904285D01*
X169821428Y-85809047D01*
X169821428Y-85618571D01*
X169773809Y-85523333D01*
X169726190Y-85475714D01*
X169630952Y-85428095D01*
X185202380Y-87332857D02*
X184726190Y-87666190D01*
X185202380Y-87904285D02*
X184202380Y-87904285D01*
X184202380Y-87523333D01*
X184250000Y-87428095D01*
X184297619Y-87380476D01*
X184392857Y-87332857D01*
X184535714Y-87332857D01*
X184630952Y-87380476D01*
X184678571Y-87428095D01*
X184726190Y-87523333D01*
X184726190Y-87904285D01*
X185202380Y-86380476D02*
X185202380Y-86951904D01*
X185202380Y-86666190D02*
X184202380Y-86666190D01*
X184345238Y-86761428D01*
X184440476Y-86856666D01*
X184488095Y-86951904D01*
X184202380Y-86047142D02*
X184202380Y-85380476D01*
X185202380Y-85809047D01*
X176202380Y-79832857D02*
X175726190Y-80166190D01*
X176202380Y-80404285D02*
X175202380Y-80404285D01*
X175202380Y-80023333D01*
X175250000Y-79928095D01*
X175297619Y-79880476D01*
X175392857Y-79832857D01*
X175535714Y-79832857D01*
X175630952Y-79880476D01*
X175678571Y-79928095D01*
X175726190Y-80023333D01*
X175726190Y-80404285D01*
X176202380Y-78880476D02*
X176202380Y-79451904D01*
X176202380Y-79166190D02*
X175202380Y-79166190D01*
X175345238Y-79261428D01*
X175440476Y-79356666D01*
X175488095Y-79451904D01*
X175202380Y-78023333D02*
X175202380Y-78213809D01*
X175250000Y-78309047D01*
X175297619Y-78356666D01*
X175440476Y-78451904D01*
X175630952Y-78499523D01*
X176011904Y-78499523D01*
X176107142Y-78451904D01*
X176154761Y-78404285D01*
X176202380Y-78309047D01*
X176202380Y-78118571D01*
X176154761Y-78023333D01*
X176107142Y-77975714D01*
X176011904Y-77928095D01*
X175773809Y-77928095D01*
X175678571Y-77975714D01*
X175630952Y-78023333D01*
X175583333Y-78118571D01*
X175583333Y-78309047D01*
X175630952Y-78404285D01*
X175678571Y-78451904D01*
X175773809Y-78499523D01*
X182202380Y-79832857D02*
X181726190Y-80166190D01*
X182202380Y-80404285D02*
X181202380Y-80404285D01*
X181202380Y-80023333D01*
X181250000Y-79928095D01*
X181297619Y-79880476D01*
X181392857Y-79832857D01*
X181535714Y-79832857D01*
X181630952Y-79880476D01*
X181678571Y-79928095D01*
X181726190Y-80023333D01*
X181726190Y-80404285D01*
X182202380Y-78880476D02*
X182202380Y-79451904D01*
X182202380Y-79166190D02*
X181202380Y-79166190D01*
X181345238Y-79261428D01*
X181440476Y-79356666D01*
X181488095Y-79451904D01*
X181202380Y-77975714D02*
X181202380Y-78451904D01*
X181678571Y-78499523D01*
X181630952Y-78451904D01*
X181583333Y-78356666D01*
X181583333Y-78118571D01*
X181630952Y-78023333D01*
X181678571Y-77975714D01*
X181773809Y-77928095D01*
X182011904Y-77928095D01*
X182107142Y-77975714D01*
X182154761Y-78023333D01*
X182202380Y-78118571D01*
X182202380Y-78356666D01*
X182154761Y-78451904D01*
X182107142Y-78499523D01*
X145052380Y-84582857D02*
X144576190Y-84916190D01*
X145052380Y-85154285D02*
X144052380Y-85154285D01*
X144052380Y-84773333D01*
X144100000Y-84678095D01*
X144147619Y-84630476D01*
X144242857Y-84582857D01*
X144385714Y-84582857D01*
X144480952Y-84630476D01*
X144528571Y-84678095D01*
X144576190Y-84773333D01*
X144576190Y-85154285D01*
X145052380Y-83630476D02*
X145052380Y-84201904D01*
X145052380Y-83916190D02*
X144052380Y-83916190D01*
X144195238Y-84011428D01*
X144290476Y-84106666D01*
X144338095Y-84201904D01*
X144052380Y-83297142D02*
X144052380Y-82678095D01*
X144433333Y-83011428D01*
X144433333Y-82868571D01*
X144480952Y-82773333D01*
X144528571Y-82725714D01*
X144623809Y-82678095D01*
X144861904Y-82678095D01*
X144957142Y-82725714D01*
X145004761Y-82773333D01*
X145052380Y-82868571D01*
X145052380Y-83154285D01*
X145004761Y-83249523D01*
X144957142Y-83297142D01*
X151002380Y-79082857D02*
X150526190Y-79416190D01*
X151002380Y-79654285D02*
X150002380Y-79654285D01*
X150002380Y-79273333D01*
X150050000Y-79178095D01*
X150097619Y-79130476D01*
X150192857Y-79082857D01*
X150335714Y-79082857D01*
X150430952Y-79130476D01*
X150478571Y-79178095D01*
X150526190Y-79273333D01*
X150526190Y-79654285D01*
X151002380Y-78130476D02*
X151002380Y-78701904D01*
X151002380Y-78416190D02*
X150002380Y-78416190D01*
X150145238Y-78511428D01*
X150240476Y-78606666D01*
X150288095Y-78701904D01*
X150002380Y-77511428D02*
X150002380Y-77416190D01*
X150050000Y-77320952D01*
X150097619Y-77273333D01*
X150192857Y-77225714D01*
X150383333Y-77178095D01*
X150621428Y-77178095D01*
X150811904Y-77225714D01*
X150907142Y-77273333D01*
X150954761Y-77320952D01*
X151002380Y-77416190D01*
X151002380Y-77511428D01*
X150954761Y-77606666D01*
X150907142Y-77654285D01*
X150811904Y-77701904D01*
X150621428Y-77749523D01*
X150383333Y-77749523D01*
X150192857Y-77701904D01*
X150097619Y-77654285D01*
X150050000Y-77606666D01*
X150002380Y-77511428D01*
X157002380Y-78606666D02*
X156526190Y-78940000D01*
X157002380Y-79178095D02*
X156002380Y-79178095D01*
X156002380Y-78797142D01*
X156050000Y-78701904D01*
X156097619Y-78654285D01*
X156192857Y-78606666D01*
X156335714Y-78606666D01*
X156430952Y-78654285D01*
X156478571Y-78701904D01*
X156526190Y-78797142D01*
X156526190Y-79178095D01*
X157002380Y-78130476D02*
X157002380Y-77940000D01*
X156954761Y-77844761D01*
X156907142Y-77797142D01*
X156764285Y-77701904D01*
X156573809Y-77654285D01*
X156192857Y-77654285D01*
X156097619Y-77701904D01*
X156050000Y-77749523D01*
X156002380Y-77844761D01*
X156002380Y-78035238D01*
X156050000Y-78130476D01*
X156097619Y-78178095D01*
X156192857Y-78225714D01*
X156430952Y-78225714D01*
X156526190Y-78178095D01*
X156573809Y-78130476D01*
X156621428Y-78035238D01*
X156621428Y-77844761D01*
X156573809Y-77749523D01*
X156526190Y-77701904D01*
X156430952Y-77654285D01*
X236352380Y-109666666D02*
X235876190Y-110000000D01*
X236352380Y-110238095D02*
X235352380Y-110238095D01*
X235352380Y-109857142D01*
X235400000Y-109761904D01*
X235447619Y-109714285D01*
X235542857Y-109666666D01*
X235685714Y-109666666D01*
X235780952Y-109714285D01*
X235828571Y-109761904D01*
X235876190Y-109857142D01*
X235876190Y-110238095D01*
X235780952Y-109095238D02*
X235733333Y-109190476D01*
X235685714Y-109238095D01*
X235590476Y-109285714D01*
X235542857Y-109285714D01*
X235447619Y-109238095D01*
X235400000Y-109190476D01*
X235352380Y-109095238D01*
X235352380Y-108904761D01*
X235400000Y-108809523D01*
X235447619Y-108761904D01*
X235542857Y-108714285D01*
X235590476Y-108714285D01*
X235685714Y-108761904D01*
X235733333Y-108809523D01*
X235780952Y-108904761D01*
X235780952Y-109095238D01*
X235828571Y-109190476D01*
X235876190Y-109238095D01*
X235971428Y-109285714D01*
X236161904Y-109285714D01*
X236257142Y-109238095D01*
X236304761Y-109190476D01*
X236352380Y-109095238D01*
X236352380Y-108904761D01*
X236304761Y-108809523D01*
X236257142Y-108761904D01*
X236161904Y-108714285D01*
X235971428Y-108714285D01*
X235876190Y-108761904D01*
X235828571Y-108809523D01*
X235780952Y-108904761D01*
X156642380Y-122496666D02*
X156166190Y-122830000D01*
X156642380Y-123068095D02*
X155642380Y-123068095D01*
X155642380Y-122687142D01*
X155690000Y-122591904D01*
X155737619Y-122544285D01*
X155832857Y-122496666D01*
X155975714Y-122496666D01*
X156070952Y-122544285D01*
X156118571Y-122591904D01*
X156166190Y-122687142D01*
X156166190Y-123068095D01*
X155642380Y-122163333D02*
X155642380Y-121496666D01*
X156642380Y-121925238D01*
X159552380Y-133666666D02*
X159076190Y-134000000D01*
X159552380Y-134238095D02*
X158552380Y-134238095D01*
X158552380Y-133857142D01*
X158600000Y-133761904D01*
X158647619Y-133714285D01*
X158742857Y-133666666D01*
X158885714Y-133666666D01*
X158980952Y-133714285D01*
X159028571Y-133761904D01*
X159076190Y-133857142D01*
X159076190Y-134238095D01*
X158552380Y-132809523D02*
X158552380Y-133000000D01*
X158600000Y-133095238D01*
X158647619Y-133142857D01*
X158790476Y-133238095D01*
X158980952Y-133285714D01*
X159361904Y-133285714D01*
X159457142Y-133238095D01*
X159504761Y-133190476D01*
X159552380Y-133095238D01*
X159552380Y-132904761D01*
X159504761Y-132809523D01*
X159457142Y-132761904D01*
X159361904Y-132714285D01*
X159123809Y-132714285D01*
X159028571Y-132761904D01*
X158980952Y-132809523D01*
X158933333Y-132904761D01*
X158933333Y-133095238D01*
X158980952Y-133190476D01*
X159028571Y-133238095D01*
X159123809Y-133285714D01*
X143483333Y-123702380D02*
X143150000Y-123226190D01*
X142911904Y-123702380D02*
X142911904Y-122702380D01*
X143292857Y-122702380D01*
X143388095Y-122750000D01*
X143435714Y-122797619D01*
X143483333Y-122892857D01*
X143483333Y-123035714D01*
X143435714Y-123130952D01*
X143388095Y-123178571D01*
X143292857Y-123226190D01*
X142911904Y-123226190D01*
X144388095Y-122702380D02*
X143911904Y-122702380D01*
X143864285Y-123178571D01*
X143911904Y-123130952D01*
X144007142Y-123083333D01*
X144245238Y-123083333D01*
X144340476Y-123130952D01*
X144388095Y-123178571D01*
X144435714Y-123273809D01*
X144435714Y-123511904D01*
X144388095Y-123607142D01*
X144340476Y-123654761D01*
X144245238Y-123702380D01*
X144007142Y-123702380D01*
X143911904Y-123654761D01*
X143864285Y-123607142D01*
X150752380Y-133666666D02*
X150276190Y-134000000D01*
X150752380Y-134238095D02*
X149752380Y-134238095D01*
X149752380Y-133857142D01*
X149800000Y-133761904D01*
X149847619Y-133714285D01*
X149942857Y-133666666D01*
X150085714Y-133666666D01*
X150180952Y-133714285D01*
X150228571Y-133761904D01*
X150276190Y-133857142D01*
X150276190Y-134238095D01*
X150085714Y-132809523D02*
X150752380Y-132809523D01*
X149704761Y-133047619D02*
X150419047Y-133285714D01*
X150419047Y-132666666D01*
X149483333Y-130452380D02*
X149150000Y-129976190D01*
X148911904Y-130452380D02*
X148911904Y-129452380D01*
X149292857Y-129452380D01*
X149388095Y-129500000D01*
X149435714Y-129547619D01*
X149483333Y-129642857D01*
X149483333Y-129785714D01*
X149435714Y-129880952D01*
X149388095Y-129928571D01*
X149292857Y-129976190D01*
X148911904Y-129976190D01*
X149816666Y-129452380D02*
X150435714Y-129452380D01*
X150102380Y-129833333D01*
X150245238Y-129833333D01*
X150340476Y-129880952D01*
X150388095Y-129928571D01*
X150435714Y-130023809D01*
X150435714Y-130261904D01*
X150388095Y-130357142D01*
X150340476Y-130404761D01*
X150245238Y-130452380D01*
X149959523Y-130452380D01*
X149864285Y-130404761D01*
X149816666Y-130357142D01*
X146783333Y-134252380D02*
X146450000Y-133776190D01*
X146211904Y-134252380D02*
X146211904Y-133252380D01*
X146592857Y-133252380D01*
X146688095Y-133300000D01*
X146735714Y-133347619D01*
X146783333Y-133442857D01*
X146783333Y-133585714D01*
X146735714Y-133680952D01*
X146688095Y-133728571D01*
X146592857Y-133776190D01*
X146211904Y-133776190D01*
X147164285Y-133347619D02*
X147211904Y-133300000D01*
X147307142Y-133252380D01*
X147545238Y-133252380D01*
X147640476Y-133300000D01*
X147688095Y-133347619D01*
X147735714Y-133442857D01*
X147735714Y-133538095D01*
X147688095Y-133680952D01*
X147116666Y-134252380D01*
X147735714Y-134252380D01*
X149483333Y-128202380D02*
X149150000Y-127726190D01*
X148911904Y-128202380D02*
X148911904Y-127202380D01*
X149292857Y-127202380D01*
X149388095Y-127250000D01*
X149435714Y-127297619D01*
X149483333Y-127392857D01*
X149483333Y-127535714D01*
X149435714Y-127630952D01*
X149388095Y-127678571D01*
X149292857Y-127726190D01*
X148911904Y-127726190D01*
X150435714Y-128202380D02*
X149864285Y-128202380D01*
X150150000Y-128202380D02*
X150150000Y-127202380D01*
X150054761Y-127345238D01*
X149959523Y-127440476D01*
X149864285Y-127488095D01*
X233547619Y-80595238D02*
X233500000Y-80690476D01*
X233404761Y-80785714D01*
X233261904Y-80928571D01*
X233214285Y-81023809D01*
X233214285Y-81119047D01*
X233452380Y-81071428D02*
X233404761Y-81166666D01*
X233309523Y-81261904D01*
X233119047Y-81309523D01*
X232785714Y-81309523D01*
X232595238Y-81261904D01*
X232500000Y-81166666D01*
X232452380Y-81071428D01*
X232452380Y-80880952D01*
X232500000Y-80785714D01*
X232595238Y-80690476D01*
X232785714Y-80642857D01*
X233119047Y-80642857D01*
X233309523Y-80690476D01*
X233404761Y-80785714D01*
X233452380Y-80880952D01*
X233452380Y-81071428D01*
X232785714Y-79785714D02*
X233452380Y-79785714D01*
X232404761Y-80023809D02*
X233119047Y-80261904D01*
X233119047Y-79642857D01*
X200297619Y-80595238D02*
X200250000Y-80690476D01*
X200154761Y-80785714D01*
X200011904Y-80928571D01*
X199964285Y-81023809D01*
X199964285Y-81119047D01*
X200202380Y-81071428D02*
X200154761Y-81166666D01*
X200059523Y-81261904D01*
X199869047Y-81309523D01*
X199535714Y-81309523D01*
X199345238Y-81261904D01*
X199250000Y-81166666D01*
X199202380Y-81071428D01*
X199202380Y-80880952D01*
X199250000Y-80785714D01*
X199345238Y-80690476D01*
X199535714Y-80642857D01*
X199869047Y-80642857D01*
X200059523Y-80690476D01*
X200154761Y-80785714D01*
X200202380Y-80880952D01*
X200202380Y-81071428D01*
X199202380Y-80309523D02*
X199202380Y-79690476D01*
X199583333Y-80023809D01*
X199583333Y-79880952D01*
X199630952Y-79785714D01*
X199678571Y-79738095D01*
X199773809Y-79690476D01*
X200011904Y-79690476D01*
X200107142Y-79738095D01*
X200154761Y-79785714D01*
X200202380Y-79880952D01*
X200202380Y-80166666D01*
X200154761Y-80261904D01*
X200107142Y-80309523D01*
X233547619Y-84845238D02*
X233500000Y-84940476D01*
X233404761Y-85035714D01*
X233261904Y-85178571D01*
X233214285Y-85273809D01*
X233214285Y-85369047D01*
X233452380Y-85321428D02*
X233404761Y-85416666D01*
X233309523Y-85511904D01*
X233119047Y-85559523D01*
X232785714Y-85559523D01*
X232595238Y-85511904D01*
X232500000Y-85416666D01*
X232452380Y-85321428D01*
X232452380Y-85130952D01*
X232500000Y-85035714D01*
X232595238Y-84940476D01*
X232785714Y-84892857D01*
X233119047Y-84892857D01*
X233309523Y-84940476D01*
X233404761Y-85035714D01*
X233452380Y-85130952D01*
X233452380Y-85321428D01*
X232547619Y-84511904D02*
X232500000Y-84464285D01*
X232452380Y-84369047D01*
X232452380Y-84130952D01*
X232500000Y-84035714D01*
X232547619Y-83988095D01*
X232642857Y-83940476D01*
X232738095Y-83940476D01*
X232880952Y-83988095D01*
X233452380Y-84559523D01*
X233452380Y-83940476D01*
X200297619Y-84595238D02*
X200250000Y-84690476D01*
X200154761Y-84785714D01*
X200011904Y-84928571D01*
X199964285Y-85023809D01*
X199964285Y-85119047D01*
X200202380Y-85071428D02*
X200154761Y-85166666D01*
X200059523Y-85261904D01*
X199869047Y-85309523D01*
X199535714Y-85309523D01*
X199345238Y-85261904D01*
X199250000Y-85166666D01*
X199202380Y-85071428D01*
X199202380Y-84880952D01*
X199250000Y-84785714D01*
X199345238Y-84690476D01*
X199535714Y-84642857D01*
X199869047Y-84642857D01*
X200059523Y-84690476D01*
X200154761Y-84785714D01*
X200202380Y-84880952D01*
X200202380Y-85071428D01*
X200202380Y-83690476D02*
X200202380Y-84261904D01*
X200202380Y-83976190D02*
X199202380Y-83976190D01*
X199345238Y-84071428D01*
X199440476Y-84166666D01*
X199488095Y-84261904D01*
X157661904Y-116052380D02*
X157661904Y-115052380D01*
X157900000Y-115052380D01*
X158042857Y-115100000D01*
X158138095Y-115195238D01*
X158185714Y-115290476D01*
X158233333Y-115480952D01*
X158233333Y-115623809D01*
X158185714Y-115814285D01*
X158138095Y-115909523D01*
X158042857Y-116004761D01*
X157900000Y-116052380D01*
X157661904Y-116052380D01*
X158614285Y-115147619D02*
X158661904Y-115100000D01*
X158757142Y-115052380D01*
X158995238Y-115052380D01*
X159090476Y-115100000D01*
X159138095Y-115147619D01*
X159185714Y-115242857D01*
X159185714Y-115338095D01*
X159138095Y-115480952D01*
X158566666Y-116052380D01*
X159185714Y-116052380D01*
X150061904Y-116052380D02*
X150061904Y-115052380D01*
X150300000Y-115052380D01*
X150442857Y-115100000D01*
X150538095Y-115195238D01*
X150585714Y-115290476D01*
X150633333Y-115480952D01*
X150633333Y-115623809D01*
X150585714Y-115814285D01*
X150538095Y-115909523D01*
X150442857Y-116004761D01*
X150300000Y-116052380D01*
X150061904Y-116052380D01*
X151585714Y-116052380D02*
X151014285Y-116052380D01*
X151300000Y-116052380D02*
X151300000Y-115052380D01*
X151204761Y-115195238D01*
X151109523Y-115290476D01*
X151014285Y-115338095D01*
X225407142Y-83142857D02*
X225454761Y-83190476D01*
X225502380Y-83333333D01*
X225502380Y-83428571D01*
X225454761Y-83571428D01*
X225359523Y-83666666D01*
X225264285Y-83714285D01*
X225073809Y-83761904D01*
X224930952Y-83761904D01*
X224740476Y-83714285D01*
X224645238Y-83666666D01*
X224550000Y-83571428D01*
X224502380Y-83428571D01*
X224502380Y-83333333D01*
X224550000Y-83190476D01*
X224597619Y-83142857D01*
X224930952Y-82571428D02*
X224883333Y-82666666D01*
X224835714Y-82714285D01*
X224740476Y-82761904D01*
X224692857Y-82761904D01*
X224597619Y-82714285D01*
X224550000Y-82666666D01*
X224502380Y-82571428D01*
X224502380Y-82380952D01*
X224550000Y-82285714D01*
X224597619Y-82238095D01*
X224692857Y-82190476D01*
X224740476Y-82190476D01*
X224835714Y-82238095D01*
X224883333Y-82285714D01*
X224930952Y-82380952D01*
X224930952Y-82571428D01*
X224978571Y-82666666D01*
X225026190Y-82714285D01*
X225121428Y-82761904D01*
X225311904Y-82761904D01*
X225407142Y-82714285D01*
X225454761Y-82666666D01*
X225502380Y-82571428D01*
X225502380Y-82380952D01*
X225454761Y-82285714D01*
X225407142Y-82238095D01*
X225311904Y-82190476D01*
X225121428Y-82190476D01*
X225026190Y-82238095D01*
X224978571Y-82285714D01*
X224930952Y-82380952D01*
X225502380Y-81238095D02*
X225502380Y-81809523D01*
X225502380Y-81523809D02*
X224502380Y-81523809D01*
X224645238Y-81619047D01*
X224740476Y-81714285D01*
X224788095Y-81809523D01*
X211157142Y-83142857D02*
X211204761Y-83190476D01*
X211252380Y-83333333D01*
X211252380Y-83428571D01*
X211204761Y-83571428D01*
X211109523Y-83666666D01*
X211014285Y-83714285D01*
X210823809Y-83761904D01*
X210680952Y-83761904D01*
X210490476Y-83714285D01*
X210395238Y-83666666D01*
X210300000Y-83571428D01*
X210252380Y-83428571D01*
X210252380Y-83333333D01*
X210300000Y-83190476D01*
X210347619Y-83142857D01*
X210680952Y-82571428D02*
X210633333Y-82666666D01*
X210585714Y-82714285D01*
X210490476Y-82761904D01*
X210442857Y-82761904D01*
X210347619Y-82714285D01*
X210300000Y-82666666D01*
X210252380Y-82571428D01*
X210252380Y-82380952D01*
X210300000Y-82285714D01*
X210347619Y-82238095D01*
X210442857Y-82190476D01*
X210490476Y-82190476D01*
X210585714Y-82238095D01*
X210633333Y-82285714D01*
X210680952Y-82380952D01*
X210680952Y-82571428D01*
X210728571Y-82666666D01*
X210776190Y-82714285D01*
X210871428Y-82761904D01*
X211061904Y-82761904D01*
X211157142Y-82714285D01*
X211204761Y-82666666D01*
X211252380Y-82571428D01*
X211252380Y-82380952D01*
X211204761Y-82285714D01*
X211157142Y-82238095D01*
X211061904Y-82190476D01*
X210871428Y-82190476D01*
X210776190Y-82238095D01*
X210728571Y-82285714D01*
X210680952Y-82380952D01*
X210252380Y-81571428D02*
X210252380Y-81476190D01*
X210300000Y-81380952D01*
X210347619Y-81333333D01*
X210442857Y-81285714D01*
X210633333Y-81238095D01*
X210871428Y-81238095D01*
X211061904Y-81285714D01*
X211157142Y-81333333D01*
X211204761Y-81380952D01*
X211252380Y-81476190D01*
X211252380Y-81571428D01*
X211204761Y-81666666D01*
X211157142Y-81714285D01*
X211061904Y-81761904D01*
X210871428Y-81809523D01*
X210633333Y-81809523D01*
X210442857Y-81761904D01*
X210347619Y-81714285D01*
X210300000Y-81666666D01*
X210252380Y-81571428D01*
X222107142Y-89142857D02*
X222154761Y-89190476D01*
X222202380Y-89333333D01*
X222202380Y-89428571D01*
X222154761Y-89571428D01*
X222059523Y-89666666D01*
X221964285Y-89714285D01*
X221773809Y-89761904D01*
X221630952Y-89761904D01*
X221440476Y-89714285D01*
X221345238Y-89666666D01*
X221250000Y-89571428D01*
X221202380Y-89428571D01*
X221202380Y-89333333D01*
X221250000Y-89190476D01*
X221297619Y-89142857D01*
X221202380Y-88809523D02*
X221202380Y-88142857D01*
X222202380Y-88571428D01*
X222202380Y-87714285D02*
X222202380Y-87523809D01*
X222154761Y-87428571D01*
X222107142Y-87380952D01*
X221964285Y-87285714D01*
X221773809Y-87238095D01*
X221392857Y-87238095D01*
X221297619Y-87285714D01*
X221250000Y-87333333D01*
X221202380Y-87428571D01*
X221202380Y-87619047D01*
X221250000Y-87714285D01*
X221297619Y-87761904D01*
X221392857Y-87809523D01*
X221630952Y-87809523D01*
X221726190Y-87761904D01*
X221773809Y-87714285D01*
X221821428Y-87619047D01*
X221821428Y-87428571D01*
X221773809Y-87333333D01*
X221726190Y-87285714D01*
X221630952Y-87238095D01*
X206607142Y-89142857D02*
X206654761Y-89190476D01*
X206702380Y-89333333D01*
X206702380Y-89428571D01*
X206654761Y-89571428D01*
X206559523Y-89666666D01*
X206464285Y-89714285D01*
X206273809Y-89761904D01*
X206130952Y-89761904D01*
X205940476Y-89714285D01*
X205845238Y-89666666D01*
X205750000Y-89571428D01*
X205702380Y-89428571D01*
X205702380Y-89333333D01*
X205750000Y-89190476D01*
X205797619Y-89142857D01*
X205702380Y-88809523D02*
X205702380Y-88142857D01*
X206702380Y-88571428D01*
X206130952Y-87619047D02*
X206083333Y-87714285D01*
X206035714Y-87761904D01*
X205940476Y-87809523D01*
X205892857Y-87809523D01*
X205797619Y-87761904D01*
X205750000Y-87714285D01*
X205702380Y-87619047D01*
X205702380Y-87428571D01*
X205750000Y-87333333D01*
X205797619Y-87285714D01*
X205892857Y-87238095D01*
X205940476Y-87238095D01*
X206035714Y-87285714D01*
X206083333Y-87333333D01*
X206130952Y-87428571D01*
X206130952Y-87619047D01*
X206178571Y-87714285D01*
X206226190Y-87761904D01*
X206321428Y-87809523D01*
X206511904Y-87809523D01*
X206607142Y-87761904D01*
X206654761Y-87714285D01*
X206702380Y-87619047D01*
X206702380Y-87428571D01*
X206654761Y-87333333D01*
X206607142Y-87285714D01*
X206511904Y-87238095D01*
X206321428Y-87238095D01*
X206226190Y-87285714D01*
X206178571Y-87333333D01*
X206130952Y-87428571D01*
X218857142Y-93142857D02*
X218904761Y-93190476D01*
X218952380Y-93333333D01*
X218952380Y-93428571D01*
X218904761Y-93571428D01*
X218809523Y-93666666D01*
X218714285Y-93714285D01*
X218523809Y-93761904D01*
X218380952Y-93761904D01*
X218190476Y-93714285D01*
X218095238Y-93666666D01*
X218000000Y-93571428D01*
X217952380Y-93428571D01*
X217952380Y-93333333D01*
X218000000Y-93190476D01*
X218047619Y-93142857D01*
X217952380Y-92809523D02*
X217952380Y-92142857D01*
X218952380Y-92571428D01*
X217952380Y-91857142D02*
X217952380Y-91190476D01*
X218952380Y-91619047D01*
X209607142Y-89142857D02*
X209654761Y-89190476D01*
X209702380Y-89333333D01*
X209702380Y-89428571D01*
X209654761Y-89571428D01*
X209559523Y-89666666D01*
X209464285Y-89714285D01*
X209273809Y-89761904D01*
X209130952Y-89761904D01*
X208940476Y-89714285D01*
X208845238Y-89666666D01*
X208750000Y-89571428D01*
X208702380Y-89428571D01*
X208702380Y-89333333D01*
X208750000Y-89190476D01*
X208797619Y-89142857D01*
X208702380Y-88809523D02*
X208702380Y-88142857D01*
X209702380Y-88571428D01*
X208702380Y-87333333D02*
X208702380Y-87523809D01*
X208750000Y-87619047D01*
X208797619Y-87666666D01*
X208940476Y-87761904D01*
X209130952Y-87809523D01*
X209511904Y-87809523D01*
X209607142Y-87761904D01*
X209654761Y-87714285D01*
X209702380Y-87619047D01*
X209702380Y-87428571D01*
X209654761Y-87333333D01*
X209607142Y-87285714D01*
X209511904Y-87238095D01*
X209273809Y-87238095D01*
X209178571Y-87285714D01*
X209130952Y-87333333D01*
X209083333Y-87428571D01*
X209083333Y-87619047D01*
X209130952Y-87714285D01*
X209178571Y-87761904D01*
X209273809Y-87809523D01*
X221857142Y-97142857D02*
X221904761Y-97190476D01*
X221952380Y-97333333D01*
X221952380Y-97428571D01*
X221904761Y-97571428D01*
X221809523Y-97666666D01*
X221714285Y-97714285D01*
X221523809Y-97761904D01*
X221380952Y-97761904D01*
X221190476Y-97714285D01*
X221095238Y-97666666D01*
X221000000Y-97571428D01*
X220952380Y-97428571D01*
X220952380Y-97333333D01*
X221000000Y-97190476D01*
X221047619Y-97142857D01*
X220952380Y-96809523D02*
X220952380Y-96142857D01*
X221952380Y-96571428D01*
X220952380Y-95857142D02*
X220952380Y-95238095D01*
X221333333Y-95571428D01*
X221333333Y-95428571D01*
X221380952Y-95333333D01*
X221428571Y-95285714D01*
X221523809Y-95238095D01*
X221761904Y-95238095D01*
X221857142Y-95285714D01*
X221904761Y-95333333D01*
X221952380Y-95428571D01*
X221952380Y-95714285D01*
X221904761Y-95809523D01*
X221857142Y-95857142D01*
X212607142Y-97142857D02*
X212654761Y-97190476D01*
X212702380Y-97333333D01*
X212702380Y-97428571D01*
X212654761Y-97571428D01*
X212559523Y-97666666D01*
X212464285Y-97714285D01*
X212273809Y-97761904D01*
X212130952Y-97761904D01*
X211940476Y-97714285D01*
X211845238Y-97666666D01*
X211750000Y-97571428D01*
X211702380Y-97428571D01*
X211702380Y-97333333D01*
X211750000Y-97190476D01*
X211797619Y-97142857D01*
X211702380Y-96809523D02*
X211702380Y-96142857D01*
X212702380Y-96571428D01*
X212702380Y-95238095D02*
X212702380Y-95809523D01*
X212702380Y-95523809D02*
X211702380Y-95523809D01*
X211845238Y-95619047D01*
X211940476Y-95714285D01*
X211988095Y-95809523D01*
X225107142Y-97142857D02*
X225154761Y-97190476D01*
X225202380Y-97333333D01*
X225202380Y-97428571D01*
X225154761Y-97571428D01*
X225059523Y-97666666D01*
X224964285Y-97714285D01*
X224773809Y-97761904D01*
X224630952Y-97761904D01*
X224440476Y-97714285D01*
X224345238Y-97666666D01*
X224250000Y-97571428D01*
X224202380Y-97428571D01*
X224202380Y-97333333D01*
X224250000Y-97190476D01*
X224297619Y-97142857D01*
X224202380Y-96809523D02*
X224202380Y-96142857D01*
X225202380Y-96571428D01*
X224297619Y-95809523D02*
X224250000Y-95761904D01*
X224202380Y-95666666D01*
X224202380Y-95428571D01*
X224250000Y-95333333D01*
X224297619Y-95285714D01*
X224392857Y-95238095D01*
X224488095Y-95238095D01*
X224630952Y-95285714D01*
X225202380Y-95857142D01*
X225202380Y-95238095D01*
X203607142Y-97142857D02*
X203654761Y-97190476D01*
X203702380Y-97333333D01*
X203702380Y-97428571D01*
X203654761Y-97571428D01*
X203559523Y-97666666D01*
X203464285Y-97714285D01*
X203273809Y-97761904D01*
X203130952Y-97761904D01*
X202940476Y-97714285D01*
X202845238Y-97666666D01*
X202750000Y-97571428D01*
X202702380Y-97428571D01*
X202702380Y-97333333D01*
X202750000Y-97190476D01*
X202797619Y-97142857D01*
X202702380Y-96809523D02*
X202702380Y-96142857D01*
X203702380Y-96571428D01*
X202702380Y-95571428D02*
X202702380Y-95476190D01*
X202750000Y-95380952D01*
X202797619Y-95333333D01*
X202892857Y-95285714D01*
X203083333Y-95238095D01*
X203321428Y-95238095D01*
X203511904Y-95285714D01*
X203607142Y-95333333D01*
X203654761Y-95380952D01*
X203702380Y-95476190D01*
X203702380Y-95571428D01*
X203654761Y-95666666D01*
X203607142Y-95714285D01*
X203511904Y-95761904D01*
X203321428Y-95809523D01*
X203083333Y-95809523D01*
X202892857Y-95761904D01*
X202797619Y-95714285D01*
X202750000Y-95666666D01*
X202702380Y-95571428D01*
X215857142Y-93142857D02*
X215904761Y-93190476D01*
X215952380Y-93333333D01*
X215952380Y-93428571D01*
X215904761Y-93571428D01*
X215809523Y-93666666D01*
X215714285Y-93714285D01*
X215523809Y-93761904D01*
X215380952Y-93761904D01*
X215190476Y-93714285D01*
X215095238Y-93666666D01*
X215000000Y-93571428D01*
X214952380Y-93428571D01*
X214952380Y-93333333D01*
X215000000Y-93190476D01*
X215047619Y-93142857D01*
X215380952Y-92571428D02*
X215333333Y-92666666D01*
X215285714Y-92714285D01*
X215190476Y-92761904D01*
X215142857Y-92761904D01*
X215047619Y-92714285D01*
X215000000Y-92666666D01*
X214952380Y-92571428D01*
X214952380Y-92380952D01*
X215000000Y-92285714D01*
X215047619Y-92238095D01*
X215142857Y-92190476D01*
X215190476Y-92190476D01*
X215285714Y-92238095D01*
X215333333Y-92285714D01*
X215380952Y-92380952D01*
X215380952Y-92571428D01*
X215428571Y-92666666D01*
X215476190Y-92714285D01*
X215571428Y-92761904D01*
X215761904Y-92761904D01*
X215857142Y-92714285D01*
X215904761Y-92666666D01*
X215952380Y-92571428D01*
X215952380Y-92380952D01*
X215904761Y-92285714D01*
X215857142Y-92238095D01*
X215761904Y-92190476D01*
X215571428Y-92190476D01*
X215476190Y-92238095D01*
X215428571Y-92285714D01*
X215380952Y-92380952D01*
X214952380Y-91857142D02*
X214952380Y-91238095D01*
X215333333Y-91571428D01*
X215333333Y-91428571D01*
X215380952Y-91333333D01*
X215428571Y-91285714D01*
X215523809Y-91238095D01*
X215761904Y-91238095D01*
X215857142Y-91285714D01*
X215904761Y-91333333D01*
X215952380Y-91428571D01*
X215952380Y-91714285D01*
X215904761Y-91809523D01*
X215857142Y-91857142D01*
X215957142Y-82942857D02*
X216004761Y-82990476D01*
X216052380Y-83133333D01*
X216052380Y-83228571D01*
X216004761Y-83371428D01*
X215909523Y-83466666D01*
X215814285Y-83514285D01*
X215623809Y-83561904D01*
X215480952Y-83561904D01*
X215290476Y-83514285D01*
X215195238Y-83466666D01*
X215100000Y-83371428D01*
X215052380Y-83228571D01*
X215052380Y-83133333D01*
X215100000Y-82990476D01*
X215147619Y-82942857D01*
X215480952Y-82371428D02*
X215433333Y-82466666D01*
X215385714Y-82514285D01*
X215290476Y-82561904D01*
X215242857Y-82561904D01*
X215147619Y-82514285D01*
X215100000Y-82466666D01*
X215052380Y-82371428D01*
X215052380Y-82180952D01*
X215100000Y-82085714D01*
X215147619Y-82038095D01*
X215242857Y-81990476D01*
X215290476Y-81990476D01*
X215385714Y-82038095D01*
X215433333Y-82085714D01*
X215480952Y-82180952D01*
X215480952Y-82371428D01*
X215528571Y-82466666D01*
X215576190Y-82514285D01*
X215671428Y-82561904D01*
X215861904Y-82561904D01*
X215957142Y-82514285D01*
X216004761Y-82466666D01*
X216052380Y-82371428D01*
X216052380Y-82180952D01*
X216004761Y-82085714D01*
X215957142Y-82038095D01*
X215861904Y-81990476D01*
X215671428Y-81990476D01*
X215576190Y-82038095D01*
X215528571Y-82085714D01*
X215480952Y-82180952D01*
X215147619Y-81609523D02*
X215100000Y-81561904D01*
X215052380Y-81466666D01*
X215052380Y-81228571D01*
X215100000Y-81133333D01*
X215147619Y-81085714D01*
X215242857Y-81038095D01*
X215338095Y-81038095D01*
X215480952Y-81085714D01*
X216052380Y-81657142D01*
X216052380Y-81038095D01*
X170107142Y-91332857D02*
X170154761Y-91380476D01*
X170202380Y-91523333D01*
X170202380Y-91618571D01*
X170154761Y-91761428D01*
X170059523Y-91856666D01*
X169964285Y-91904285D01*
X169773809Y-91951904D01*
X169630952Y-91951904D01*
X169440476Y-91904285D01*
X169345238Y-91856666D01*
X169250000Y-91761428D01*
X169202380Y-91618571D01*
X169202380Y-91523333D01*
X169250000Y-91380476D01*
X169297619Y-91332857D01*
X169202380Y-90475714D02*
X169202380Y-90666190D01*
X169250000Y-90761428D01*
X169297619Y-90809047D01*
X169440476Y-90904285D01*
X169630952Y-90951904D01*
X170011904Y-90951904D01*
X170107142Y-90904285D01*
X170154761Y-90856666D01*
X170202380Y-90761428D01*
X170202380Y-90570952D01*
X170154761Y-90475714D01*
X170107142Y-90428095D01*
X170011904Y-90380476D01*
X169773809Y-90380476D01*
X169678571Y-90428095D01*
X169630952Y-90475714D01*
X169583333Y-90570952D01*
X169583333Y-90761428D01*
X169630952Y-90856666D01*
X169678571Y-90904285D01*
X169773809Y-90951904D01*
X170202380Y-89904285D02*
X170202380Y-89713809D01*
X170154761Y-89618571D01*
X170107142Y-89570952D01*
X169964285Y-89475714D01*
X169773809Y-89428095D01*
X169392857Y-89428095D01*
X169297619Y-89475714D01*
X169250000Y-89523333D01*
X169202380Y-89618571D01*
X169202380Y-89809047D01*
X169250000Y-89904285D01*
X169297619Y-89951904D01*
X169392857Y-89999523D01*
X169630952Y-89999523D01*
X169726190Y-89951904D01*
X169773809Y-89904285D01*
X169821428Y-89809047D01*
X169821428Y-89618571D01*
X169773809Y-89523333D01*
X169726190Y-89475714D01*
X169630952Y-89428095D01*
X173107142Y-87332857D02*
X173154761Y-87380476D01*
X173202380Y-87523333D01*
X173202380Y-87618571D01*
X173154761Y-87761428D01*
X173059523Y-87856666D01*
X172964285Y-87904285D01*
X172773809Y-87951904D01*
X172630952Y-87951904D01*
X172440476Y-87904285D01*
X172345238Y-87856666D01*
X172250000Y-87761428D01*
X172202380Y-87618571D01*
X172202380Y-87523333D01*
X172250000Y-87380476D01*
X172297619Y-87332857D01*
X172202380Y-86475714D02*
X172202380Y-86666190D01*
X172250000Y-86761428D01*
X172297619Y-86809047D01*
X172440476Y-86904285D01*
X172630952Y-86951904D01*
X173011904Y-86951904D01*
X173107142Y-86904285D01*
X173154761Y-86856666D01*
X173202380Y-86761428D01*
X173202380Y-86570952D01*
X173154761Y-86475714D01*
X173107142Y-86428095D01*
X173011904Y-86380476D01*
X172773809Y-86380476D01*
X172678571Y-86428095D01*
X172630952Y-86475714D01*
X172583333Y-86570952D01*
X172583333Y-86761428D01*
X172630952Y-86856666D01*
X172678571Y-86904285D01*
X172773809Y-86951904D01*
X172630952Y-85809047D02*
X172583333Y-85904285D01*
X172535714Y-85951904D01*
X172440476Y-85999523D01*
X172392857Y-85999523D01*
X172297619Y-85951904D01*
X172250000Y-85904285D01*
X172202380Y-85809047D01*
X172202380Y-85618571D01*
X172250000Y-85523333D01*
X172297619Y-85475714D01*
X172392857Y-85428095D01*
X172440476Y-85428095D01*
X172535714Y-85475714D01*
X172583333Y-85523333D01*
X172630952Y-85618571D01*
X172630952Y-85809047D01*
X172678571Y-85904285D01*
X172726190Y-85951904D01*
X172821428Y-85999523D01*
X173011904Y-85999523D01*
X173107142Y-85951904D01*
X173154761Y-85904285D01*
X173202380Y-85809047D01*
X173202380Y-85618571D01*
X173154761Y-85523333D01*
X173107142Y-85475714D01*
X173011904Y-85428095D01*
X172821428Y-85428095D01*
X172726190Y-85475714D01*
X172678571Y-85523333D01*
X172630952Y-85618571D01*
X185107142Y-91332857D02*
X185154761Y-91380476D01*
X185202380Y-91523333D01*
X185202380Y-91618571D01*
X185154761Y-91761428D01*
X185059523Y-91856666D01*
X184964285Y-91904285D01*
X184773809Y-91951904D01*
X184630952Y-91951904D01*
X184440476Y-91904285D01*
X184345238Y-91856666D01*
X184250000Y-91761428D01*
X184202380Y-91618571D01*
X184202380Y-91523333D01*
X184250000Y-91380476D01*
X184297619Y-91332857D01*
X184202380Y-90475714D02*
X184202380Y-90666190D01*
X184250000Y-90761428D01*
X184297619Y-90809047D01*
X184440476Y-90904285D01*
X184630952Y-90951904D01*
X185011904Y-90951904D01*
X185107142Y-90904285D01*
X185154761Y-90856666D01*
X185202380Y-90761428D01*
X185202380Y-90570952D01*
X185154761Y-90475714D01*
X185107142Y-90428095D01*
X185011904Y-90380476D01*
X184773809Y-90380476D01*
X184678571Y-90428095D01*
X184630952Y-90475714D01*
X184583333Y-90570952D01*
X184583333Y-90761428D01*
X184630952Y-90856666D01*
X184678571Y-90904285D01*
X184773809Y-90951904D01*
X184202380Y-90047142D02*
X184202380Y-89380476D01*
X185202380Y-89809047D01*
X173107142Y-81482857D02*
X173154761Y-81530476D01*
X173202380Y-81673333D01*
X173202380Y-81768571D01*
X173154761Y-81911428D01*
X173059523Y-82006666D01*
X172964285Y-82054285D01*
X172773809Y-82101904D01*
X172630952Y-82101904D01*
X172440476Y-82054285D01*
X172345238Y-82006666D01*
X172250000Y-81911428D01*
X172202380Y-81768571D01*
X172202380Y-81673333D01*
X172250000Y-81530476D01*
X172297619Y-81482857D01*
X172202380Y-80625714D02*
X172202380Y-80816190D01*
X172250000Y-80911428D01*
X172297619Y-80959047D01*
X172440476Y-81054285D01*
X172630952Y-81101904D01*
X173011904Y-81101904D01*
X173107142Y-81054285D01*
X173154761Y-81006666D01*
X173202380Y-80911428D01*
X173202380Y-80720952D01*
X173154761Y-80625714D01*
X173107142Y-80578095D01*
X173011904Y-80530476D01*
X172773809Y-80530476D01*
X172678571Y-80578095D01*
X172630952Y-80625714D01*
X172583333Y-80720952D01*
X172583333Y-80911428D01*
X172630952Y-81006666D01*
X172678571Y-81054285D01*
X172773809Y-81101904D01*
X172202380Y-79673333D02*
X172202380Y-79863809D01*
X172250000Y-79959047D01*
X172297619Y-80006666D01*
X172440476Y-80101904D01*
X172630952Y-80149523D01*
X173011904Y-80149523D01*
X173107142Y-80101904D01*
X173154761Y-80054285D01*
X173202380Y-79959047D01*
X173202380Y-79768571D01*
X173154761Y-79673333D01*
X173107142Y-79625714D01*
X173011904Y-79578095D01*
X172773809Y-79578095D01*
X172678571Y-79625714D01*
X172630952Y-79673333D01*
X172583333Y-79768571D01*
X172583333Y-79959047D01*
X172630952Y-80054285D01*
X172678571Y-80101904D01*
X172773809Y-80149523D01*
X188707142Y-81482857D02*
X188754761Y-81530476D01*
X188802380Y-81673333D01*
X188802380Y-81768571D01*
X188754761Y-81911428D01*
X188659523Y-82006666D01*
X188564285Y-82054285D01*
X188373809Y-82101904D01*
X188230952Y-82101904D01*
X188040476Y-82054285D01*
X187945238Y-82006666D01*
X187850000Y-81911428D01*
X187802380Y-81768571D01*
X187802380Y-81673333D01*
X187850000Y-81530476D01*
X187897619Y-81482857D01*
X187802380Y-80625714D02*
X187802380Y-80816190D01*
X187850000Y-80911428D01*
X187897619Y-80959047D01*
X188040476Y-81054285D01*
X188230952Y-81101904D01*
X188611904Y-81101904D01*
X188707142Y-81054285D01*
X188754761Y-81006666D01*
X188802380Y-80911428D01*
X188802380Y-80720952D01*
X188754761Y-80625714D01*
X188707142Y-80578095D01*
X188611904Y-80530476D01*
X188373809Y-80530476D01*
X188278571Y-80578095D01*
X188230952Y-80625714D01*
X188183333Y-80720952D01*
X188183333Y-80911428D01*
X188230952Y-81006666D01*
X188278571Y-81054285D01*
X188373809Y-81101904D01*
X187802380Y-79625714D02*
X187802380Y-80101904D01*
X188278571Y-80149523D01*
X188230952Y-80101904D01*
X188183333Y-80006666D01*
X188183333Y-79768571D01*
X188230952Y-79673333D01*
X188278571Y-79625714D01*
X188373809Y-79578095D01*
X188611904Y-79578095D01*
X188707142Y-79625714D01*
X188754761Y-79673333D01*
X188802380Y-79768571D01*
X188802380Y-80006666D01*
X188754761Y-80101904D01*
X188707142Y-80149523D01*
X179107142Y-79832857D02*
X179154761Y-79880476D01*
X179202380Y-80023333D01*
X179202380Y-80118571D01*
X179154761Y-80261428D01*
X179059523Y-80356666D01*
X178964285Y-80404285D01*
X178773809Y-80451904D01*
X178630952Y-80451904D01*
X178440476Y-80404285D01*
X178345238Y-80356666D01*
X178250000Y-80261428D01*
X178202380Y-80118571D01*
X178202380Y-80023333D01*
X178250000Y-79880476D01*
X178297619Y-79832857D01*
X178202380Y-78975714D02*
X178202380Y-79166190D01*
X178250000Y-79261428D01*
X178297619Y-79309047D01*
X178440476Y-79404285D01*
X178630952Y-79451904D01*
X179011904Y-79451904D01*
X179107142Y-79404285D01*
X179154761Y-79356666D01*
X179202380Y-79261428D01*
X179202380Y-79070952D01*
X179154761Y-78975714D01*
X179107142Y-78928095D01*
X179011904Y-78880476D01*
X178773809Y-78880476D01*
X178678571Y-78928095D01*
X178630952Y-78975714D01*
X178583333Y-79070952D01*
X178583333Y-79261428D01*
X178630952Y-79356666D01*
X178678571Y-79404285D01*
X178773809Y-79451904D01*
X178535714Y-78023333D02*
X179202380Y-78023333D01*
X178154761Y-78261428D02*
X178869047Y-78499523D01*
X178869047Y-77880476D01*
X147907142Y-84582857D02*
X147954761Y-84630476D01*
X148002380Y-84773333D01*
X148002380Y-84868571D01*
X147954761Y-85011428D01*
X147859523Y-85106666D01*
X147764285Y-85154285D01*
X147573809Y-85201904D01*
X147430952Y-85201904D01*
X147240476Y-85154285D01*
X147145238Y-85106666D01*
X147050000Y-85011428D01*
X147002380Y-84868571D01*
X147002380Y-84773333D01*
X147050000Y-84630476D01*
X147097619Y-84582857D01*
X147002380Y-83725714D02*
X147002380Y-83916190D01*
X147050000Y-84011428D01*
X147097619Y-84059047D01*
X147240476Y-84154285D01*
X147430952Y-84201904D01*
X147811904Y-84201904D01*
X147907142Y-84154285D01*
X147954761Y-84106666D01*
X148002380Y-84011428D01*
X148002380Y-83820952D01*
X147954761Y-83725714D01*
X147907142Y-83678095D01*
X147811904Y-83630476D01*
X147573809Y-83630476D01*
X147478571Y-83678095D01*
X147430952Y-83725714D01*
X147383333Y-83820952D01*
X147383333Y-84011428D01*
X147430952Y-84106666D01*
X147478571Y-84154285D01*
X147573809Y-84201904D01*
X147097619Y-83249523D02*
X147050000Y-83201904D01*
X147002380Y-83106666D01*
X147002380Y-82868571D01*
X147050000Y-82773333D01*
X147097619Y-82725714D01*
X147192857Y-82678095D01*
X147288095Y-82678095D01*
X147430952Y-82725714D01*
X148002380Y-83297142D01*
X148002380Y-82678095D01*
X148207142Y-80182857D02*
X148254761Y-80230476D01*
X148302380Y-80373333D01*
X148302380Y-80468571D01*
X148254761Y-80611428D01*
X148159523Y-80706666D01*
X148064285Y-80754285D01*
X147873809Y-80801904D01*
X147730952Y-80801904D01*
X147540476Y-80754285D01*
X147445238Y-80706666D01*
X147350000Y-80611428D01*
X147302380Y-80468571D01*
X147302380Y-80373333D01*
X147350000Y-80230476D01*
X147397619Y-80182857D01*
X147302380Y-79278095D02*
X147302380Y-79754285D01*
X147778571Y-79801904D01*
X147730952Y-79754285D01*
X147683333Y-79659047D01*
X147683333Y-79420952D01*
X147730952Y-79325714D01*
X147778571Y-79278095D01*
X147873809Y-79230476D01*
X148111904Y-79230476D01*
X148207142Y-79278095D01*
X148254761Y-79325714D01*
X148302380Y-79420952D01*
X148302380Y-79659047D01*
X148254761Y-79754285D01*
X148207142Y-79801904D01*
X147730952Y-78659047D02*
X147683333Y-78754285D01*
X147635714Y-78801904D01*
X147540476Y-78849523D01*
X147492857Y-78849523D01*
X147397619Y-78801904D01*
X147350000Y-78754285D01*
X147302380Y-78659047D01*
X147302380Y-78468571D01*
X147350000Y-78373333D01*
X147397619Y-78325714D01*
X147492857Y-78278095D01*
X147540476Y-78278095D01*
X147635714Y-78325714D01*
X147683333Y-78373333D01*
X147730952Y-78468571D01*
X147730952Y-78659047D01*
X147778571Y-78754285D01*
X147826190Y-78801904D01*
X147921428Y-78849523D01*
X148111904Y-78849523D01*
X148207142Y-78801904D01*
X148254761Y-78754285D01*
X148302380Y-78659047D01*
X148302380Y-78468571D01*
X148254761Y-78373333D01*
X148207142Y-78325714D01*
X148111904Y-78278095D01*
X147921428Y-78278095D01*
X147826190Y-78325714D01*
X147778571Y-78373333D01*
X147730952Y-78468571D01*
X165557142Y-81592857D02*
X165604761Y-81640476D01*
X165652380Y-81783333D01*
X165652380Y-81878571D01*
X165604761Y-82021428D01*
X165509523Y-82116666D01*
X165414285Y-82164285D01*
X165223809Y-82211904D01*
X165080952Y-82211904D01*
X164890476Y-82164285D01*
X164795238Y-82116666D01*
X164700000Y-82021428D01*
X164652380Y-81878571D01*
X164652380Y-81783333D01*
X164700000Y-81640476D01*
X164747619Y-81592857D01*
X164652380Y-80688095D02*
X164652380Y-81164285D01*
X165128571Y-81211904D01*
X165080952Y-81164285D01*
X165033333Y-81069047D01*
X165033333Y-80830952D01*
X165080952Y-80735714D01*
X165128571Y-80688095D01*
X165223809Y-80640476D01*
X165461904Y-80640476D01*
X165557142Y-80688095D01*
X165604761Y-80735714D01*
X165652380Y-80830952D01*
X165652380Y-81069047D01*
X165604761Y-81164285D01*
X165557142Y-81211904D01*
X164652380Y-80307142D02*
X164652380Y-79640476D01*
X165652380Y-80069047D01*
X153907142Y-79082857D02*
X153954761Y-79130476D01*
X154002380Y-79273333D01*
X154002380Y-79368571D01*
X153954761Y-79511428D01*
X153859523Y-79606666D01*
X153764285Y-79654285D01*
X153573809Y-79701904D01*
X153430952Y-79701904D01*
X153240476Y-79654285D01*
X153145238Y-79606666D01*
X153050000Y-79511428D01*
X153002380Y-79368571D01*
X153002380Y-79273333D01*
X153050000Y-79130476D01*
X153097619Y-79082857D01*
X153002380Y-78178095D02*
X153002380Y-78654285D01*
X153478571Y-78701904D01*
X153430952Y-78654285D01*
X153383333Y-78559047D01*
X153383333Y-78320952D01*
X153430952Y-78225714D01*
X153478571Y-78178095D01*
X153573809Y-78130476D01*
X153811904Y-78130476D01*
X153907142Y-78178095D01*
X153954761Y-78225714D01*
X154002380Y-78320952D01*
X154002380Y-78559047D01*
X153954761Y-78654285D01*
X153907142Y-78701904D01*
X153002380Y-77273333D02*
X153002380Y-77463809D01*
X153050000Y-77559047D01*
X153097619Y-77606666D01*
X153240476Y-77701904D01*
X153430952Y-77749523D01*
X153811904Y-77749523D01*
X153907142Y-77701904D01*
X153954761Y-77654285D01*
X154002380Y-77559047D01*
X154002380Y-77368571D01*
X153954761Y-77273333D01*
X153907142Y-77225714D01*
X153811904Y-77178095D01*
X153573809Y-77178095D01*
X153478571Y-77225714D01*
X153430952Y-77273333D01*
X153383333Y-77368571D01*
X153383333Y-77559047D01*
X153430952Y-77654285D01*
X153478571Y-77701904D01*
X153573809Y-77749523D01*
X224057142Y-110242857D02*
X224104761Y-110290476D01*
X224152380Y-110433333D01*
X224152380Y-110528571D01*
X224104761Y-110671428D01*
X224009523Y-110766666D01*
X223914285Y-110814285D01*
X223723809Y-110861904D01*
X223580952Y-110861904D01*
X223390476Y-110814285D01*
X223295238Y-110766666D01*
X223200000Y-110671428D01*
X223152380Y-110528571D01*
X223152380Y-110433333D01*
X223200000Y-110290476D01*
X223247619Y-110242857D01*
X223152380Y-109338095D02*
X223152380Y-109814285D01*
X223628571Y-109861904D01*
X223580952Y-109814285D01*
X223533333Y-109719047D01*
X223533333Y-109480952D01*
X223580952Y-109385714D01*
X223628571Y-109338095D01*
X223723809Y-109290476D01*
X223961904Y-109290476D01*
X224057142Y-109338095D01*
X224104761Y-109385714D01*
X224152380Y-109480952D01*
X224152380Y-109719047D01*
X224104761Y-109814285D01*
X224057142Y-109861904D01*
X223152380Y-108957142D02*
X223152380Y-108338095D01*
X223533333Y-108671428D01*
X223533333Y-108528571D01*
X223580952Y-108433333D01*
X223628571Y-108385714D01*
X223723809Y-108338095D01*
X223961904Y-108338095D01*
X224057142Y-108385714D01*
X224104761Y-108433333D01*
X224152380Y-108528571D01*
X224152380Y-108814285D01*
X224104761Y-108909523D01*
X224057142Y-108957142D01*
X227157142Y-110242857D02*
X227204761Y-110290476D01*
X227252380Y-110433333D01*
X227252380Y-110528571D01*
X227204761Y-110671428D01*
X227109523Y-110766666D01*
X227014285Y-110814285D01*
X226823809Y-110861904D01*
X226680952Y-110861904D01*
X226490476Y-110814285D01*
X226395238Y-110766666D01*
X226300000Y-110671428D01*
X226252380Y-110528571D01*
X226252380Y-110433333D01*
X226300000Y-110290476D01*
X226347619Y-110242857D01*
X226252380Y-109338095D02*
X226252380Y-109814285D01*
X226728571Y-109861904D01*
X226680952Y-109814285D01*
X226633333Y-109719047D01*
X226633333Y-109480952D01*
X226680952Y-109385714D01*
X226728571Y-109338095D01*
X226823809Y-109290476D01*
X227061904Y-109290476D01*
X227157142Y-109338095D01*
X227204761Y-109385714D01*
X227252380Y-109480952D01*
X227252380Y-109719047D01*
X227204761Y-109814285D01*
X227157142Y-109861904D01*
X226347619Y-108909523D02*
X226300000Y-108861904D01*
X226252380Y-108766666D01*
X226252380Y-108528571D01*
X226300000Y-108433333D01*
X226347619Y-108385714D01*
X226442857Y-108338095D01*
X226538095Y-108338095D01*
X226680952Y-108385714D01*
X227252380Y-108957142D01*
X227252380Y-108338095D01*
X230157142Y-110142857D02*
X230204761Y-110190476D01*
X230252380Y-110333333D01*
X230252380Y-110428571D01*
X230204761Y-110571428D01*
X230109523Y-110666666D01*
X230014285Y-110714285D01*
X229823809Y-110761904D01*
X229680952Y-110761904D01*
X229490476Y-110714285D01*
X229395238Y-110666666D01*
X229300000Y-110571428D01*
X229252380Y-110428571D01*
X229252380Y-110333333D01*
X229300000Y-110190476D01*
X229347619Y-110142857D01*
X229252380Y-109238095D02*
X229252380Y-109714285D01*
X229728571Y-109761904D01*
X229680952Y-109714285D01*
X229633333Y-109619047D01*
X229633333Y-109380952D01*
X229680952Y-109285714D01*
X229728571Y-109238095D01*
X229823809Y-109190476D01*
X230061904Y-109190476D01*
X230157142Y-109238095D01*
X230204761Y-109285714D01*
X230252380Y-109380952D01*
X230252380Y-109619047D01*
X230204761Y-109714285D01*
X230157142Y-109761904D01*
X230252380Y-108238095D02*
X230252380Y-108809523D01*
X230252380Y-108523809D02*
X229252380Y-108523809D01*
X229395238Y-108619047D01*
X229490476Y-108714285D01*
X229538095Y-108809523D01*
X233157142Y-110142857D02*
X233204761Y-110190476D01*
X233252380Y-110333333D01*
X233252380Y-110428571D01*
X233204761Y-110571428D01*
X233109523Y-110666666D01*
X233014285Y-110714285D01*
X232823809Y-110761904D01*
X232680952Y-110761904D01*
X232490476Y-110714285D01*
X232395238Y-110666666D01*
X232300000Y-110571428D01*
X232252380Y-110428571D01*
X232252380Y-110333333D01*
X232300000Y-110190476D01*
X232347619Y-110142857D01*
X232252380Y-109238095D02*
X232252380Y-109714285D01*
X232728571Y-109761904D01*
X232680952Y-109714285D01*
X232633333Y-109619047D01*
X232633333Y-109380952D01*
X232680952Y-109285714D01*
X232728571Y-109238095D01*
X232823809Y-109190476D01*
X233061904Y-109190476D01*
X233157142Y-109238095D01*
X233204761Y-109285714D01*
X233252380Y-109380952D01*
X233252380Y-109619047D01*
X233204761Y-109714285D01*
X233157142Y-109761904D01*
X232252380Y-108571428D02*
X232252380Y-108476190D01*
X232300000Y-108380952D01*
X232347619Y-108333333D01*
X232442857Y-108285714D01*
X232633333Y-108238095D01*
X232871428Y-108238095D01*
X233061904Y-108285714D01*
X233157142Y-108333333D01*
X233204761Y-108380952D01*
X233252380Y-108476190D01*
X233252380Y-108571428D01*
X233204761Y-108666666D01*
X233157142Y-108714285D01*
X233061904Y-108761904D01*
X232871428Y-108809523D01*
X232633333Y-108809523D01*
X232442857Y-108761904D01*
X232347619Y-108714285D01*
X232300000Y-108666666D01*
X232252380Y-108571428D01*
X221857142Y-125057142D02*
X221809523Y-125104761D01*
X221666666Y-125152380D01*
X221571428Y-125152380D01*
X221428571Y-125104761D01*
X221333333Y-125009523D01*
X221285714Y-124914285D01*
X221238095Y-124723809D01*
X221238095Y-124580952D01*
X221285714Y-124390476D01*
X221333333Y-124295238D01*
X221428571Y-124200000D01*
X221571428Y-124152380D01*
X221666666Y-124152380D01*
X221809523Y-124200000D01*
X221857142Y-124247619D01*
X222714285Y-124485714D02*
X222714285Y-125152380D01*
X222476190Y-124104761D02*
X222238095Y-124819047D01*
X222857142Y-124819047D01*
X223285714Y-125152380D02*
X223476190Y-125152380D01*
X223571428Y-125104761D01*
X223619047Y-125057142D01*
X223714285Y-124914285D01*
X223761904Y-124723809D01*
X223761904Y-124342857D01*
X223714285Y-124247619D01*
X223666666Y-124200000D01*
X223571428Y-124152380D01*
X223380952Y-124152380D01*
X223285714Y-124200000D01*
X223238095Y-124247619D01*
X223190476Y-124342857D01*
X223190476Y-124580952D01*
X223238095Y-124676190D01*
X223285714Y-124723809D01*
X223380952Y-124771428D01*
X223571428Y-124771428D01*
X223666666Y-124723809D01*
X223714285Y-124676190D01*
X223761904Y-124580952D01*
X221857142Y-123007142D02*
X221809523Y-123054761D01*
X221666666Y-123102380D01*
X221571428Y-123102380D01*
X221428571Y-123054761D01*
X221333333Y-122959523D01*
X221285714Y-122864285D01*
X221238095Y-122673809D01*
X221238095Y-122530952D01*
X221285714Y-122340476D01*
X221333333Y-122245238D01*
X221428571Y-122150000D01*
X221571428Y-122102380D01*
X221666666Y-122102380D01*
X221809523Y-122150000D01*
X221857142Y-122197619D01*
X222714285Y-122435714D02*
X222714285Y-123102380D01*
X222476190Y-122054761D02*
X222238095Y-122769047D01*
X222857142Y-122769047D01*
X223380952Y-122530952D02*
X223285714Y-122483333D01*
X223238095Y-122435714D01*
X223190476Y-122340476D01*
X223190476Y-122292857D01*
X223238095Y-122197619D01*
X223285714Y-122150000D01*
X223380952Y-122102380D01*
X223571428Y-122102380D01*
X223666666Y-122150000D01*
X223714285Y-122197619D01*
X223761904Y-122292857D01*
X223761904Y-122340476D01*
X223714285Y-122435714D01*
X223666666Y-122483333D01*
X223571428Y-122530952D01*
X223380952Y-122530952D01*
X223285714Y-122578571D01*
X223238095Y-122626190D01*
X223190476Y-122721428D01*
X223190476Y-122911904D01*
X223238095Y-123007142D01*
X223285714Y-123054761D01*
X223380952Y-123102380D01*
X223571428Y-123102380D01*
X223666666Y-123054761D01*
X223714285Y-123007142D01*
X223761904Y-122911904D01*
X223761904Y-122721428D01*
X223714285Y-122626190D01*
X223666666Y-122578571D01*
X223571428Y-122530952D01*
X219857142Y-116542857D02*
X219904761Y-116590476D01*
X219952380Y-116733333D01*
X219952380Y-116828571D01*
X219904761Y-116971428D01*
X219809523Y-117066666D01*
X219714285Y-117114285D01*
X219523809Y-117161904D01*
X219380952Y-117161904D01*
X219190476Y-117114285D01*
X219095238Y-117066666D01*
X219000000Y-116971428D01*
X218952380Y-116828571D01*
X218952380Y-116733333D01*
X219000000Y-116590476D01*
X219047619Y-116542857D01*
X219285714Y-115685714D02*
X219952380Y-115685714D01*
X218904761Y-115923809D02*
X219619047Y-116161904D01*
X219619047Y-115542857D01*
X218952380Y-115257142D02*
X218952380Y-114590476D01*
X219952380Y-115019047D01*
X232357142Y-123007142D02*
X232309523Y-123054761D01*
X232166666Y-123102380D01*
X232071428Y-123102380D01*
X231928571Y-123054761D01*
X231833333Y-122959523D01*
X231785714Y-122864285D01*
X231738095Y-122673809D01*
X231738095Y-122530952D01*
X231785714Y-122340476D01*
X231833333Y-122245238D01*
X231928571Y-122150000D01*
X232071428Y-122102380D01*
X232166666Y-122102380D01*
X232309523Y-122150000D01*
X232357142Y-122197619D01*
X233214285Y-122435714D02*
X233214285Y-123102380D01*
X232976190Y-122054761D02*
X232738095Y-122769047D01*
X233357142Y-122769047D01*
X234166666Y-122102380D02*
X233976190Y-122102380D01*
X233880952Y-122150000D01*
X233833333Y-122197619D01*
X233738095Y-122340476D01*
X233690476Y-122530952D01*
X233690476Y-122911904D01*
X233738095Y-123007142D01*
X233785714Y-123054761D01*
X233880952Y-123102380D01*
X234071428Y-123102380D01*
X234166666Y-123054761D01*
X234214285Y-123007142D01*
X234261904Y-122911904D01*
X234261904Y-122673809D01*
X234214285Y-122578571D01*
X234166666Y-122530952D01*
X234071428Y-122483333D01*
X233880952Y-122483333D01*
X233785714Y-122530952D01*
X233738095Y-122578571D01*
X233690476Y-122673809D01*
X221857142Y-116542857D02*
X221904761Y-116590476D01*
X221952380Y-116733333D01*
X221952380Y-116828571D01*
X221904761Y-116971428D01*
X221809523Y-117066666D01*
X221714285Y-117114285D01*
X221523809Y-117161904D01*
X221380952Y-117161904D01*
X221190476Y-117114285D01*
X221095238Y-117066666D01*
X221000000Y-116971428D01*
X220952380Y-116828571D01*
X220952380Y-116733333D01*
X221000000Y-116590476D01*
X221047619Y-116542857D01*
X221285714Y-115685714D02*
X221952380Y-115685714D01*
X220904761Y-115923809D02*
X221619047Y-116161904D01*
X221619047Y-115542857D01*
X220952380Y-114685714D02*
X220952380Y-115161904D01*
X221428571Y-115209523D01*
X221380952Y-115161904D01*
X221333333Y-115066666D01*
X221333333Y-114828571D01*
X221380952Y-114733333D01*
X221428571Y-114685714D01*
X221523809Y-114638095D01*
X221761904Y-114638095D01*
X221857142Y-114685714D01*
X221904761Y-114733333D01*
X221952380Y-114828571D01*
X221952380Y-115066666D01*
X221904761Y-115161904D01*
X221857142Y-115209523D01*
X179107142Y-91332857D02*
X179154761Y-91380476D01*
X179202380Y-91523333D01*
X179202380Y-91618571D01*
X179154761Y-91761428D01*
X179059523Y-91856666D01*
X178964285Y-91904285D01*
X178773809Y-91951904D01*
X178630952Y-91951904D01*
X178440476Y-91904285D01*
X178345238Y-91856666D01*
X178250000Y-91761428D01*
X178202380Y-91618571D01*
X178202380Y-91523333D01*
X178250000Y-91380476D01*
X178297619Y-91332857D01*
X178202380Y-90475714D02*
X178202380Y-90666190D01*
X178250000Y-90761428D01*
X178297619Y-90809047D01*
X178440476Y-90904285D01*
X178630952Y-90951904D01*
X179011904Y-90951904D01*
X179107142Y-90904285D01*
X179154761Y-90856666D01*
X179202380Y-90761428D01*
X179202380Y-90570952D01*
X179154761Y-90475714D01*
X179107142Y-90428095D01*
X179011904Y-90380476D01*
X178773809Y-90380476D01*
X178678571Y-90428095D01*
X178630952Y-90475714D01*
X178583333Y-90570952D01*
X178583333Y-90761428D01*
X178630952Y-90856666D01*
X178678571Y-90904285D01*
X178773809Y-90951904D01*
X178202380Y-89761428D02*
X178202380Y-89666190D01*
X178250000Y-89570952D01*
X178297619Y-89523333D01*
X178392857Y-89475714D01*
X178583333Y-89428095D01*
X178821428Y-89428095D01*
X179011904Y-89475714D01*
X179107142Y-89523333D01*
X179154761Y-89570952D01*
X179202380Y-89666190D01*
X179202380Y-89761428D01*
X179154761Y-89856666D01*
X179107142Y-89904285D01*
X179011904Y-89951904D01*
X178821428Y-89999523D01*
X178583333Y-89999523D01*
X178392857Y-89951904D01*
X178297619Y-89904285D01*
X178250000Y-89856666D01*
X178202380Y-89761428D01*
X176107142Y-91332857D02*
X176154761Y-91380476D01*
X176202380Y-91523333D01*
X176202380Y-91618571D01*
X176154761Y-91761428D01*
X176059523Y-91856666D01*
X175964285Y-91904285D01*
X175773809Y-91951904D01*
X175630952Y-91951904D01*
X175440476Y-91904285D01*
X175345238Y-91856666D01*
X175250000Y-91761428D01*
X175202380Y-91618571D01*
X175202380Y-91523333D01*
X175250000Y-91380476D01*
X175297619Y-91332857D01*
X175202380Y-90428095D02*
X175202380Y-90904285D01*
X175678571Y-90951904D01*
X175630952Y-90904285D01*
X175583333Y-90809047D01*
X175583333Y-90570952D01*
X175630952Y-90475714D01*
X175678571Y-90428095D01*
X175773809Y-90380476D01*
X176011904Y-90380476D01*
X176107142Y-90428095D01*
X176154761Y-90475714D01*
X176202380Y-90570952D01*
X176202380Y-90809047D01*
X176154761Y-90904285D01*
X176107142Y-90951904D01*
X175202380Y-89475714D02*
X175202380Y-89951904D01*
X175678571Y-89999523D01*
X175630952Y-89951904D01*
X175583333Y-89856666D01*
X175583333Y-89618571D01*
X175630952Y-89523333D01*
X175678571Y-89475714D01*
X175773809Y-89428095D01*
X176011904Y-89428095D01*
X176107142Y-89475714D01*
X176154761Y-89523333D01*
X176202380Y-89618571D01*
X176202380Y-89856666D01*
X176154761Y-89951904D01*
X176107142Y-89999523D01*
X192857142Y-98842857D02*
X192904761Y-98890476D01*
X192952380Y-99033333D01*
X192952380Y-99128571D01*
X192904761Y-99271428D01*
X192809523Y-99366666D01*
X192714285Y-99414285D01*
X192523809Y-99461904D01*
X192380952Y-99461904D01*
X192190476Y-99414285D01*
X192095238Y-99366666D01*
X192000000Y-99271428D01*
X191952380Y-99128571D01*
X191952380Y-99033333D01*
X192000000Y-98890476D01*
X192047619Y-98842857D01*
X192285714Y-97985714D02*
X192952380Y-97985714D01*
X191904761Y-98223809D02*
X192619047Y-98461904D01*
X192619047Y-97842857D01*
X191952380Y-97557142D02*
X191952380Y-96938095D01*
X192333333Y-97271428D01*
X192333333Y-97128571D01*
X192380952Y-97033333D01*
X192428571Y-96985714D01*
X192523809Y-96938095D01*
X192761904Y-96938095D01*
X192857142Y-96985714D01*
X192904761Y-97033333D01*
X192952380Y-97128571D01*
X192952380Y-97414285D01*
X192904761Y-97509523D01*
X192857142Y-97557142D01*
X194457142Y-102642857D02*
X194504761Y-102690476D01*
X194552380Y-102833333D01*
X194552380Y-102928571D01*
X194504761Y-103071428D01*
X194409523Y-103166666D01*
X194314285Y-103214285D01*
X194123809Y-103261904D01*
X193980952Y-103261904D01*
X193790476Y-103214285D01*
X193695238Y-103166666D01*
X193600000Y-103071428D01*
X193552380Y-102928571D01*
X193552380Y-102833333D01*
X193600000Y-102690476D01*
X193647619Y-102642857D01*
X193885714Y-101785714D02*
X194552380Y-101785714D01*
X193504761Y-102023809D02*
X194219047Y-102261904D01*
X194219047Y-101642857D01*
X193647619Y-101309523D02*
X193600000Y-101261904D01*
X193552380Y-101166666D01*
X193552380Y-100928571D01*
X193600000Y-100833333D01*
X193647619Y-100785714D01*
X193742857Y-100738095D01*
X193838095Y-100738095D01*
X193980952Y-100785714D01*
X194552380Y-101357142D01*
X194552380Y-100738095D01*
X188257142Y-99242857D02*
X188304761Y-99290476D01*
X188352380Y-99433333D01*
X188352380Y-99528571D01*
X188304761Y-99671428D01*
X188209523Y-99766666D01*
X188114285Y-99814285D01*
X187923809Y-99861904D01*
X187780952Y-99861904D01*
X187590476Y-99814285D01*
X187495238Y-99766666D01*
X187400000Y-99671428D01*
X187352380Y-99528571D01*
X187352380Y-99433333D01*
X187400000Y-99290476D01*
X187447619Y-99242857D01*
X187685714Y-98385714D02*
X188352380Y-98385714D01*
X187304761Y-98623809D02*
X188019047Y-98861904D01*
X188019047Y-98242857D01*
X188352380Y-97338095D02*
X188352380Y-97909523D01*
X188352380Y-97623809D02*
X187352380Y-97623809D01*
X187495238Y-97719047D01*
X187590476Y-97814285D01*
X187638095Y-97909523D01*
X188157142Y-114142857D02*
X188204761Y-114190476D01*
X188252380Y-114333333D01*
X188252380Y-114428571D01*
X188204761Y-114571428D01*
X188109523Y-114666666D01*
X188014285Y-114714285D01*
X187823809Y-114761904D01*
X187680952Y-114761904D01*
X187490476Y-114714285D01*
X187395238Y-114666666D01*
X187300000Y-114571428D01*
X187252380Y-114428571D01*
X187252380Y-114333333D01*
X187300000Y-114190476D01*
X187347619Y-114142857D01*
X187585714Y-113285714D02*
X188252380Y-113285714D01*
X187204761Y-113523809D02*
X187919047Y-113761904D01*
X187919047Y-113142857D01*
X187252380Y-112571428D02*
X187252380Y-112476190D01*
X187300000Y-112380952D01*
X187347619Y-112333333D01*
X187442857Y-112285714D01*
X187633333Y-112238095D01*
X187871428Y-112238095D01*
X188061904Y-112285714D01*
X188157142Y-112333333D01*
X188204761Y-112380952D01*
X188252380Y-112476190D01*
X188252380Y-112571428D01*
X188204761Y-112666666D01*
X188157142Y-112714285D01*
X188061904Y-112761904D01*
X187871428Y-112809523D01*
X187633333Y-112809523D01*
X187442857Y-112761904D01*
X187347619Y-112714285D01*
X187300000Y-112666666D01*
X187252380Y-112571428D01*
X194457142Y-110242857D02*
X194504761Y-110290476D01*
X194552380Y-110433333D01*
X194552380Y-110528571D01*
X194504761Y-110671428D01*
X194409523Y-110766666D01*
X194314285Y-110814285D01*
X194123809Y-110861904D01*
X193980952Y-110861904D01*
X193790476Y-110814285D01*
X193695238Y-110766666D01*
X193600000Y-110671428D01*
X193552380Y-110528571D01*
X193552380Y-110433333D01*
X193600000Y-110290476D01*
X193647619Y-110242857D01*
X193552380Y-109909523D02*
X193552380Y-109290476D01*
X193933333Y-109623809D01*
X193933333Y-109480952D01*
X193980952Y-109385714D01*
X194028571Y-109338095D01*
X194123809Y-109290476D01*
X194361904Y-109290476D01*
X194457142Y-109338095D01*
X194504761Y-109385714D01*
X194552380Y-109480952D01*
X194552380Y-109766666D01*
X194504761Y-109861904D01*
X194457142Y-109909523D01*
X194552380Y-108814285D02*
X194552380Y-108623809D01*
X194504761Y-108528571D01*
X194457142Y-108480952D01*
X194314285Y-108385714D01*
X194123809Y-108338095D01*
X193742857Y-108338095D01*
X193647619Y-108385714D01*
X193600000Y-108433333D01*
X193552380Y-108528571D01*
X193552380Y-108719047D01*
X193600000Y-108814285D01*
X193647619Y-108861904D01*
X193742857Y-108909523D01*
X193980952Y-108909523D01*
X194076190Y-108861904D01*
X194123809Y-108814285D01*
X194171428Y-108719047D01*
X194171428Y-108528571D01*
X194123809Y-108433333D01*
X194076190Y-108385714D01*
X193980952Y-108338095D01*
X192857142Y-114042857D02*
X192904761Y-114090476D01*
X192952380Y-114233333D01*
X192952380Y-114328571D01*
X192904761Y-114471428D01*
X192809523Y-114566666D01*
X192714285Y-114614285D01*
X192523809Y-114661904D01*
X192380952Y-114661904D01*
X192190476Y-114614285D01*
X192095238Y-114566666D01*
X192000000Y-114471428D01*
X191952380Y-114328571D01*
X191952380Y-114233333D01*
X192000000Y-114090476D01*
X192047619Y-114042857D01*
X191952380Y-113709523D02*
X191952380Y-113090476D01*
X192333333Y-113423809D01*
X192333333Y-113280952D01*
X192380952Y-113185714D01*
X192428571Y-113138095D01*
X192523809Y-113090476D01*
X192761904Y-113090476D01*
X192857142Y-113138095D01*
X192904761Y-113185714D01*
X192952380Y-113280952D01*
X192952380Y-113566666D01*
X192904761Y-113661904D01*
X192857142Y-113709523D01*
X192380952Y-112519047D02*
X192333333Y-112614285D01*
X192285714Y-112661904D01*
X192190476Y-112709523D01*
X192142857Y-112709523D01*
X192047619Y-112661904D01*
X192000000Y-112614285D01*
X191952380Y-112519047D01*
X191952380Y-112328571D01*
X192000000Y-112233333D01*
X192047619Y-112185714D01*
X192142857Y-112138095D01*
X192190476Y-112138095D01*
X192285714Y-112185714D01*
X192333333Y-112233333D01*
X192380952Y-112328571D01*
X192380952Y-112519047D01*
X192428571Y-112614285D01*
X192476190Y-112661904D01*
X192571428Y-112709523D01*
X192761904Y-112709523D01*
X192857142Y-112661904D01*
X192904761Y-112614285D01*
X192952380Y-112519047D01*
X192952380Y-112328571D01*
X192904761Y-112233333D01*
X192857142Y-112185714D01*
X192761904Y-112138095D01*
X192571428Y-112138095D01*
X192476190Y-112185714D01*
X192428571Y-112233333D01*
X192380952Y-112328571D01*
X184857142Y-118142857D02*
X184904761Y-118190476D01*
X184952380Y-118333333D01*
X184952380Y-118428571D01*
X184904761Y-118571428D01*
X184809523Y-118666666D01*
X184714285Y-118714285D01*
X184523809Y-118761904D01*
X184380952Y-118761904D01*
X184190476Y-118714285D01*
X184095238Y-118666666D01*
X184000000Y-118571428D01*
X183952380Y-118428571D01*
X183952380Y-118333333D01*
X184000000Y-118190476D01*
X184047619Y-118142857D01*
X183952380Y-117809523D02*
X183952380Y-117190476D01*
X184333333Y-117523809D01*
X184333333Y-117380952D01*
X184380952Y-117285714D01*
X184428571Y-117238095D01*
X184523809Y-117190476D01*
X184761904Y-117190476D01*
X184857142Y-117238095D01*
X184904761Y-117285714D01*
X184952380Y-117380952D01*
X184952380Y-117666666D01*
X184904761Y-117761904D01*
X184857142Y-117809523D01*
X183952380Y-116857142D02*
X183952380Y-116190476D01*
X184952380Y-116619047D01*
X182857142Y-118142857D02*
X182904761Y-118190476D01*
X182952380Y-118333333D01*
X182952380Y-118428571D01*
X182904761Y-118571428D01*
X182809523Y-118666666D01*
X182714285Y-118714285D01*
X182523809Y-118761904D01*
X182380952Y-118761904D01*
X182190476Y-118714285D01*
X182095238Y-118666666D01*
X182000000Y-118571428D01*
X181952380Y-118428571D01*
X181952380Y-118333333D01*
X182000000Y-118190476D01*
X182047619Y-118142857D01*
X181952380Y-117809523D02*
X181952380Y-117190476D01*
X182333333Y-117523809D01*
X182333333Y-117380952D01*
X182380952Y-117285714D01*
X182428571Y-117238095D01*
X182523809Y-117190476D01*
X182761904Y-117190476D01*
X182857142Y-117238095D01*
X182904761Y-117285714D01*
X182952380Y-117380952D01*
X182952380Y-117666666D01*
X182904761Y-117761904D01*
X182857142Y-117809523D01*
X181952380Y-116333333D02*
X181952380Y-116523809D01*
X182000000Y-116619047D01*
X182047619Y-116666666D01*
X182190476Y-116761904D01*
X182380952Y-116809523D01*
X182761904Y-116809523D01*
X182857142Y-116761904D01*
X182904761Y-116714285D01*
X182952380Y-116619047D01*
X182952380Y-116428571D01*
X182904761Y-116333333D01*
X182857142Y-116285714D01*
X182761904Y-116238095D01*
X182523809Y-116238095D01*
X182428571Y-116285714D01*
X182380952Y-116333333D01*
X182333333Y-116428571D01*
X182333333Y-116619047D01*
X182380952Y-116714285D01*
X182428571Y-116761904D01*
X182523809Y-116809523D01*
X180857142Y-118142857D02*
X180904761Y-118190476D01*
X180952380Y-118333333D01*
X180952380Y-118428571D01*
X180904761Y-118571428D01*
X180809523Y-118666666D01*
X180714285Y-118714285D01*
X180523809Y-118761904D01*
X180380952Y-118761904D01*
X180190476Y-118714285D01*
X180095238Y-118666666D01*
X180000000Y-118571428D01*
X179952380Y-118428571D01*
X179952380Y-118333333D01*
X180000000Y-118190476D01*
X180047619Y-118142857D01*
X179952380Y-117809523D02*
X179952380Y-117190476D01*
X180333333Y-117523809D01*
X180333333Y-117380952D01*
X180380952Y-117285714D01*
X180428571Y-117238095D01*
X180523809Y-117190476D01*
X180761904Y-117190476D01*
X180857142Y-117238095D01*
X180904761Y-117285714D01*
X180952380Y-117380952D01*
X180952380Y-117666666D01*
X180904761Y-117761904D01*
X180857142Y-117809523D01*
X179952380Y-116285714D02*
X179952380Y-116761904D01*
X180428571Y-116809523D01*
X180380952Y-116761904D01*
X180333333Y-116666666D01*
X180333333Y-116428571D01*
X180380952Y-116333333D01*
X180428571Y-116285714D01*
X180523809Y-116238095D01*
X180761904Y-116238095D01*
X180857142Y-116285714D01*
X180904761Y-116333333D01*
X180952380Y-116428571D01*
X180952380Y-116666666D01*
X180904761Y-116761904D01*
X180857142Y-116809523D01*
X184857142Y-138642857D02*
X184904761Y-138690476D01*
X184952380Y-138833333D01*
X184952380Y-138928571D01*
X184904761Y-139071428D01*
X184809523Y-139166666D01*
X184714285Y-139214285D01*
X184523809Y-139261904D01*
X184380952Y-139261904D01*
X184190476Y-139214285D01*
X184095238Y-139166666D01*
X184000000Y-139071428D01*
X183952380Y-138928571D01*
X183952380Y-138833333D01*
X184000000Y-138690476D01*
X184047619Y-138642857D01*
X183952380Y-138309523D02*
X183952380Y-137690476D01*
X184333333Y-138023809D01*
X184333333Y-137880952D01*
X184380952Y-137785714D01*
X184428571Y-137738095D01*
X184523809Y-137690476D01*
X184761904Y-137690476D01*
X184857142Y-137738095D01*
X184904761Y-137785714D01*
X184952380Y-137880952D01*
X184952380Y-138166666D01*
X184904761Y-138261904D01*
X184857142Y-138309523D01*
X184285714Y-136833333D02*
X184952380Y-136833333D01*
X183904761Y-137071428D02*
X184619047Y-137309523D01*
X184619047Y-136690476D01*
X182857142Y-138642857D02*
X182904761Y-138690476D01*
X182952380Y-138833333D01*
X182952380Y-138928571D01*
X182904761Y-139071428D01*
X182809523Y-139166666D01*
X182714285Y-139214285D01*
X182523809Y-139261904D01*
X182380952Y-139261904D01*
X182190476Y-139214285D01*
X182095238Y-139166666D01*
X182000000Y-139071428D01*
X181952380Y-138928571D01*
X181952380Y-138833333D01*
X182000000Y-138690476D01*
X182047619Y-138642857D01*
X181952380Y-138309523D02*
X181952380Y-137690476D01*
X182333333Y-138023809D01*
X182333333Y-137880952D01*
X182380952Y-137785714D01*
X182428571Y-137738095D01*
X182523809Y-137690476D01*
X182761904Y-137690476D01*
X182857142Y-137738095D01*
X182904761Y-137785714D01*
X182952380Y-137880952D01*
X182952380Y-138166666D01*
X182904761Y-138261904D01*
X182857142Y-138309523D01*
X181952380Y-137357142D02*
X181952380Y-136738095D01*
X182333333Y-137071428D01*
X182333333Y-136928571D01*
X182380952Y-136833333D01*
X182428571Y-136785714D01*
X182523809Y-136738095D01*
X182761904Y-136738095D01*
X182857142Y-136785714D01*
X182904761Y-136833333D01*
X182952380Y-136928571D01*
X182952380Y-137214285D01*
X182904761Y-137309523D01*
X182857142Y-137357142D01*
X180857142Y-138642857D02*
X180904761Y-138690476D01*
X180952380Y-138833333D01*
X180952380Y-138928571D01*
X180904761Y-139071428D01*
X180809523Y-139166666D01*
X180714285Y-139214285D01*
X180523809Y-139261904D01*
X180380952Y-139261904D01*
X180190476Y-139214285D01*
X180095238Y-139166666D01*
X180000000Y-139071428D01*
X179952380Y-138928571D01*
X179952380Y-138833333D01*
X180000000Y-138690476D01*
X180047619Y-138642857D01*
X179952380Y-138309523D02*
X179952380Y-137690476D01*
X180333333Y-138023809D01*
X180333333Y-137880952D01*
X180380952Y-137785714D01*
X180428571Y-137738095D01*
X180523809Y-137690476D01*
X180761904Y-137690476D01*
X180857142Y-137738095D01*
X180904761Y-137785714D01*
X180952380Y-137880952D01*
X180952380Y-138166666D01*
X180904761Y-138261904D01*
X180857142Y-138309523D01*
X180047619Y-137309523D02*
X180000000Y-137261904D01*
X179952380Y-137166666D01*
X179952380Y-136928571D01*
X180000000Y-136833333D01*
X180047619Y-136785714D01*
X180142857Y-136738095D01*
X180238095Y-136738095D01*
X180380952Y-136785714D01*
X180952380Y-137357142D01*
X180952380Y-136738095D01*
X174857142Y-117992857D02*
X174904761Y-118040476D01*
X174952380Y-118183333D01*
X174952380Y-118278571D01*
X174904761Y-118421428D01*
X174809523Y-118516666D01*
X174714285Y-118564285D01*
X174523809Y-118611904D01*
X174380952Y-118611904D01*
X174190476Y-118564285D01*
X174095238Y-118516666D01*
X174000000Y-118421428D01*
X173952380Y-118278571D01*
X173952380Y-118183333D01*
X174000000Y-118040476D01*
X174047619Y-117992857D01*
X173952380Y-117659523D02*
X173952380Y-117040476D01*
X174333333Y-117373809D01*
X174333333Y-117230952D01*
X174380952Y-117135714D01*
X174428571Y-117088095D01*
X174523809Y-117040476D01*
X174761904Y-117040476D01*
X174857142Y-117088095D01*
X174904761Y-117135714D01*
X174952380Y-117230952D01*
X174952380Y-117516666D01*
X174904761Y-117611904D01*
X174857142Y-117659523D01*
X174952380Y-116088095D02*
X174952380Y-116659523D01*
X174952380Y-116373809D02*
X173952380Y-116373809D01*
X174095238Y-116469047D01*
X174190476Y-116564285D01*
X174238095Y-116659523D01*
X172857142Y-117992857D02*
X172904761Y-118040476D01*
X172952380Y-118183333D01*
X172952380Y-118278571D01*
X172904761Y-118421428D01*
X172809523Y-118516666D01*
X172714285Y-118564285D01*
X172523809Y-118611904D01*
X172380952Y-118611904D01*
X172190476Y-118564285D01*
X172095238Y-118516666D01*
X172000000Y-118421428D01*
X171952380Y-118278571D01*
X171952380Y-118183333D01*
X172000000Y-118040476D01*
X172047619Y-117992857D01*
X171952380Y-117659523D02*
X171952380Y-117040476D01*
X172333333Y-117373809D01*
X172333333Y-117230952D01*
X172380952Y-117135714D01*
X172428571Y-117088095D01*
X172523809Y-117040476D01*
X172761904Y-117040476D01*
X172857142Y-117088095D01*
X172904761Y-117135714D01*
X172952380Y-117230952D01*
X172952380Y-117516666D01*
X172904761Y-117611904D01*
X172857142Y-117659523D01*
X171952380Y-116421428D02*
X171952380Y-116326190D01*
X172000000Y-116230952D01*
X172047619Y-116183333D01*
X172142857Y-116135714D01*
X172333333Y-116088095D01*
X172571428Y-116088095D01*
X172761904Y-116135714D01*
X172857142Y-116183333D01*
X172904761Y-116230952D01*
X172952380Y-116326190D01*
X172952380Y-116421428D01*
X172904761Y-116516666D01*
X172857142Y-116564285D01*
X172761904Y-116611904D01*
X172571428Y-116659523D01*
X172333333Y-116659523D01*
X172142857Y-116611904D01*
X172047619Y-116564285D01*
X172000000Y-116516666D01*
X171952380Y-116421428D01*
X170857142Y-117992857D02*
X170904761Y-118040476D01*
X170952380Y-118183333D01*
X170952380Y-118278571D01*
X170904761Y-118421428D01*
X170809523Y-118516666D01*
X170714285Y-118564285D01*
X170523809Y-118611904D01*
X170380952Y-118611904D01*
X170190476Y-118564285D01*
X170095238Y-118516666D01*
X170000000Y-118421428D01*
X169952380Y-118278571D01*
X169952380Y-118183333D01*
X170000000Y-118040476D01*
X170047619Y-117992857D01*
X170047619Y-117611904D02*
X170000000Y-117564285D01*
X169952380Y-117469047D01*
X169952380Y-117230952D01*
X170000000Y-117135714D01*
X170047619Y-117088095D01*
X170142857Y-117040476D01*
X170238095Y-117040476D01*
X170380952Y-117088095D01*
X170952380Y-117659523D01*
X170952380Y-117040476D01*
X170952380Y-116564285D02*
X170952380Y-116373809D01*
X170904761Y-116278571D01*
X170857142Y-116230952D01*
X170714285Y-116135714D01*
X170523809Y-116088095D01*
X170142857Y-116088095D01*
X170047619Y-116135714D01*
X170000000Y-116183333D01*
X169952380Y-116278571D01*
X169952380Y-116469047D01*
X170000000Y-116564285D01*
X170047619Y-116611904D01*
X170142857Y-116659523D01*
X170380952Y-116659523D01*
X170476190Y-116611904D01*
X170523809Y-116564285D01*
X170571428Y-116469047D01*
X170571428Y-116278571D01*
X170523809Y-116183333D01*
X170476190Y-116135714D01*
X170380952Y-116088095D01*
X174857142Y-138492857D02*
X174904761Y-138540476D01*
X174952380Y-138683333D01*
X174952380Y-138778571D01*
X174904761Y-138921428D01*
X174809523Y-139016666D01*
X174714285Y-139064285D01*
X174523809Y-139111904D01*
X174380952Y-139111904D01*
X174190476Y-139064285D01*
X174095238Y-139016666D01*
X174000000Y-138921428D01*
X173952380Y-138778571D01*
X173952380Y-138683333D01*
X174000000Y-138540476D01*
X174047619Y-138492857D01*
X174047619Y-138111904D02*
X174000000Y-138064285D01*
X173952380Y-137969047D01*
X173952380Y-137730952D01*
X174000000Y-137635714D01*
X174047619Y-137588095D01*
X174142857Y-137540476D01*
X174238095Y-137540476D01*
X174380952Y-137588095D01*
X174952380Y-138159523D01*
X174952380Y-137540476D01*
X174380952Y-136969047D02*
X174333333Y-137064285D01*
X174285714Y-137111904D01*
X174190476Y-137159523D01*
X174142857Y-137159523D01*
X174047619Y-137111904D01*
X174000000Y-137064285D01*
X173952380Y-136969047D01*
X173952380Y-136778571D01*
X174000000Y-136683333D01*
X174047619Y-136635714D01*
X174142857Y-136588095D01*
X174190476Y-136588095D01*
X174285714Y-136635714D01*
X174333333Y-136683333D01*
X174380952Y-136778571D01*
X174380952Y-136969047D01*
X174428571Y-137064285D01*
X174476190Y-137111904D01*
X174571428Y-137159523D01*
X174761904Y-137159523D01*
X174857142Y-137111904D01*
X174904761Y-137064285D01*
X174952380Y-136969047D01*
X174952380Y-136778571D01*
X174904761Y-136683333D01*
X174857142Y-136635714D01*
X174761904Y-136588095D01*
X174571428Y-136588095D01*
X174476190Y-136635714D01*
X174428571Y-136683333D01*
X174380952Y-136778571D01*
X172857142Y-138492857D02*
X172904761Y-138540476D01*
X172952380Y-138683333D01*
X172952380Y-138778571D01*
X172904761Y-138921428D01*
X172809523Y-139016666D01*
X172714285Y-139064285D01*
X172523809Y-139111904D01*
X172380952Y-139111904D01*
X172190476Y-139064285D01*
X172095238Y-139016666D01*
X172000000Y-138921428D01*
X171952380Y-138778571D01*
X171952380Y-138683333D01*
X172000000Y-138540476D01*
X172047619Y-138492857D01*
X172047619Y-138111904D02*
X172000000Y-138064285D01*
X171952380Y-137969047D01*
X171952380Y-137730952D01*
X172000000Y-137635714D01*
X172047619Y-137588095D01*
X172142857Y-137540476D01*
X172238095Y-137540476D01*
X172380952Y-137588095D01*
X172952380Y-138159523D01*
X172952380Y-137540476D01*
X171952380Y-137207142D02*
X171952380Y-136540476D01*
X172952380Y-136969047D01*
X170857142Y-138492857D02*
X170904761Y-138540476D01*
X170952380Y-138683333D01*
X170952380Y-138778571D01*
X170904761Y-138921428D01*
X170809523Y-139016666D01*
X170714285Y-139064285D01*
X170523809Y-139111904D01*
X170380952Y-139111904D01*
X170190476Y-139064285D01*
X170095238Y-139016666D01*
X170000000Y-138921428D01*
X169952380Y-138778571D01*
X169952380Y-138683333D01*
X170000000Y-138540476D01*
X170047619Y-138492857D01*
X170047619Y-138111904D02*
X170000000Y-138064285D01*
X169952380Y-137969047D01*
X169952380Y-137730952D01*
X170000000Y-137635714D01*
X170047619Y-137588095D01*
X170142857Y-137540476D01*
X170238095Y-137540476D01*
X170380952Y-137588095D01*
X170952380Y-138159523D01*
X170952380Y-137540476D01*
X169952380Y-136683333D02*
X169952380Y-136873809D01*
X170000000Y-136969047D01*
X170047619Y-137016666D01*
X170190476Y-137111904D01*
X170380952Y-137159523D01*
X170761904Y-137159523D01*
X170857142Y-137111904D01*
X170904761Y-137064285D01*
X170952380Y-136969047D01*
X170952380Y-136778571D01*
X170904761Y-136683333D01*
X170857142Y-136635714D01*
X170761904Y-136588095D01*
X170523809Y-136588095D01*
X170428571Y-136635714D01*
X170380952Y-136683333D01*
X170333333Y-136778571D01*
X170333333Y-136969047D01*
X170380952Y-137064285D01*
X170428571Y-137111904D01*
X170523809Y-137159523D01*
X202857142Y-120142857D02*
X202904761Y-120190476D01*
X202952380Y-120333333D01*
X202952380Y-120428571D01*
X202904761Y-120571428D01*
X202809523Y-120666666D01*
X202714285Y-120714285D01*
X202523809Y-120761904D01*
X202380952Y-120761904D01*
X202190476Y-120714285D01*
X202095238Y-120666666D01*
X202000000Y-120571428D01*
X201952380Y-120428571D01*
X201952380Y-120333333D01*
X202000000Y-120190476D01*
X202047619Y-120142857D01*
X202047619Y-119761904D02*
X202000000Y-119714285D01*
X201952380Y-119619047D01*
X201952380Y-119380952D01*
X202000000Y-119285714D01*
X202047619Y-119238095D01*
X202142857Y-119190476D01*
X202238095Y-119190476D01*
X202380952Y-119238095D01*
X202952380Y-119809523D01*
X202952380Y-119190476D01*
X201952380Y-118285714D02*
X201952380Y-118761904D01*
X202428571Y-118809523D01*
X202380952Y-118761904D01*
X202333333Y-118666666D01*
X202333333Y-118428571D01*
X202380952Y-118333333D01*
X202428571Y-118285714D01*
X202523809Y-118238095D01*
X202761904Y-118238095D01*
X202857142Y-118285714D01*
X202904761Y-118333333D01*
X202952380Y-118428571D01*
X202952380Y-118666666D01*
X202904761Y-118761904D01*
X202857142Y-118809523D01*
X200857142Y-120142857D02*
X200904761Y-120190476D01*
X200952380Y-120333333D01*
X200952380Y-120428571D01*
X200904761Y-120571428D01*
X200809523Y-120666666D01*
X200714285Y-120714285D01*
X200523809Y-120761904D01*
X200380952Y-120761904D01*
X200190476Y-120714285D01*
X200095238Y-120666666D01*
X200000000Y-120571428D01*
X199952380Y-120428571D01*
X199952380Y-120333333D01*
X200000000Y-120190476D01*
X200047619Y-120142857D01*
X200047619Y-119761904D02*
X200000000Y-119714285D01*
X199952380Y-119619047D01*
X199952380Y-119380952D01*
X200000000Y-119285714D01*
X200047619Y-119238095D01*
X200142857Y-119190476D01*
X200238095Y-119190476D01*
X200380952Y-119238095D01*
X200952380Y-119809523D01*
X200952380Y-119190476D01*
X200285714Y-118333333D02*
X200952380Y-118333333D01*
X199904761Y-118571428D02*
X200619047Y-118809523D01*
X200619047Y-118190476D01*
X200857142Y-136142857D02*
X200904761Y-136190476D01*
X200952380Y-136333333D01*
X200952380Y-136428571D01*
X200904761Y-136571428D01*
X200809523Y-136666666D01*
X200714285Y-136714285D01*
X200523809Y-136761904D01*
X200380952Y-136761904D01*
X200190476Y-136714285D01*
X200095238Y-136666666D01*
X200000000Y-136571428D01*
X199952380Y-136428571D01*
X199952380Y-136333333D01*
X200000000Y-136190476D01*
X200047619Y-136142857D01*
X200047619Y-135761904D02*
X200000000Y-135714285D01*
X199952380Y-135619047D01*
X199952380Y-135380952D01*
X200000000Y-135285714D01*
X200047619Y-135238095D01*
X200142857Y-135190476D01*
X200238095Y-135190476D01*
X200380952Y-135238095D01*
X200952380Y-135809523D01*
X200952380Y-135190476D01*
X199952380Y-134857142D02*
X199952380Y-134238095D01*
X200333333Y-134571428D01*
X200333333Y-134428571D01*
X200380952Y-134333333D01*
X200428571Y-134285714D01*
X200523809Y-134238095D01*
X200761904Y-134238095D01*
X200857142Y-134285714D01*
X200904761Y-134333333D01*
X200952380Y-134428571D01*
X200952380Y-134714285D01*
X200904761Y-134809523D01*
X200857142Y-134857142D01*
X202857142Y-136142857D02*
X202904761Y-136190476D01*
X202952380Y-136333333D01*
X202952380Y-136428571D01*
X202904761Y-136571428D01*
X202809523Y-136666666D01*
X202714285Y-136714285D01*
X202523809Y-136761904D01*
X202380952Y-136761904D01*
X202190476Y-136714285D01*
X202095238Y-136666666D01*
X202000000Y-136571428D01*
X201952380Y-136428571D01*
X201952380Y-136333333D01*
X202000000Y-136190476D01*
X202047619Y-136142857D01*
X202047619Y-135761904D02*
X202000000Y-135714285D01*
X201952380Y-135619047D01*
X201952380Y-135380952D01*
X202000000Y-135285714D01*
X202047619Y-135238095D01*
X202142857Y-135190476D01*
X202238095Y-135190476D01*
X202380952Y-135238095D01*
X202952380Y-135809523D01*
X202952380Y-135190476D01*
X202047619Y-134809523D02*
X202000000Y-134761904D01*
X201952380Y-134666666D01*
X201952380Y-134428571D01*
X202000000Y-134333333D01*
X202047619Y-134285714D01*
X202142857Y-134238095D01*
X202238095Y-134238095D01*
X202380952Y-134285714D01*
X202952380Y-134857142D01*
X202952380Y-134238095D01*
X179557142Y-102642857D02*
X179604761Y-102690476D01*
X179652380Y-102833333D01*
X179652380Y-102928571D01*
X179604761Y-103071428D01*
X179509523Y-103166666D01*
X179414285Y-103214285D01*
X179223809Y-103261904D01*
X179080952Y-103261904D01*
X178890476Y-103214285D01*
X178795238Y-103166666D01*
X178700000Y-103071428D01*
X178652380Y-102928571D01*
X178652380Y-102833333D01*
X178700000Y-102690476D01*
X178747619Y-102642857D01*
X178747619Y-102261904D02*
X178700000Y-102214285D01*
X178652380Y-102119047D01*
X178652380Y-101880952D01*
X178700000Y-101785714D01*
X178747619Y-101738095D01*
X178842857Y-101690476D01*
X178938095Y-101690476D01*
X179080952Y-101738095D01*
X179652380Y-102309523D01*
X179652380Y-101690476D01*
X179652380Y-100738095D02*
X179652380Y-101309523D01*
X179652380Y-101023809D02*
X178652380Y-101023809D01*
X178795238Y-101119047D01*
X178890476Y-101214285D01*
X178938095Y-101309523D01*
X176957142Y-98942857D02*
X177004761Y-98990476D01*
X177052380Y-99133333D01*
X177052380Y-99228571D01*
X177004761Y-99371428D01*
X176909523Y-99466666D01*
X176814285Y-99514285D01*
X176623809Y-99561904D01*
X176480952Y-99561904D01*
X176290476Y-99514285D01*
X176195238Y-99466666D01*
X176100000Y-99371428D01*
X176052380Y-99228571D01*
X176052380Y-99133333D01*
X176100000Y-98990476D01*
X176147619Y-98942857D01*
X176147619Y-98561904D02*
X176100000Y-98514285D01*
X176052380Y-98419047D01*
X176052380Y-98180952D01*
X176100000Y-98085714D01*
X176147619Y-98038095D01*
X176242857Y-97990476D01*
X176338095Y-97990476D01*
X176480952Y-98038095D01*
X177052380Y-98609523D01*
X177052380Y-97990476D01*
X176052380Y-97371428D02*
X176052380Y-97276190D01*
X176100000Y-97180952D01*
X176147619Y-97133333D01*
X176242857Y-97085714D01*
X176433333Y-97038095D01*
X176671428Y-97038095D01*
X176861904Y-97085714D01*
X176957142Y-97133333D01*
X177004761Y-97180952D01*
X177052380Y-97276190D01*
X177052380Y-97371428D01*
X177004761Y-97466666D01*
X176957142Y-97514285D01*
X176861904Y-97561904D01*
X176671428Y-97609523D01*
X176433333Y-97609523D01*
X176242857Y-97561904D01*
X176147619Y-97514285D01*
X176100000Y-97466666D01*
X176052380Y-97371428D01*
X173157142Y-99242857D02*
X173204761Y-99290476D01*
X173252380Y-99433333D01*
X173252380Y-99528571D01*
X173204761Y-99671428D01*
X173109523Y-99766666D01*
X173014285Y-99814285D01*
X172823809Y-99861904D01*
X172680952Y-99861904D01*
X172490476Y-99814285D01*
X172395238Y-99766666D01*
X172300000Y-99671428D01*
X172252380Y-99528571D01*
X172252380Y-99433333D01*
X172300000Y-99290476D01*
X172347619Y-99242857D01*
X173252380Y-98290476D02*
X173252380Y-98861904D01*
X173252380Y-98576190D02*
X172252380Y-98576190D01*
X172395238Y-98671428D01*
X172490476Y-98766666D01*
X172538095Y-98861904D01*
X173252380Y-97814285D02*
X173252380Y-97623809D01*
X173204761Y-97528571D01*
X173157142Y-97480952D01*
X173014285Y-97385714D01*
X172823809Y-97338095D01*
X172442857Y-97338095D01*
X172347619Y-97385714D01*
X172300000Y-97433333D01*
X172252380Y-97528571D01*
X172252380Y-97719047D01*
X172300000Y-97814285D01*
X172347619Y-97861904D01*
X172442857Y-97909523D01*
X172680952Y-97909523D01*
X172776190Y-97861904D01*
X172823809Y-97814285D01*
X172871428Y-97719047D01*
X172871428Y-97528571D01*
X172823809Y-97433333D01*
X172776190Y-97385714D01*
X172680952Y-97338095D01*
X173057142Y-114142857D02*
X173104761Y-114190476D01*
X173152380Y-114333333D01*
X173152380Y-114428571D01*
X173104761Y-114571428D01*
X173009523Y-114666666D01*
X172914285Y-114714285D01*
X172723809Y-114761904D01*
X172580952Y-114761904D01*
X172390476Y-114714285D01*
X172295238Y-114666666D01*
X172200000Y-114571428D01*
X172152380Y-114428571D01*
X172152380Y-114333333D01*
X172200000Y-114190476D01*
X172247619Y-114142857D01*
X173152380Y-113190476D02*
X173152380Y-113761904D01*
X173152380Y-113476190D02*
X172152380Y-113476190D01*
X172295238Y-113571428D01*
X172390476Y-113666666D01*
X172438095Y-113761904D01*
X172580952Y-112619047D02*
X172533333Y-112714285D01*
X172485714Y-112761904D01*
X172390476Y-112809523D01*
X172342857Y-112809523D01*
X172247619Y-112761904D01*
X172200000Y-112714285D01*
X172152380Y-112619047D01*
X172152380Y-112428571D01*
X172200000Y-112333333D01*
X172247619Y-112285714D01*
X172342857Y-112238095D01*
X172390476Y-112238095D01*
X172485714Y-112285714D01*
X172533333Y-112333333D01*
X172580952Y-112428571D01*
X172580952Y-112619047D01*
X172628571Y-112714285D01*
X172676190Y-112761904D01*
X172771428Y-112809523D01*
X172961904Y-112809523D01*
X173057142Y-112761904D01*
X173104761Y-112714285D01*
X173152380Y-112619047D01*
X173152380Y-112428571D01*
X173104761Y-112333333D01*
X173057142Y-112285714D01*
X172961904Y-112238095D01*
X172771428Y-112238095D01*
X172676190Y-112285714D01*
X172628571Y-112333333D01*
X172580952Y-112428571D01*
X179457142Y-110342857D02*
X179504761Y-110390476D01*
X179552380Y-110533333D01*
X179552380Y-110628571D01*
X179504761Y-110771428D01*
X179409523Y-110866666D01*
X179314285Y-110914285D01*
X179123809Y-110961904D01*
X178980952Y-110961904D01*
X178790476Y-110914285D01*
X178695238Y-110866666D01*
X178600000Y-110771428D01*
X178552380Y-110628571D01*
X178552380Y-110533333D01*
X178600000Y-110390476D01*
X178647619Y-110342857D01*
X179552380Y-109390476D02*
X179552380Y-109961904D01*
X179552380Y-109676190D02*
X178552380Y-109676190D01*
X178695238Y-109771428D01*
X178790476Y-109866666D01*
X178838095Y-109961904D01*
X178552380Y-109057142D02*
X178552380Y-108390476D01*
X179552380Y-108819047D01*
X176757142Y-114042857D02*
X176804761Y-114090476D01*
X176852380Y-114233333D01*
X176852380Y-114328571D01*
X176804761Y-114471428D01*
X176709523Y-114566666D01*
X176614285Y-114614285D01*
X176423809Y-114661904D01*
X176280952Y-114661904D01*
X176090476Y-114614285D01*
X175995238Y-114566666D01*
X175900000Y-114471428D01*
X175852380Y-114328571D01*
X175852380Y-114233333D01*
X175900000Y-114090476D01*
X175947619Y-114042857D01*
X176852380Y-113090476D02*
X176852380Y-113661904D01*
X176852380Y-113376190D02*
X175852380Y-113376190D01*
X175995238Y-113471428D01*
X176090476Y-113566666D01*
X176138095Y-113661904D01*
X175852380Y-112233333D02*
X175852380Y-112423809D01*
X175900000Y-112519047D01*
X175947619Y-112566666D01*
X176090476Y-112661904D01*
X176280952Y-112709523D01*
X176661904Y-112709523D01*
X176757142Y-112661904D01*
X176804761Y-112614285D01*
X176852380Y-112519047D01*
X176852380Y-112328571D01*
X176804761Y-112233333D01*
X176757142Y-112185714D01*
X176661904Y-112138095D01*
X176423809Y-112138095D01*
X176328571Y-112185714D01*
X176280952Y-112233333D01*
X176233333Y-112328571D01*
X176233333Y-112519047D01*
X176280952Y-112614285D01*
X176328571Y-112661904D01*
X176423809Y-112709523D01*
X190857142Y-118392857D02*
X190904761Y-118440476D01*
X190952380Y-118583333D01*
X190952380Y-118678571D01*
X190904761Y-118821428D01*
X190809523Y-118916666D01*
X190714285Y-118964285D01*
X190523809Y-119011904D01*
X190380952Y-119011904D01*
X190190476Y-118964285D01*
X190095238Y-118916666D01*
X190000000Y-118821428D01*
X189952380Y-118678571D01*
X189952380Y-118583333D01*
X190000000Y-118440476D01*
X190047619Y-118392857D01*
X190952380Y-117440476D02*
X190952380Y-118011904D01*
X190952380Y-117726190D02*
X189952380Y-117726190D01*
X190095238Y-117821428D01*
X190190476Y-117916666D01*
X190238095Y-118011904D01*
X189952380Y-116535714D02*
X189952380Y-117011904D01*
X190428571Y-117059523D01*
X190380952Y-117011904D01*
X190333333Y-116916666D01*
X190333333Y-116678571D01*
X190380952Y-116583333D01*
X190428571Y-116535714D01*
X190523809Y-116488095D01*
X190761904Y-116488095D01*
X190857142Y-116535714D01*
X190904761Y-116583333D01*
X190952380Y-116678571D01*
X190952380Y-116916666D01*
X190904761Y-117011904D01*
X190857142Y-117059523D01*
X192857142Y-118392857D02*
X192904761Y-118440476D01*
X192952380Y-118583333D01*
X192952380Y-118678571D01*
X192904761Y-118821428D01*
X192809523Y-118916666D01*
X192714285Y-118964285D01*
X192523809Y-119011904D01*
X192380952Y-119011904D01*
X192190476Y-118964285D01*
X192095238Y-118916666D01*
X192000000Y-118821428D01*
X191952380Y-118678571D01*
X191952380Y-118583333D01*
X192000000Y-118440476D01*
X192047619Y-118392857D01*
X192952380Y-117440476D02*
X192952380Y-118011904D01*
X192952380Y-117726190D02*
X191952380Y-117726190D01*
X192095238Y-117821428D01*
X192190476Y-117916666D01*
X192238095Y-118011904D01*
X192285714Y-116583333D02*
X192952380Y-116583333D01*
X191904761Y-116821428D02*
X192619047Y-117059523D01*
X192619047Y-116440476D01*
X194857142Y-118392857D02*
X194904761Y-118440476D01*
X194952380Y-118583333D01*
X194952380Y-118678571D01*
X194904761Y-118821428D01*
X194809523Y-118916666D01*
X194714285Y-118964285D01*
X194523809Y-119011904D01*
X194380952Y-119011904D01*
X194190476Y-118964285D01*
X194095238Y-118916666D01*
X194000000Y-118821428D01*
X193952380Y-118678571D01*
X193952380Y-118583333D01*
X194000000Y-118440476D01*
X194047619Y-118392857D01*
X194952380Y-117440476D02*
X194952380Y-118011904D01*
X194952380Y-117726190D02*
X193952380Y-117726190D01*
X194095238Y-117821428D01*
X194190476Y-117916666D01*
X194238095Y-118011904D01*
X193952380Y-117107142D02*
X193952380Y-116488095D01*
X194333333Y-116821428D01*
X194333333Y-116678571D01*
X194380952Y-116583333D01*
X194428571Y-116535714D01*
X194523809Y-116488095D01*
X194761904Y-116488095D01*
X194857142Y-116535714D01*
X194904761Y-116583333D01*
X194952380Y-116678571D01*
X194952380Y-116964285D01*
X194904761Y-117059523D01*
X194857142Y-117107142D01*
X194857142Y-138392857D02*
X194904761Y-138440476D01*
X194952380Y-138583333D01*
X194952380Y-138678571D01*
X194904761Y-138821428D01*
X194809523Y-138916666D01*
X194714285Y-138964285D01*
X194523809Y-139011904D01*
X194380952Y-139011904D01*
X194190476Y-138964285D01*
X194095238Y-138916666D01*
X194000000Y-138821428D01*
X193952380Y-138678571D01*
X193952380Y-138583333D01*
X194000000Y-138440476D01*
X194047619Y-138392857D01*
X194952380Y-137440476D02*
X194952380Y-138011904D01*
X194952380Y-137726190D02*
X193952380Y-137726190D01*
X194095238Y-137821428D01*
X194190476Y-137916666D01*
X194238095Y-138011904D01*
X194047619Y-137059523D02*
X194000000Y-137011904D01*
X193952380Y-136916666D01*
X193952380Y-136678571D01*
X194000000Y-136583333D01*
X194047619Y-136535714D01*
X194142857Y-136488095D01*
X194238095Y-136488095D01*
X194380952Y-136535714D01*
X194952380Y-137107142D01*
X194952380Y-136488095D01*
X192857142Y-138479857D02*
X192904761Y-138527476D01*
X192952380Y-138670333D01*
X192952380Y-138765571D01*
X192904761Y-138908428D01*
X192809523Y-139003666D01*
X192714285Y-139051285D01*
X192523809Y-139098904D01*
X192380952Y-139098904D01*
X192190476Y-139051285D01*
X192095238Y-139003666D01*
X192000000Y-138908428D01*
X191952380Y-138765571D01*
X191952380Y-138670333D01*
X192000000Y-138527476D01*
X192047619Y-138479857D01*
X192952380Y-137527476D02*
X192952380Y-138098904D01*
X192952380Y-137813190D02*
X191952380Y-137813190D01*
X192095238Y-137908428D01*
X192190476Y-138003666D01*
X192238095Y-138098904D01*
X192952380Y-136575095D02*
X192952380Y-137146523D01*
X192952380Y-136860809D02*
X191952380Y-136860809D01*
X192095238Y-136956047D01*
X192190476Y-137051285D01*
X192238095Y-137146523D01*
X190857142Y-138479857D02*
X190904761Y-138527476D01*
X190952380Y-138670333D01*
X190952380Y-138765571D01*
X190904761Y-138908428D01*
X190809523Y-139003666D01*
X190714285Y-139051285D01*
X190523809Y-139098904D01*
X190380952Y-139098904D01*
X190190476Y-139051285D01*
X190095238Y-139003666D01*
X190000000Y-138908428D01*
X189952380Y-138765571D01*
X189952380Y-138670333D01*
X190000000Y-138527476D01*
X190047619Y-138479857D01*
X190952380Y-137527476D02*
X190952380Y-138098904D01*
X190952380Y-137813190D02*
X189952380Y-137813190D01*
X190095238Y-137908428D01*
X190190476Y-138003666D01*
X190238095Y-138098904D01*
X189952380Y-136908428D02*
X189952380Y-136813190D01*
X190000000Y-136717952D01*
X190047619Y-136670333D01*
X190142857Y-136622714D01*
X190333333Y-136575095D01*
X190571428Y-136575095D01*
X190761904Y-136622714D01*
X190857142Y-136670333D01*
X190904761Y-136717952D01*
X190952380Y-136813190D01*
X190952380Y-136908428D01*
X190904761Y-137003666D01*
X190857142Y-137051285D01*
X190761904Y-137098904D01*
X190571428Y-137146523D01*
X190333333Y-137146523D01*
X190142857Y-137098904D01*
X190047619Y-137051285D01*
X190000000Y-137003666D01*
X189952380Y-136908428D01*
X164283333Y-132957142D02*
X164235714Y-133004761D01*
X164092857Y-133052380D01*
X163997619Y-133052380D01*
X163854761Y-133004761D01*
X163759523Y-132909523D01*
X163711904Y-132814285D01*
X163664285Y-132623809D01*
X163664285Y-132480952D01*
X163711904Y-132290476D01*
X163759523Y-132195238D01*
X163854761Y-132100000D01*
X163997619Y-132052380D01*
X164092857Y-132052380D01*
X164235714Y-132100000D01*
X164283333Y-132147619D01*
X164616666Y-132052380D02*
X165283333Y-132052380D01*
X164854761Y-133052380D01*
X164283333Y-130757142D02*
X164235714Y-130804761D01*
X164092857Y-130852380D01*
X163997619Y-130852380D01*
X163854761Y-130804761D01*
X163759523Y-130709523D01*
X163711904Y-130614285D01*
X163664285Y-130423809D01*
X163664285Y-130280952D01*
X163711904Y-130090476D01*
X163759523Y-129995238D01*
X163854761Y-129900000D01*
X163997619Y-129852380D01*
X164092857Y-129852380D01*
X164235714Y-129900000D01*
X164283333Y-129947619D01*
X165140476Y-129852380D02*
X164950000Y-129852380D01*
X164854761Y-129900000D01*
X164807142Y-129947619D01*
X164711904Y-130090476D01*
X164664285Y-130280952D01*
X164664285Y-130661904D01*
X164711904Y-130757142D01*
X164759523Y-130804761D01*
X164854761Y-130852380D01*
X165045238Y-130852380D01*
X165140476Y-130804761D01*
X165188095Y-130757142D01*
X165235714Y-130661904D01*
X165235714Y-130423809D01*
X165188095Y-130328571D01*
X165140476Y-130280952D01*
X165045238Y-130233333D01*
X164854761Y-130233333D01*
X164759523Y-130280952D01*
X164711904Y-130328571D01*
X164664285Y-130423809D01*
X141833333Y-131357142D02*
X141785714Y-131404761D01*
X141642857Y-131452380D01*
X141547619Y-131452380D01*
X141404761Y-131404761D01*
X141309523Y-131309523D01*
X141261904Y-131214285D01*
X141214285Y-131023809D01*
X141214285Y-130880952D01*
X141261904Y-130690476D01*
X141309523Y-130595238D01*
X141404761Y-130500000D01*
X141547619Y-130452380D01*
X141642857Y-130452380D01*
X141785714Y-130500000D01*
X141833333Y-130547619D01*
X142166666Y-130452380D02*
X142785714Y-130452380D01*
X142452380Y-130833333D01*
X142595238Y-130833333D01*
X142690476Y-130880952D01*
X142738095Y-130928571D01*
X142785714Y-131023809D01*
X142785714Y-131261904D01*
X142738095Y-131357142D01*
X142690476Y-131404761D01*
X142595238Y-131452380D01*
X142309523Y-131452380D01*
X142214285Y-131404761D01*
X142166666Y-131357142D01*
X141833333Y-127107142D02*
X141785714Y-127154761D01*
X141642857Y-127202380D01*
X141547619Y-127202380D01*
X141404761Y-127154761D01*
X141309523Y-127059523D01*
X141261904Y-126964285D01*
X141214285Y-126773809D01*
X141214285Y-126630952D01*
X141261904Y-126440476D01*
X141309523Y-126345238D01*
X141404761Y-126250000D01*
X141547619Y-126202380D01*
X141642857Y-126202380D01*
X141785714Y-126250000D01*
X141833333Y-126297619D01*
X142214285Y-126297619D02*
X142261904Y-126250000D01*
X142357142Y-126202380D01*
X142595238Y-126202380D01*
X142690476Y-126250000D01*
X142738095Y-126297619D01*
X142785714Y-126392857D01*
X142785714Y-126488095D01*
X142738095Y-126630952D01*
X142166666Y-127202380D01*
X142785714Y-127202380D01*
X203952380Y-127261904D02*
X204761904Y-127261904D01*
X204857142Y-127214285D01*
X204904761Y-127166666D01*
X204952380Y-127071428D01*
X204952380Y-126880952D01*
X204904761Y-126785714D01*
X204857142Y-126738095D01*
X204761904Y-126690476D01*
X203952380Y-126690476D01*
X204285714Y-125785714D02*
X204952380Y-125785714D01*
X203904761Y-126023809D02*
X204619047Y-126261904D01*
X204619047Y-125642857D01*
X156352380Y-83851904D02*
X157161904Y-83851904D01*
X157257142Y-83804285D01*
X157304761Y-83756666D01*
X157352380Y-83661428D01*
X157352380Y-83470952D01*
X157304761Y-83375714D01*
X157257142Y-83328095D01*
X157161904Y-83280476D01*
X156352380Y-83280476D01*
X157352380Y-82756666D02*
X157352380Y-82566190D01*
X157304761Y-82470952D01*
X157257142Y-82423333D01*
X157114285Y-82328095D01*
X156923809Y-82280476D01*
X156542857Y-82280476D01*
X156447619Y-82328095D01*
X156400000Y-82375714D01*
X156352380Y-82470952D01*
X156352380Y-82661428D01*
X156400000Y-82756666D01*
X156447619Y-82804285D01*
X156542857Y-82851904D01*
X156780952Y-82851904D01*
X156876190Y-82804285D01*
X156923809Y-82756666D01*
X156971428Y-82661428D01*
X156971428Y-82470952D01*
X156923809Y-82375714D01*
X156876190Y-82328095D01*
X156780952Y-82280476D01*
X181202380Y-87428095D02*
X182011904Y-87428095D01*
X182107142Y-87380476D01*
X182154761Y-87332857D01*
X182202380Y-87237619D01*
X182202380Y-87047142D01*
X182154761Y-86951904D01*
X182107142Y-86904285D01*
X182011904Y-86856666D01*
X181202380Y-86856666D01*
X182202380Y-85856666D02*
X182202380Y-86428095D01*
X182202380Y-86142380D02*
X181202380Y-86142380D01*
X181345238Y-86237619D01*
X181440476Y-86332857D01*
X181488095Y-86428095D01*
X181202380Y-85237619D02*
X181202380Y-85142380D01*
X181250000Y-85047142D01*
X181297619Y-84999523D01*
X181392857Y-84951904D01*
X181583333Y-84904285D01*
X181821428Y-84904285D01*
X182011904Y-84951904D01*
X182107142Y-84999523D01*
X182154761Y-85047142D01*
X182202380Y-85142380D01*
X182202380Y-85237619D01*
X182154761Y-85332857D01*
X182107142Y-85380476D01*
X182011904Y-85428095D01*
X181821428Y-85475714D01*
X181583333Y-85475714D01*
X181392857Y-85428095D01*
X181297619Y-85380476D01*
X181250000Y-85332857D01*
X181202380Y-85237619D01*
X217952380Y-89738095D02*
X218761904Y-89738095D01*
X218857142Y-89690476D01*
X218904761Y-89642857D01*
X218952380Y-89547619D01*
X218952380Y-89357142D01*
X218904761Y-89261904D01*
X218857142Y-89214285D01*
X218761904Y-89166666D01*
X217952380Y-89166666D01*
X218952380Y-88166666D02*
X218952380Y-88738095D01*
X218952380Y-88452380D02*
X217952380Y-88452380D01*
X218095238Y-88547619D01*
X218190476Y-88642857D01*
X218238095Y-88738095D01*
X218952380Y-87214285D02*
X218952380Y-87785714D01*
X218952380Y-87500000D02*
X217952380Y-87500000D01*
X218095238Y-87595238D01*
X218190476Y-87690476D01*
X218238095Y-87785714D01*
X195598880Y-126261904D02*
X196408404Y-126261904D01*
X196503642Y-126214285D01*
X196551261Y-126166666D01*
X196598880Y-126071428D01*
X196598880Y-125880952D01*
X196551261Y-125785714D01*
X196503642Y-125738095D01*
X196408404Y-125690476D01*
X195598880Y-125690476D01*
X195694119Y-125261904D02*
X195646500Y-125214285D01*
X195598880Y-125119047D01*
X195598880Y-124880952D01*
X195646500Y-124785714D01*
X195694119Y-124738095D01*
X195789357Y-124690476D01*
X195884595Y-124690476D01*
X196027452Y-124738095D01*
X196598880Y-125309523D01*
X196598880Y-124690476D01*
X175452380Y-126060903D02*
X176261904Y-126060903D01*
X176357142Y-126013284D01*
X176404761Y-125965665D01*
X176452380Y-125870427D01*
X176452380Y-125679951D01*
X176404761Y-125584713D01*
X176357142Y-125537094D01*
X176261904Y-125489475D01*
X175452380Y-125489475D01*
X175452380Y-124537094D02*
X175452380Y-125013284D01*
X175928571Y-125060903D01*
X175880952Y-125013284D01*
X175833333Y-124918046D01*
X175833333Y-124679951D01*
X175880952Y-124584713D01*
X175928571Y-124537094D01*
X176023809Y-124489475D01*
X176261904Y-124489475D01*
X176357142Y-124537094D01*
X176404761Y-124584713D01*
X176452380Y-124679951D01*
X176452380Y-124918046D01*
X176404761Y-125013284D01*
X176357142Y-125060903D01*
X185452380Y-126261904D02*
X186261904Y-126261904D01*
X186357142Y-126214285D01*
X186404761Y-126166666D01*
X186452380Y-126071428D01*
X186452380Y-125880952D01*
X186404761Y-125785714D01*
X186357142Y-125738095D01*
X186261904Y-125690476D01*
X185452380Y-125690476D01*
X185452380Y-124785714D02*
X185452380Y-124976190D01*
X185500000Y-125071428D01*
X185547619Y-125119047D01*
X185690476Y-125214285D01*
X185880952Y-125261904D01*
X186261904Y-125261904D01*
X186357142Y-125214285D01*
X186404761Y-125166666D01*
X186452380Y-125071428D01*
X186452380Y-124880952D01*
X186404761Y-124785714D01*
X186357142Y-124738095D01*
X186261904Y-124690476D01*
X186023809Y-124690476D01*
X185928571Y-124738095D01*
X185880952Y-124785714D01*
X185833333Y-124880952D01*
X185833333Y-125071428D01*
X185880952Y-125166666D01*
X185928571Y-125214285D01*
X186023809Y-125261904D01*
X142633333Y-117657142D02*
X142585714Y-117704761D01*
X142442857Y-117752380D01*
X142347619Y-117752380D01*
X142204761Y-117704761D01*
X142109523Y-117609523D01*
X142061904Y-117514285D01*
X142014285Y-117323809D01*
X142014285Y-117180952D01*
X142061904Y-116990476D01*
X142109523Y-116895238D01*
X142204761Y-116800000D01*
X142347619Y-116752380D01*
X142442857Y-116752380D01*
X142585714Y-116800000D01*
X142633333Y-116847619D01*
X143204761Y-117180952D02*
X143109523Y-117133333D01*
X143061904Y-117085714D01*
X143014285Y-116990476D01*
X143014285Y-116942857D01*
X143061904Y-116847619D01*
X143109523Y-116800000D01*
X143204761Y-116752380D01*
X143395238Y-116752380D01*
X143490476Y-116800000D01*
X143538095Y-116847619D01*
X143585714Y-116942857D01*
X143585714Y-116990476D01*
X143538095Y-117085714D01*
X143490476Y-117133333D01*
X143395238Y-117180952D01*
X143204761Y-117180952D01*
X143109523Y-117228571D01*
X143061904Y-117276190D01*
X143014285Y-117371428D01*
X143014285Y-117561904D01*
X143061904Y-117657142D01*
X143109523Y-117704761D01*
X143204761Y-117752380D01*
X143395238Y-117752380D01*
X143490476Y-117704761D01*
X143538095Y-117657142D01*
X143585714Y-117561904D01*
X143585714Y-117371428D01*
X143538095Y-117276190D01*
X143490476Y-117228571D01*
X143395238Y-117180952D01*
X166233333Y-117557142D02*
X166185714Y-117604761D01*
X166042857Y-117652380D01*
X165947619Y-117652380D01*
X165804761Y-117604761D01*
X165709523Y-117509523D01*
X165661904Y-117414285D01*
X165614285Y-117223809D01*
X165614285Y-117080952D01*
X165661904Y-116890476D01*
X165709523Y-116795238D01*
X165804761Y-116700000D01*
X165947619Y-116652380D01*
X166042857Y-116652380D01*
X166185714Y-116700000D01*
X166233333Y-116747619D01*
X166709523Y-117652380D02*
X166900000Y-117652380D01*
X166995238Y-117604761D01*
X167042857Y-117557142D01*
X167138095Y-117414285D01*
X167185714Y-117223809D01*
X167185714Y-116842857D01*
X167138095Y-116747619D01*
X167090476Y-116700000D01*
X166995238Y-116652380D01*
X166804761Y-116652380D01*
X166709523Y-116700000D01*
X166661904Y-116747619D01*
X166614285Y-116842857D01*
X166614285Y-117080952D01*
X166661904Y-117176190D01*
X166709523Y-117223809D01*
X166804761Y-117271428D01*
X166995238Y-117271428D01*
X167090476Y-117223809D01*
X167138095Y-117176190D01*
X167185714Y-117080952D01*
X233957142Y-125457142D02*
X233909523Y-125504761D01*
X233766666Y-125552380D01*
X233671428Y-125552380D01*
X233528571Y-125504761D01*
X233433333Y-125409523D01*
X233385714Y-125314285D01*
X233338095Y-125123809D01*
X233338095Y-124980952D01*
X233385714Y-124790476D01*
X233433333Y-124695238D01*
X233528571Y-124600000D01*
X233671428Y-124552380D01*
X233766666Y-124552380D01*
X233909523Y-124600000D01*
X233957142Y-124647619D01*
X234814285Y-124885714D02*
X234814285Y-125552380D01*
X234576190Y-124504761D02*
X234338095Y-125219047D01*
X234957142Y-125219047D01*
X235766666Y-124885714D02*
X235766666Y-125552380D01*
X235528571Y-124504761D02*
X235290476Y-125219047D01*
X235909523Y-125219047D01*
X160933333Y-123257142D02*
X160885714Y-123304761D01*
X160742857Y-123352380D01*
X160647619Y-123352380D01*
X160504761Y-123304761D01*
X160409523Y-123209523D01*
X160361904Y-123114285D01*
X160314285Y-122923809D01*
X160314285Y-122780952D01*
X160361904Y-122590476D01*
X160409523Y-122495238D01*
X160504761Y-122400000D01*
X160647619Y-122352380D01*
X160742857Y-122352380D01*
X160885714Y-122400000D01*
X160933333Y-122447619D01*
X161885714Y-123352380D02*
X161314285Y-123352380D01*
X161600000Y-123352380D02*
X161600000Y-122352380D01*
X161504761Y-122495238D01*
X161409523Y-122590476D01*
X161314285Y-122638095D01*
X163333333Y-123257142D02*
X163285714Y-123304761D01*
X163142857Y-123352380D01*
X163047619Y-123352380D01*
X162904761Y-123304761D01*
X162809523Y-123209523D01*
X162761904Y-123114285D01*
X162714285Y-122923809D01*
X162714285Y-122780952D01*
X162761904Y-122590476D01*
X162809523Y-122495238D01*
X162904761Y-122400000D01*
X163047619Y-122352380D01*
X163142857Y-122352380D01*
X163285714Y-122400000D01*
X163333333Y-122447619D01*
X164190476Y-122685714D02*
X164190476Y-123352380D01*
X163952380Y-122304761D02*
X163714285Y-123019047D01*
X164333333Y-123019047D01*
X165883333Y-123257142D02*
X165835714Y-123304761D01*
X165692857Y-123352380D01*
X165597619Y-123352380D01*
X165454761Y-123304761D01*
X165359523Y-123209523D01*
X165311904Y-123114285D01*
X165264285Y-122923809D01*
X165264285Y-122780952D01*
X165311904Y-122590476D01*
X165359523Y-122495238D01*
X165454761Y-122400000D01*
X165597619Y-122352380D01*
X165692857Y-122352380D01*
X165835714Y-122400000D01*
X165883333Y-122447619D01*
X166788095Y-122352380D02*
X166311904Y-122352380D01*
X166264285Y-122828571D01*
X166311904Y-122780952D01*
X166407142Y-122733333D01*
X166645238Y-122733333D01*
X166740476Y-122780952D01*
X166788095Y-122828571D01*
X166835714Y-122923809D01*
X166835714Y-123161904D01*
X166788095Y-123257142D01*
X166740476Y-123304761D01*
X166645238Y-123352380D01*
X166407142Y-123352380D01*
X166311904Y-123304761D01*
X166264285Y-123257142D01*
X164257142Y-135352380D02*
X163923809Y-134876190D01*
X163685714Y-135352380D02*
X163685714Y-134352380D01*
X164066666Y-134352380D01*
X164161904Y-134400000D01*
X164209523Y-134447619D01*
X164257142Y-134542857D01*
X164257142Y-134685714D01*
X164209523Y-134780952D01*
X164161904Y-134828571D01*
X164066666Y-134876190D01*
X163685714Y-134876190D01*
X165114285Y-134685714D02*
X165114285Y-135352380D01*
X164876190Y-134304761D02*
X164638095Y-135019047D01*
X165257142Y-135019047D01*
X166161904Y-135352380D02*
X165590476Y-135352380D01*
X165876190Y-135352380D02*
X165876190Y-134352380D01*
X165780952Y-134495238D01*
X165685714Y-134590476D01*
X165590476Y-134638095D01*
X206857142Y-106257142D02*
X206809523Y-106304761D01*
X206666666Y-106352380D01*
X206571428Y-106352380D01*
X206428571Y-106304761D01*
X206333333Y-106209523D01*
X206285714Y-106114285D01*
X206238095Y-105923809D01*
X206238095Y-105780952D01*
X206285714Y-105590476D01*
X206333333Y-105495238D01*
X206428571Y-105400000D01*
X206571428Y-105352380D01*
X206666666Y-105352380D01*
X206809523Y-105400000D01*
X206857142Y-105447619D01*
X207190476Y-105352380D02*
X207857142Y-105352380D01*
X207428571Y-106352380D01*
X208666666Y-105685714D02*
X208666666Y-106352380D01*
X208428571Y-105304761D02*
X208190476Y-106019047D01*
X208809523Y-106019047D01*
X216657142Y-106257142D02*
X216609523Y-106304761D01*
X216466666Y-106352380D01*
X216371428Y-106352380D01*
X216228571Y-106304761D01*
X216133333Y-106209523D01*
X216085714Y-106114285D01*
X216038095Y-105923809D01*
X216038095Y-105780952D01*
X216085714Y-105590476D01*
X216133333Y-105495238D01*
X216228571Y-105400000D01*
X216371428Y-105352380D01*
X216466666Y-105352380D01*
X216609523Y-105400000D01*
X216657142Y-105447619D01*
X216990476Y-105352380D02*
X217657142Y-105352380D01*
X217228571Y-106352380D01*
X218514285Y-105352380D02*
X218038095Y-105352380D01*
X217990476Y-105828571D01*
X218038095Y-105780952D01*
X218133333Y-105733333D01*
X218371428Y-105733333D01*
X218466666Y-105780952D01*
X218514285Y-105828571D01*
X218561904Y-105923809D01*
X218561904Y-106161904D01*
X218514285Y-106257142D01*
X218466666Y-106304761D01*
X218371428Y-106352380D01*
X218133333Y-106352380D01*
X218038095Y-106304761D01*
X217990476Y-106257142D01*
X143936666Y-71162380D02*
X143936666Y-71876666D01*
X143889047Y-72019523D01*
X143793809Y-72114761D01*
X143650952Y-72162380D01*
X143555714Y-72162380D01*
X144365238Y-71257619D02*
X144412857Y-71210000D01*
X144508095Y-71162380D01*
X144746190Y-71162380D01*
X144841428Y-71210000D01*
X144889047Y-71257619D01*
X144936666Y-71352857D01*
X144936666Y-71448095D01*
X144889047Y-71590952D01*
X144317619Y-72162380D01*
X144936666Y-72162380D01*
X168936666Y-71162380D02*
X168936666Y-71876666D01*
X168889047Y-72019523D01*
X168793809Y-72114761D01*
X168650952Y-72162380D01*
X168555714Y-72162380D01*
X169317619Y-71162380D02*
X169936666Y-71162380D01*
X169603333Y-71543333D01*
X169746190Y-71543333D01*
X169841428Y-71590952D01*
X169889047Y-71638571D01*
X169936666Y-71733809D01*
X169936666Y-71971904D01*
X169889047Y-72067142D01*
X169841428Y-72114761D01*
X169746190Y-72162380D01*
X169460476Y-72162380D01*
X169365238Y-72114761D01*
X169317619Y-72067142D01*
X193936666Y-71162380D02*
X193936666Y-71876666D01*
X193889047Y-72019523D01*
X193793809Y-72114761D01*
X193650952Y-72162380D01*
X193555714Y-72162380D01*
X194841428Y-71495714D02*
X194841428Y-72162380D01*
X194603333Y-71114761D02*
X194365238Y-71829047D01*
X194984285Y-71829047D01*
X218936666Y-71162380D02*
X218936666Y-71876666D01*
X218889047Y-72019523D01*
X218793809Y-72114761D01*
X218650952Y-72162380D01*
X218555714Y-72162380D01*
X219889047Y-71162380D02*
X219412857Y-71162380D01*
X219365238Y-71638571D01*
X219412857Y-71590952D01*
X219508095Y-71543333D01*
X219746190Y-71543333D01*
X219841428Y-71590952D01*
X219889047Y-71638571D01*
X219936666Y-71733809D01*
X219936666Y-71971904D01*
X219889047Y-72067142D01*
X219841428Y-72114761D01*
X219746190Y-72162380D01*
X219508095Y-72162380D01*
X219412857Y-72114761D01*
X219365238Y-72067142D01*
M02*
